SplineFontDB: 3.2
FontName: DaddyTimeMono
FullName: DaddyTimeMono
FamilyName: DaddyTimeMono
Weight: Book
Copyright: Copyright (C) 2017-2021 Jason Stewart, All Rights Reserved
UComments: "2018-01-11: Created.+AAoA-2021-02-13: Added enough latin chars for Vietnamese."
Version: 1.2.3
ItalicAngle: 0
UnderlinePosition: -147
UnderlineWidth: 74
Ascent: 793
Descent: 207
InvalidEm: 0
LayerCount: 2
Layer: 0 1 "Back" 1
Layer: 1 1 "Fore" 0
XUID: [1021 355 1717067722 2244829]
StyleMap: 0x0040
FSType: 0
OS2Version: 4
OS2_WeightWidthSlopeOnly: 0
OS2_UseTypoMetrics: 1
CreationTime: 1515680211
ModificationTime: 1758075569
PfmFamily: 49
TTFWeight: 400
TTFWidth: 5
LineGap: 0
VLineGap: 0
Panose: 0 0 5 9 0 0 0 0 0 0
OS2TypoAscent: 1004
OS2TypoAOffset: 0
OS2TypoDescent: -277
OS2TypoDOffset: 0
OS2TypoLinegap: 0
OS2WinAscent: 1004
OS2WinAOffset: 0
OS2WinDescent: 277
OS2WinDOffset: 0
HheadAscent: 1004
HheadAOffset: 0
HheadDescent: -277
HheadDOffset: 0
OS2XHeight: 471
OS2FamilyClass: 1285
OS2Vendor: 'EGSD'
MarkAttachClasses: 1
DEI: 91125
ShortTable: maxp 16
  0
  0
  0
  0
  0
  0
  0
  2
  1
  2
  22
  0
  256
  0
  0
  0
EndShort
TtTable: prep
PUSHW_1
 511
SCANCTRL
PUSHB_1
 1
SCANTYPE
SVTCA[y-axis]
MPPEM
PUSHB_1
 8
LT
IF
PUSHB_2
 1
 1
INSTCTRL
EIF
PUSHB_2
 70
 6
CALL
IF
POP
PUSHB_1
 16
EIF
MPPEM
PUSHB_1
 20
GT
IF
POP
PUSHB_1
 128
EIF
SCVTCI
PUSHB_1
 6
CALL
NOT
IF
SVTCA[y-axis]
PUSHB_1
 3
DUP
RCVT
PUSHB_1
 3
CALL
WCVTP
SVTCA[x-axis]
PUSHB_1
 4
DUP
RCVT
PUSHB_1
 3
CALL
WCVTP
EIF
PUSHB_1
 20
CALL
EndTTInstrs
TtTable: fpgm
PUSHB_1
 0
FDEF
PUSHB_1
 0
SZP0
MPPEM
PUSHB_1
 42
LT
IF
PUSHB_1
 74
SROUND
EIF
PUSHB_1
 0
SWAP
MIAP[rnd]
RTG
PUSHB_1
 6
CALL
IF
RTDG
EIF
MPPEM
PUSHB_1
 42
LT
IF
RDTG
EIF
DUP
MDRP[rp0,rnd,grey]
PUSHB_1
 1
SZP0
MDAP[no-rnd]
RTG
ENDF
PUSHB_1
 1
FDEF
DUP
MDRP[rp0,min,white]
PUSHB_1
 12
CALL
ENDF
PUSHB_1
 2
FDEF
MPPEM
GT
IF
RCVT
SWAP
EIF
POP
ENDF
PUSHB_1
 3
FDEF
ROUND[Black]
RTG
DUP
PUSHB_1
 64
LT
IF
POP
PUSHB_1
 64
EIF
ENDF
PUSHB_1
 4
FDEF
PUSHB_1
 6
CALL
IF
POP
SWAP
POP
ROFF

StartChar: C
Encoding: 67 67 0
Width: 588
VWidth: 1024
Flags: W
HStem: 0 74<275.369 497> 670 72<249.235 497>
VStem: 47 82<272.139 518.749>
LayerCount: 2
Fore
SplineSet
497 742 m 5,0,-1
 541 670 l 1,1,-1
 316 670 l 2,2,3
 249 670 249 670 189 588 c 128,-1,4
 129 506 129 506 129 406 c 0,5,6
 129 280 129 280 196 176 c 0,7,8
 262 74 262 74 347 74 c 2,9,-1
 497 74 l 1,10,-1
 541 0 l 1,11,-1
 360 0 l 2,12,13
 223 0 223 0 135 115 c 128,-1,14
 47 230 47 230 47 406 c 0,15,16
 47 483 47 483 81 560 c 0,17,18
 115 636 115 636 176 690 c 0,19,20
 235 742 235 742 303 742 c 2,21,-1
 497 742 l 5,0,-1
EndSplineSet
Validated: 3073
EndChar

StartChar: D
Encoding: 68 68 1
Width: 588
VWidth: 1024
Flags: W
HStem: 0 74<124 341.305> 670 72<124 345.668>
VStem: 42 82<74 670> 465 82<237.636 497.3>
LayerCount: 2
Fore
SplineSet
339 742 m 2,0,1
 374 742 374 742 421 694 c 0,2,3
 467 646 467 646 499 583 c 0,4,5
 547 488 547 488 547 353 c 0,6,7
 547 229 547 229 489 131 c 0,8,9
 461 82 461 82 412 41 c 128,-1,10
 363 0 363 0 339 0 c 2,11,-1
 42 0 l 1,12,-1
 42 742 l 1,13,-1
 339 742 l 2,0,1
465 353 m 0,14,15
 465 463 465 463 426 539 c 0,16,17
 400 589 400 589 364 630 c 0,18,19
 329 670 329 670 301 670 c 2,20,-1
 124 670 l 1,21,-1
 124 74 l 1,22,-1
 301 74 l 2,23,24
 320 74 320 74 357 110 c 0,25,26
 391 143 391 143 419 187 c 0,27,28
 465 264 465 264 465 353 c 0,14,15
EndSplineSet
Validated: 3073
EndChar

StartChar: zero
Encoding: 48 48 2
Width: 588
VWidth: 1024
Flags: W
HStem: -6 74<237.665 361.733> 675 74<225.671 351.072>
VStem: 54 82<212.76 542.241> 454 82<207.571 517.494>
LayerCount: 2
Fore
SplineSet
530 749 m 1,0,-1
 468 629 l 1,1,2
 536 516 536 516 536 373 c 0,3,4
 536 278 536 278 510 192 c 0,5,6
 484 107 484 107 428 51 c 0,7,8
 371 -6 371 -6 295 -6 c 0,9,10
 222 -6 222 -6 161 57 c 1,11,-1
 124 0 l 1,12,-1
 43 0 l 1,13,-1
 113 120 l 1,14,15
 54 226 54 226 54 373 c 0,16,17
 54 472 54 472 78 555 c 128,-1,18
 102 638 102 638 160 694 c 0,19,20
 216 749 216 749 295 749 c 0,21,22
 360 749 360 749 422 690 c 1,23,-1
 450 749 l 1,24,-1
 530 749 l 1,0,-1
295 675 m 0,25,26
 251 675 251 675 218 648 c 0,27,28
 186 622 186 622 169 576 c 0,29,30
 151 527 151 527 144 480 c 0,31,32
 136 427 136 427 136 373 c 0,33,34
 136 272 136 272 161 204 c 1,35,-1
 380 618 l 1,36,37
 346 675 346 675 295 675 c 0,25,26
201 129 m 1,38,39
 216 110 216 110 228 98 c 0,40,41
 239 87 239 87 257 78 c 0,42,43
 277 68 277 68 295 68 c 0,44,45
 336 68 336 68 370 96 c 0,46,47
 401 122 401 122 420 170 c 0,48,49
 439 220 439 220 446 266 c 0,50,51
 454 320 454 320 454 373 c 0,52,53
 454 465 454 465 422 547 c 1,54,-1
 201 129 l 1,38,39
EndSplineSet
Validated: 3073
EndChar

StartChar: one
Encoding: 49 49 3
Width: 588
VWidth: 1024
Flags: W
HStem: 0 21G<254 336> 722 20G<262.931 336>
VStem: 254 82<0 568>
LayerCount: 2
Fore
SplineSet
336 742 m 29,0,-1
 336 0 l 1,1,-1
 254 0 l 1,2,-1
 254 568 l 1,3,-1
 170 568 l 1,4,-1
 275 742 l 1,5,-1
 336 742 l 29,0,-1
EndSplineSet
Validated: 3073
EndChar

StartChar: slash
Encoding: 47 47 4
Width: 588
VWidth: 1024
Flags: W
LayerCount: 2
Fore
SplineSet
536 888 m 25,0,-1
 141 -146 l 1,1,-1
 52 -146 l 1,2,-1
 447 888 l 1,3,-1
 536 888 l 25,0,-1
EndSplineSet
Validated: 3073
EndChar

StartChar: exclam
Encoding: 33 33 5
Width: 588
VWidth: 1024
Flags: W
HStem: -6 132<243.72 345.311> 729 20G<283.5 306.5>
VStem: 221 146<12.5652 105.373> 231 125<433.041 742.217> 242 104<193.432 719.722> 253 82<182.057 451.396>
LayerCount: 2
Fore
SplineSet
295 126 m 24,0,1
 324 126 324 126 346 106 c 0,2,3
 367 86 367 86 367 59 c 0,4,5
 367 30 367 30 346 12 c 128,-1,6
 325 -6 325 -6 295 -6 c 0,7,8
 266 -6 266 -6 243 12 c 0,9,10
 221 30 221 30 221 59 c 128,-1,11
 221 88 221 88 243 107 c 128,-1,12
 265 126 265 126 295 126 c 24,0,1
295 749 m 128,-1,14
 318 749 318 749 336 742 c 0,15,16
 356 734 356 734 356 722 c 0,17,18
 356 650 356 650 346 464 c 0,19,20
 335 260 335 260 335 206 c 0,21,22
 335 180 335 180 295 180 c 0,23,24
 253 180 253 180 253 206 c 0,25,26
 253 260 253 260 242 464 c 128,-1,27
 231 668 231 668 231 722 c 0,28,29
 231 734 231 734 252 742 c 0,30,13
 272 749 272 749 295 749 c 128,-1,14
EndSplineSet
Validated: 3073
EndChar

StartChar: quotedbl
Encoding: 34 34 6
Width: 588
VWidth: 1024
Flags: W
HStem: 518 281<152.243 199.977 387.243 434.977>
VStem: 121 112<574.55 788.661> 355 113<574.927 788.661>
LayerCount: 2
Fore
SplineSet
411 799 m 0,0,1
 434 799 434 799 451 785 c 128,-1,2
 468 771 468 771 468 753 c 0,3,4
 468 722 468 722 464 679 c 0,5,6
 460 631 460 631 446 574 c 0,7,8
 433 518 433 518 411 518 c 0,9,10
 395 518 395 518 383 550 c 0,11,12
 372 578 372 578 366 626 c 0,13,14
 363 650 363 650 358 703 c 0,15,16
 355 736 355 736 355 753 c 0,17,18
 355 771 355 771 372 785 c 128,-1,19
 389 799 389 799 411 799 c 0,0,1
176 799 m 0,20,21
 199 799 199 799 216 785 c 128,-1,22
 233 771 233 771 233 753 c 0,23,24
 233 722 233 722 229 679 c 0,25,26
 225 631 225 631 211 574 c 0,27,28
 198 518 198 518 176 518 c 0,29,30
 160 518 160 518 148 550 c 128,-1,31
 136 582 136 582 130 626 c 0,32,33
 125 665 125 665 123 703 c 0,34,35
 121 745 121 745 121 753 c 0,36,37
 121 772 121 772 137 785 c 0,38,39
 154 799 154 799 176 799 c 0,20,21
EndSplineSet
Validated: 3073
EndChar

StartChar: numbersign
Encoding: 35 35 7
Width: 588
VWidth: 1024
Flags: W
HStem: 158 70<45 116 203 324 411 514> 439 70<74 161 249 370 457 543>
LayerCount: 2
Fore
SplineSet
402 158 m 1,0,-1
 385 44 l 1,1,-1
 308 44 l 1,2,-1
 324 158 l 1,3,-1
 195 158 l 1,4,-1
 176 44 l 1,5,-1
 97 44 l 1,6,-1
 116 158 l 1,7,-1
 36 158 l 1,8,-1
 45 228 l 1,9,-1
 126 228 l 1,10,-1
 161 439 l 1,11,-1
 65 439 l 1,12,-1
 74 509 l 1,13,-1
 170 509 l 1,14,-1
 185 622 l 1,15,-1
 262 622 l 1,16,-1
 249 509 l 1,17,-1
 378 509 l 1,18,-1
 393 622 l 1,19,-1
 470 622 l 1,20,-1
 457 509 l 1,21,-1
 554 509 l 1,22,-1
 543 439 l 1,23,-1
 446 439 l 1,24,-1
 411 228 l 1,25,-1
 525 228 l 1,26,-1
 514 158 l 1,27,-1
 402 158 l 1,0,-1
335 228 m 1,28,-1
 370 439 l 1,29,-1
 238 439 l 1,30,-1
 203 228 l 1,31,-1
 335 228 l 1,28,-1
EndSplineSet
Validated: 3073
EndChar

StartChar: dollar
Encoding: 36 36 8
Width: 588
VWidth: 1024
Flags: W
HStem: 0 74<86 253 335 404.278> 379 74<167.618 253 335 412.032> 669 72<168.116 253 335 503>
VStem: 42 82<493.494 628.712> 253 82<-88 0 78 379 453 669 741 819> 465 82<136.785 321.395>
LayerCount: 2
Fore
SplineSet
503 741 m 1,0,-1
 547 669 l 1,1,-1
 335 669 l 1,2,-1
 335 453 l 1,3,4
 436 453 436 453 491 389 c 0,5,6
 547 324 547 324 547 228 c 128,-1,7
 547 132 547 132 490 66 c 128,-1,8
 433 0 433 0 335 0 c 1,9,-1
 335 -88 l 1,10,-1
 253 -88 l 1,11,-1
 253 0 l 1,12,-1
 42 0 l 1,13,-1
 86 74 l 1,14,-1
 253 74 l 1,15,-1
 253 379 l 1,16,17
 166 379 166 379 104 428 c 128,-1,18
 42 477 42 477 42 560 c 0,19,20
 42 644 42 644 104 691 c 0,21,22
 167 739 167 739 253 739 c 1,23,-1
 253 819 l 1,24,-1
 335 819 l 1,25,-1
 335 741 l 1,26,-1
 503 741 l 1,0,-1
253 669 m 1,27,28
 194 669 194 669 159 642 c 128,-1,29
 124 615 124 615 124 561 c 128,-1,30
 124 507 124 507 159 480 c 0,31,32
 193 453 193 453 253 453 c 1,33,-1
 253 669 l 1,27,28
335 78 m 1,34,35
 399 78 399 78 432 120 c 128,-1,36
 465 162 465 162 465 228 c 128,-1,37
 465 294 465 294 433 337 c 0,38,39
 401 379 401 379 335 379 c 1,40,-1
 335 78 l 1,34,35
EndSplineSet
Validated: 3073
EndChar

StartChar: percent
Encoding: 37 37 9
Width: 588
VWidth: 1024
Flags: W
HStem: -6 42<384.624 455.376> 231 41<378.706 461.294> 404 42<134.624 205.376> 641 43<128.375 211.625>
VStem: 51 67<462.142 625.805> 222 67<462.142 625.805> 301 67<52.1245 213.907> 472 67<52.1245 213.907>
LayerCount: 2
Fore
SplineSet
420 231 m 128,-1,1
 403 231 403 231 390 223 c 0,2,3
 378 216 378 216 374 198 c 0,4,5
 372 188 372 188 369 168 c 0,6,7
 368 160 368 160 368 133 c 0,8,9
 368 107 368 107 369 99 c 0,10,11
 371 81 371 81 374 70 c 0,12,13
 379 51 379 51 390 44 c 0,14,15
 403 36 403 36 420 36 c 128,-1,16
 437 36 437 36 450 44 c 0,17,18
 461 51 461 51 466 70 c 0,19,20
 469 81 469 81 471 99 c 0,21,22
 472 107 472 107 472 133 c 0,23,24
 472 160 472 160 471 168 c 0,25,26
 468 188 468 188 466 198 c 0,27,28
 462 216 462 216 450 223 c 0,29,0
 437 231 437 231 420 231 c 128,-1,1
420 272 m 128,-1,31
 473 272 473 272 506 230 c 128,-1,32
 539 188 539 188 539 133 c 128,-1,33
 539 78 539 78 506 36 c 128,-1,34
 473 -6 473 -6 420 -6 c 128,-1,35
 367 -6 367 -6 334 36 c 128,-1,36
 301 78 301 78 301 133 c 128,-1,37
 301 188 301 188 334 230 c 128,-1,30
 367 272 367 272 420 272 c 128,-1,31
539 678 m 25,38,-1
 137 0 l 1,39,-1
 56 0 l 1,40,-1
 455 678 l 1,41,-1
 539 678 l 25,38,-1
170 641 m 128,-1,43
 153 641 153 641 140 633 c 0,44,45
 128 626 128 626 124 608 c 0,46,47
 122 598 122 598 119 578 c 0,48,49
 118 570 118 570 118 544 c 128,-1,50
 118 518 118 518 119 510 c 0,51,52
 122 490 122 490 124 480 c 0,53,54
 129 461 129 461 140 454 c 0,55,56
 153 446 153 446 170 446 c 128,-1,57
 187 446 187 446 200 454 c 0,58,59
 211 461 211 461 216 480 c 0,60,61
 218 490 218 490 221 510 c 0,62,63
 222 518 222 518 222 544 c 128,-1,64
 222 570 222 570 221 578 c 0,65,66
 218 598 218 598 216 608 c 0,67,68
 212 626 212 626 200 633 c 0,69,42
 187 641 187 641 170 641 c 128,-1,43
170 684 m 128,-1,71
 223 684 223 684 256 642 c 128,-1,72
 289 600 289 600 289 544 c 128,-1,73
 289 488 289 488 256 446 c 128,-1,74
 223 404 223 404 170 404 c 128,-1,75
 117 404 117 404 84 446 c 128,-1,76
 51 488 51 488 51 544 c 128,-1,77
 51 600 51 600 84 642 c 128,-1,70
 117 684 117 684 170 684 c 128,-1,71
EndSplineSet
Validated: 3073
EndChar

StartChar: ampersand
Encoding: 38 38 10
Width: 588
VWidth: 1024
Flags: W
HStem: -6 72<169.496 299.359> 673 69<238.722 342.468>
VStem: 35 79<123.754 253.807> 125 79<494.551 639.551> 381 75<499.059 634.062>
LayerCount: 2
Fore
SplineSet
292 742 m 0,0,1
 360 742 360 742 408 686 c 128,-1,2
 456 630 456 630 456 575 c 0,3,4
 456 463 456 463 345 368 c 1,5,6
 377 334 377 334 393 308 c 0,7,8
 411 278 411 278 417 260 c 0,9,10
 420 250 420 250 433 201 c 1,11,12
 445 216 445 216 450 224 c 0,13,14
 452 227 452 227 464 239 c 0,15,16
 467 242 467 242 470 245.5 c 128,-1,17
 473 249 473 249 474 250 c 0,18,19
 477 253 477 253 484 257 c 0,20,21
 486 258 486 258 489 260 c 0,22,23
 491 262 491 262 492 262 c 0,24,25
 496 262 496 262 505 266 c 0,26,27
 509 268 509 268 513.5 269.5 c 128,-1,28
 518 271 518 271 519 271 c 2,29,-1
 554 209 l 1,30,31
 523 208 523 208 492 184 c 0,32,33
 460 160 460 160 459 136 c 1,34,35
 493 76 493 76 554 75 c 1,36,-1
 480 -1 l 1,37,38
 444 29 444 29 435 38 c 0,39,40
 424 50 424 50 406 83 c 1,41,42
 404 81 404 81 394.5 74 c 128,-1,43
 385 67 385 67 378 61 c 128,-1,44
 371 55 371 55 362 48 c 128,-1,45
 353 41 353 41 351 39 c 0,46,47
 346 35 346 35 324 22 c 0,48,49
 304 10 304 10 290 6 c 0,50,51
 286 5 286 5 250 -2 c 0,52,53
 229 -6 229 -6 199 -6 c 0,54,55
 151 -6 151 -6 93 58 c 128,-1,56
 35 122 35 122 35 181 c 0,57,58
 37 243 37 243 73 288 c 0,59,60
 112 337 112 337 221 391 c 1,61,62
 175 426 175 426 150 484 c 0,63,64
 125 541 125 541 125 578 c 0,65,66
 125 644 125 644 177 693 c 128,-1,67
 229 742 229 742 292 742 c 0,0,1
294 673 m 0,68,69
 262 673 262 673 233 647 c 128,-1,70
 204 621 204 621 204 578 c 0,71,72
 204 541 204 541 218 510 c 128,-1,73
 232 479 232 479 248 463 c 0,74,75
 268 443 268 443 292 424 c 1,76,77
 329 443 329 443 354 488 c 0,78,79
 376 528 376 528 381 575 c 1,80,81
 381 614 381 614 351 644 c 0,82,83
 322 673 322 673 294 673 c 0,68,69
270 335 m 1,84,85
 247 319 247 319 211 302 c 0,86,87
 176 285 176 285 159 276 c 128,-1,88
 142 267 142 267 128 242 c 128,-1,89
 114 217 114 217 114 181 c 128,-1,90
 114 145 114 145 150 106 c 0,91,92
 187 66 187 66 220 66 c 0,93,94
 247 66 247 66 268 72 c 128,-1,95
 289 78 289 78 311 97 c 0,96,97
 332 115 332 115 340 123 c 128,-1,98
 348 131 348 131 371 157 c 1,99,100
 354 227 354 227 333 266 c 0,101,102
 309 310 309 310 270 335 c 1,84,85
EndSplineSet
Validated: 3073
EndChar

StartChar: quotesingle
Encoding: 39 39 11
Width: 588
VWidth: 1024
Flags: W
HStem: 518 281<269.621 316.88>
VStem: 238 112<576.245 788.292> 248 80<538.795 750.403>
LayerCount: 2
Fore
SplineSet
238 753 m 0,0,1
 238 772 238 772 255 785.5 c 128,-1,2
 272 799 272 799 293 799 c 128,-1,3
 314 799 314 799 332 785.5 c 128,-1,4
 350 772 350 772 350 753 c 0,5,6
 350 670 350 670 328 574 c 0,7,8
 315 518 315 518 293 518 c 0,9,10
 263 518 263 518 248 626 c 0,11,12
 238 703 238 703 238 753 c 0,0,1
EndSplineSet
Validated: 3073
EndChar

StartChar: parenleft
Encoding: 40 40 12
Width: 588
VWidth: 1024
Flags: W
HStem: -146 82<363.5 416> 806 82<363.5 416>
VStem: 192 82<119.369 606.044>
LayerCount: 2
Fore
SplineSet
416 888 m 13,0,-1
 416 806 l 1,1,2
 274 806 274 806 274 365 c 0,3,4
 274 -64 274 -64 416 -64 c 1,5,-1
 416 -146 l 1,6,7
 192 -146 192 -146 192 365 c 0,8,9
 192 886 192 886 416 888 c 13,0,-1
EndSplineSet
Validated: 3073
EndChar

StartChar: parenright
Encoding: 41 41 13
Width: 588
VWidth: 1024
Flags: W
HStem: -146 82<172 224.5> 806 82<172 224.5>
VStem: 314 82<119.369 606.434>
LayerCount: 2
Fore
SplineSet
172 888 m 21,0,1
 396 888 396 888 396 365 c 0,2,3
 396 -146 396 -146 172 -146 c 1,4,-1
 172 -64 l 1,5,6
 314 -64 314 -64 314 365 c 0,7,8
 314 806 314 806 172 806 c 1,9,-1
 172 888 l 21,0,1
EndSplineSet
Validated: 3073
EndChar

StartChar: asterisk
Encoding: 42 42 14
Width: 588
VWidth: 1024
Flags: W
HStem: 414 328
LayerCount: 2
Fore
SplineSet
352 742 m 1,0,-1
 322 612 l 1,1,-1
 449 683 l 1,2,-1
 481 592 l 1,3,-1
 339 569 l 1,4,-1
 453 467 l 1,5,-1
 372 414 l 1,6,-1
 295 539 l 1,7,-1
 218 414 l 1,8,-1
 135 467 l 1,9,-1
 251 569 l 1,10,-1
 109 592 l 1,11,-1
 139 683 l 1,12,-1
 268 612 l 1,13,-1
 236 742 l 1,14,-1
 352 742 l 1,0,-1
EndSplineSet
Validated: 3073
EndChar

StartChar: plus
Encoding: 43 43 15
Width: 588
VWidth: 1024
Flags: W
HStem: 315 82<67.1357 254 336 516.779>
VStem: 254 82<134.282 315 397 584.785>
LayerCount: 2
Fore
SplineSet
295 587 m 132,-1,1
 336 587 336 587 336 559 c 2,2,-1
 336 397 l 1,3,-1
 495 397 l 2,4,5
 510 397 510 397 517 386 c 0,6,7
 525 373 525 373 525 356 c 128,-1,8
 525 339 525 339 517 326 c 0,9,10
 510 315 510 315 495 315 c 2,11,-1
 336 315 l 1,12,-1
 336 157 l 2,13,14
 336 143 336 143 324 134 c 0,15,16
 313 126 313 126 295 126 c 128,-1,17
 277 126 277 126 266 134 c 0,18,19
 254 143 254 143 254 157 c 2,20,-1
 254 315 l 1,21,-1
 92 315 l 2,22,23
 65 315 65 315 65 356 c 128,-1,24
 65 397 65 397 92 397 c 2,25,-1
 254 397 l 1,26,-1
 254 559 l 2,27,0
 254 587 254 587 295 587 c 132,-1,1
EndSplineSet
Validated: 3073
EndChar

StartChar: comma
Encoding: 44 44 16
Width: 588
VWidth: 1024
Flags: W
HStem: -6 136<244.004 318.277>
VStem: 223 146<13.5781 108.682>
LayerCount: 2
Fore
SplineSet
297 130 m 0,0,1
 324 130 324 130 347 110 c 0,2,3
 369 91 369 91 369 61 c 0,4,5
 367 24 367 24 356 -16 c 0,6,7
 344 -58 344 -58 314 -94 c 0,8,9
 285 -129 285 -129 243 -129 c 0,10,11
 231 -129 231 -129 231 -119 c 0,12,13
 231 -115 231 -115 240 -107 c 0,14,15
 243 -104 243 -104 251.5 -99 c 128,-1,16
 260 -94 260 -94 263 -92 c 0,17,18
 275 -84 275 -84 292 -58 c 0,19,20
 308 -33 308 -33 319 6 c 1,21,22
 313 -6 313 -6 287 -6 c 0,23,24
 266 -6 266 -6 244 14 c 0,25,26
 223 34 223 34 223 61 c 0,27,28
 223 86 223 86 244 108 c 128,-1,29
 265 130 265 130 297 130 c 0,0,1
EndSplineSet
Validated: 3073
EndChar

StartChar: hyphen
Encoding: 45 45 17
Width: 588
VWidth: 1024
Flags: W
HStem: 315 82<66.1357 521.627>
LayerCount: 2
Fore
SplineSet
494 397 m 6,0,1
 524 397 524 397 524 356 c 132,-1,2
 524 315 524 315 494 315 c 6,3,-1
 91 315 l 6,4,5
 64 315 64 315 64 356 c 132,-1,6
 64 397 64 397 91 397 c 6,7,-1
 494 397 l 6,0,1
EndSplineSet
EndChar

StartChar: period
Encoding: 46 46 18
Width: 588
VWidth: 1024
Flags: W
HStem: -6 132<243.72 345.311>
VStem: 221 146<12.5652 105.373>
LayerCount: 2
Fore
SplineSet
295 126 m 24,0,1
 324 126 324 126 346 106 c 0,2,3
 367 86 367 86 367 59 c 0,4,5
 367 30 367 30 346 12 c 128,-1,6
 325 -6 325 -6 295 -6 c 0,7,8
 266 -6 266 -6 243 12 c 0,9,10
 221 30 221 30 221 59 c 128,-1,11
 221 88 221 88 243 107 c 128,-1,12
 265 126 265 126 295 126 c 24,0,1
EndSplineSet
Validated: 3073
EndChar

StartChar: two
Encoding: 50 50 19
Width: 588
VWidth: 1024
Flags: W
HStem: 1 140<451 535> 1 74<143 451> 675 74<209.192 388.607>
VStem: 54 82<507 597.714> 453 82<75 141 476.422 615.531>
LayerCount: 2
Fore
SplineSet
295 749 m 4,0,1
 405 749 405 749 469 686 c 128,-1,2
 533 623 533 623 535 539 c 0,3,4
 533 489 533 489 498 436 c 0,5,6
 462 382 462 382 410 336 c 0,7,8
 360 292 360 292 302 245 c 0,9,10
 245 199 245 199 202 156 c 0,11,12
 156 110 156 110 143 75 c 1,13,-1
 451 75 l 1,14,-1
 451 141 l 1,15,-1
 535 141 l 1,16,-1
 535 1 l 1,17,-1
 54 1 l 1,18,-1
 54 75 l 1,19,20
 68 119 68 119 114 170 c 0,21,22
 162 223 162 223 216 268 c 0,23,24
 290 330 290 330 326 361 c 0,25,26
 380 407 380 407 416 454 c 0,27,28
 453 502 453 502 453 539 c 0,29,30
 453 602 453 602 411 638 c 0,31,32
 368 675 368 675 295 675 c 0,33,34
 219 675 219 675 178 628 c 128,-1,35
 137 581 137 581 136 507 c 1,36,-1
 54 507 l 1,37,38
 55 604 55 604 120 676 c 0,39,40
 184 747 184 747 295 749 c 4,0,1
EndSplineSet
Validated: 3073
EndChar

StartChar: three
Encoding: 51 51 20
Width: 588
VWidth: 1024
Flags: W
HStem: -6 55<50.3438 168.794> 433 74<347 408.375> 606 136<55 137> 669 73<137 422>
VStem: 55 82<606 669> 454 80<227.003 383.867>
LayerCount: 2
Fore
SplineSet
524 742 m 29,0,-1
 524 669 l 1,1,-1
 347 507 l 1,2,3
 392 505 392 505 424 493 c 0,4,5
 458 480 458 480 477 459 c 0,6,7
 495 439 495 439 508 417 c 0,8,9
 522 392 522 392 526 372 c 0,10,11
 531 346 531 346 532 338 c 0,12,13
 534 324 534 324 534 319 c 0,14,15
 534 258 534 258 512 208 c 128,-1,16
 490 158 490 158 456 124 c 0,17,18
 426 94 426 94 377 67 c 0,19,20
 331 42 331 42 288 28 c 128,-1,21
 245 14 245 14 200 7 c 0,22,23
 145 -2 145 -2 126 -4 c 0,24,25
 108 -6 108 -6 75 -6 c 0,26,27
 67 -6 67 -6 58 3 c 0,28,29
 50 11 50 11 48 18 c 0,30,31
 48 25 48 25 55 35 c 0,32,33
 62 44 62 44 71 49 c 0,34,35
 80 51 80 51 93 53.5 c 128,-1,36
 106 56 106 56 113.5 57.5 c 128,-1,37
 121 59 121 59 126 60 c 0,38,39
 135 62 135 62 181 74 c 0,40,41
 222 85 222 85 240 92 c 0,42,43
 244 94 244 94 262.5 100.5 c 128,-1,44
 281 107 281 107 294 112 c 0,45,46
 330 126 330 126 346 138 c 0,47,48
 380 164 380 164 388 170 c 0,49,50
 411 189 411 189 424 211 c 0,51,52
 436 232 436 232 445 259 c 128,-1,53
 454 286 454 286 454 317 c 0,54,55
 451 360 451 360 424 396 c 128,-1,56
 397 432 397 432 336 433 c 0,57,58
 270 433 270 433 214 397 c 1,59,-1
 158 434 l 1,60,-1
 215 483 l 1,61,-1
 422 669 l 1,62,-1
 137 669 l 1,63,-1
 137 606 l 1,64,-1
 55 606 l 1,65,-1
 55 742 l 1,66,-1
 524 742 l 29,0,-1
EndSplineSet
Validated: 3073
EndChar

StartChar: four
Encoding: 52 52 21
Width: 588
VWidth: 1024
Flags: W
HStem: 0 21G<354 436> 231 74<187 354 436 536> 722 20G<342.258 436>
VStem: 354 82<0 231 305 603>
LayerCount: 2
Fore
SplineSet
354 603 m 5,0,-1
 187 305 l 1,1,-1
 354 305 l 1,2,-1
 354 603 l 5,0,-1
436 742 m 5,3,-1
 436 305 l 1,4,-1
 536 305 l 1,5,-1
 536 231 l 1,6,-1
 436 231 l 1,7,-1
 436 0 l 1,8,-1
 354 0 l 1,9,-1
 354 231 l 1,10,-1
 54 231 l 1,11,-1
 354 742 l 1,12,-1
 436 742 l 5,3,-1
EndSplineSet
Validated: 3073
EndChar

StartChar: five
Encoding: 53 53 22
Width: 588
VWidth: 1024
Flags: W
HStem: -6 21G<71.5 81> 434 74<238.16 408.892> 669 73<138 525>
VStem: 56 82<434 669> 453 82<223.652 386.786>
LayerCount: 2
Fore
SplineSet
525 742 m 25,0,-1
 525 669 l 1,1,-1
 138 669 l 1,2,-1
 138 434 l 1,3,-1
 146 442 l 2,4,5
 147 443 147 443 150.5 445.5 c 128,-1,6
 154 448 154 448 160 452.5 c 128,-1,7
 166 457 166 457 170 460 c 0,8,9
 185 471 185 471 210 482 c 0,10,11
 237 494 237 494 268 500 c 0,12,13
 306 508 306 508 345 508 c 0,14,15
 388 508 388 508 426 492 c 0,16,17
 463 477 463 477 482 456 c 0,18,19
 502 434 502 434 514 406 c 0,20,21
 527 375 527 375 531 357 c 0,22,23
 535 338 535 338 535 319 c 0,24,25
 535 258 535 258 512 206 c 0,26,27
 490 157 490 157 455 123 c 0,28,29
 422 92 422 92 372 65 c 0,30,31
 326 41 326 41 282 27 c 128,-1,32
 238 13 238 13 192 6 c 0,33,34
 136 -3 136 -3 120 -4 c 0,35,36
 86 -6 86 -6 76 -6 c 0,37,38
 67 -6 67 -6 58 3 c 0,39,40
 50 11 50 11 48 18 c 0,41,42
 48 24 48 24 56 35 c 0,43,44
 63 44 63 44 72 49 c 0,45,46
 178 71 178 71 260 101 c 0,47,48
 338 130 338 130 378 164 c 0,49,50
 421 201 421 201 436 232 c 0,51,52
 453 268 453 268 453 307 c 0,53,54
 452 359 452 359 425 396 c 0,55,56
 399 432 399 432 337 434 c 0,57,58
 274 434 274 434 224 405 c 0,59,60
 176 377 176 377 148 337 c 1,61,-1
 56 379 l 1,62,-1
 56 742 l 1,63,-1
 525 742 l 25,0,-1
EndSplineSet
Validated: 3073
EndChar

StartChar: six
Encoding: 54 54 23
Width: 588
VWidth: 1024
Flags: W
HStem: -6 74<214.495 380.387> 376 74<215.477 378.549> 693 56<348.01 460.582>
VStem: 54 82<145.27 297.875> 453 82<141.735 300.595>
LayerCount: 2
Fore
SplineSet
136 220 m 28,0,1
 136 157 136 157 184 112 c 0,2,3
 231 68 231 68 301 68 c 0,4,5
 366 68 366 68 410 114 c 0,6,7
 453 158 453 158 453 220 c 0,8,9
 453 283 453 283 410 329 c 0,10,11
 366 376 366 376 301 376 c 0,12,13
 231 376 231 376 184 330 c 0,14,15
 136 284 136 284 136 220 c 28,0,1
462 724 m 4,16,17
 462 693 462 693 414 693 c 1,18,19
 334 685 334 685 248 586 c 0,20,21
 163 488 163 488 153 391 c 1,22,23
 153 391 153 391 154 392 c 2,24,25
 156 394 156 394 158.5 396.5 c 128,-1,26
 161 399 161 399 164 402 c 0,27,28
 167 404 167 404 170 407 c 128,-1,29
 173 410 173 410 175 411.5 c 128,-1,30
 177 413 177 413 178 414 c 128,-1,31
 179 415 179 415 181 416 c 128,-1,32
 183 417 183 417 186 419.5 c 128,-1,33
 189 422 189 422 192 424 c 0,34,35
 203 432 203 432 212 435 c 0,36,37
 215 436 215 436 222.5 438 c 128,-1,38
 230 440 230 440 235 442 c 0,39,40
 248 446 248 446 266 448 c 0,41,42
 288 450 288 450 301 450 c 0,43,44
 373 450 373 450 427 414 c 0,45,46
 480 379 480 379 506 326 c 0,47,48
 530 277 530 277 535 220 c 1,49,50
 535 128 535 128 466 61 c 0,51,52
 398 -6 398 -6 301 -6 c 0,53,54
 203 -6 203 -6 132 61 c 0,55,56
 58 130 58 130 54 220 c 0,57,58
 54 309 54 309 56 333 c 0,59,60
 59 372 59 372 75 422 c 0,61,62
 92 477 92 477 126 540 c 0,63,64
 170 627 170 627 254 688 c 0,65,66
 337 749 337 749 407 749 c 0,67,68
 462 748 462 748 462 724 c 4,16,17
EndSplineSet
Validated: 3073
EndChar

StartChar: seven
Encoding: 55 55 24
Width: 588
VWidth: 1024
Flags: W
HStem: 0 21G<249 336> 588 154<54 136> 669 73<136 453>
VStem: 54 82<588 669> 249 87<0 239.619> 453 82<516.929 669>
LayerCount: 2
Fore
SplineSet
535 742 m 25,0,-1
 535 545 l 2,1,2
 532 517 532 517 500 469 c 0,3,4
 467 419 467 419 431 373 c 0,5,6
 398 330 398 330 366 260 c 0,7,8
 336 194 336 194 336 138 c 2,9,-1
 336 0 l 1,10,-1
 249 0 l 1,11,-1
 249 138 l 2,12,13
 249 196 249 196 270 252 c 0,14,15
 292 310 292 310 317 346 c 0,16,17
 320 351 320 351 344.5 386.5 c 128,-1,18
 369 422 369 422 386 446 c 0,19,20
 425 502 425 502 453 556 c 1,21,-1
 453 669 l 1,22,-1
 136 669 l 1,23,-1
 136 588 l 1,24,-1
 54 588 l 1,25,-1
 54 742 l 1,26,-1
 535 742 l 25,0,-1
EndSplineSet
Validated: 3073
EndChar

StartChar: eight
Encoding: 56 56 25
Width: 588
VWidth: 1024
Flags: W
HStem: -6 73<209.247 380.753> 349 73<217.556 371.679> 676 73<218.23 370.947>
VStem: 54 82<134.016 278.341> 76 82<478.268 617.43> 431 82<478.498 617.43> 453 82<133.552 279.214>
LayerCount: 2
Fore
SplineSet
136 206 m 24,0,1
 136 145 136 145 184 106 c 128,-1,2
 232 67 232 67 295 67 c 128,-1,3
 358 67 358 67 406 106 c 0,4,5
 453 144 453 144 453 206 c 0,6,7
 453 267 453 267 406 308 c 128,-1,8
 359 349 359 349 295 349 c 0,9,10
 233 349 233 349 184 308 c 0,11,12
 136 268 136 268 136 206 c 24,0,1
158 548 m 152,-1,14
 158 494 158 494 198 458 c 128,-1,15
 238 422 238 422 295 422 c 0,16,17
 351 422 351 422 391 458 c 128,-1,18
 431 494 431 494 431 548 c 128,-1,19
 431 602 431 602 391 639 c 128,-1,20
 351 676 351 676 295 676 c 0,21,22
 238 676 238 676 198 639 c 128,-1,13
 158 602 158 602 158 548 c 152,-1,14
295 749 m 24,23,24
 384 749 384 749 448 691 c 0,25,26
 513 632 513 632 513 548 c 0,27,28
 513 443 513 443 416 385 c 1,29,30
 535 322 535 322 535 206 c 0,31,32
 535 113 535 113 464 54 c 0,33,34
 392 -6 392 -6 295 -6 c 128,-1,35
 198 -6 198 -6 126 54 c 128,-1,36
 54 114 54 114 54 206 c 0,37,38
 54 324 54 324 172 385 c 1,39,40
 76 442 76 442 76 548 c 0,41,42
 76 632 76 632 141 691 c 0,43,44
 205 749 205 749 295 749 c 24,23,24
EndSplineSet
Validated: 3073
EndChar

StartChar: nine
Encoding: 57 57 26
Width: 588
VWidth: 1024
Flags: W
HStem: -6 55<130.325 243.734> 287 73<212.315 372.574> 675 74<211.844 371.959>
VStem: 54 82<436.464 597.61> 453 82<440.921 595.614>
LayerCount: 2
Fore
SplineSet
453 519 m 28,0,1
 453 584 453 584 404 630 c 0,2,3
 356 675 356 675 289 675 c 0,4,5
 226 675 226 675 181 629 c 0,6,7
 136 582 136 582 136 519 c 0,8,9
 136 452 136 452 180 407 c 0,10,11
 225 360 225 360 289 360 c 0,12,13
 357 360 357 360 404 406 c 0,14,15
 453 453 453 453 453 519 c 28,0,1
289 749 m 28,16,17
 386 749 386 749 458 680 c 128,-1,18
 530 611 530 611 535 519 c 1,19,20
 535 408 535 408 524 356 c 0,21,22
 513 301 513 301 462 205 c 0,23,24
 417 119 417 119 334 56 c 0,25,26
 253 -6 253 -6 183 -6 c 0,27,28
 128 -5 128 -5 128 19 c 0,29,30
 128 31 128 31 146 40 c 128,-1,31
 164 49 164 49 176 49 c 0,32,33
 228 53 228 53 287 100 c 128,-1,34
 346 147 346 147 388 214 c 0,35,36
 431 283 431 283 437 344 c 1,37,38
 433 340 433 340 427 335 c 0,39,40
 425 333 425 333 423 331.5 c 128,-1,41
 421 330 421 330 420 328.5 c 128,-1,42
 419 327 419 327 418 326 c 128,-1,43
 417 325 417 325 416 325 c 0,44,45
 413 323 413 323 404 316 c 0,46,47
 398 311 398 311 388 306 c 0,48,49
 386 305 386 305 370 299 c 0,50,51
 353 293 353 293 348 292 c 0,52,53
 347 292 347 292 337.5 290.5 c 128,-1,54
 328 289 328 289 322 288 c 0,55,56
 312 287 312 287 289 287 c 0,57,58
 183 287 183 287 122 358 c 0,59,60
 60 431 60 431 54 519 c 1,61,62
 54 610 54 610 124 680 c 0,63,64
 193 749 193 749 289 749 c 28,16,17
EndSplineSet
Validated: 3073
EndChar

StartChar: colon
Encoding: 58 58 27
Width: 588
VWidth: 1024
Flags: W
HStem: -6 132<242.689 346.664> 337 132<242.751 346.664>
VStem: 220 146<13.1367 106.863 356.565 449.404>
LayerCount: 2
Fore
SplineSet
294 469 m 156,-1,1
 324 469 324 469 344 450 c 0,2,3
 366 430 366 430 366 402 c 0,4,5
 366 375 366 375 344 356 c 128,-1,6
 322 337 322 337 294 337 c 128,-1,7
 266 337 266 337 242 356 c 0,8,9
 220 374 220 374 220 402 c 0,10,11
 220 431 220 431 242 450 c 128,-1,0
 264 469 264 469 294 469 c 156,-1,1
294 126 m 152,-1,13
 324 126 324 126 344 107 c 0,14,15
 366 87 366 87 366 60 c 128,-1,16
 366 33 366 33 344 13 c 0,17,18
 324 -6 324 -6 294 -6 c 128,-1,19
 264 -6 264 -6 242 12 c 128,-1,20
 220 30 220 30 220 60 c 128,-1,21
 220 90 220 90 242 108 c 128,-1,12
 264 126 264 126 294 126 c 152,-1,13
EndSplineSet
Validated: 3073
EndChar

StartChar: semicolon
Encoding: 59 59 28
Width: 588
VWidth: 1024
Flags: W
HStem: -6 136<245.375 320.807> 337 132<244.751 348.664>
VStem: 224 146<12.7695 108.682 358.289 447.586>
LayerCount: 2
Fore
SplineSet
298 130 m 0,0,1
 325 130 325 130 348 110 c 0,2,3
 370 91 370 91 370 61 c 0,4,5
 368 24 368 24 357 -16 c 0,6,7
 345 -58 345 -58 315 -94 c 0,8,9
 286 -129 286 -129 244 -129 c 0,10,11
 232 -129 232 -129 232 -119 c 0,12,13
 232 -115 232 -115 242 -107 c 0,14,15
 244 -105 244 -105 264 -92 c 0,16,17
 278 -83 278 -83 294 -58 c 128,-1,18
 310 -33 310 -33 321 6 c 1,19,20
 315 -6 315 -6 288 -6 c 0,21,22
 266 -6 266 -6 244 14 c 0,23,24
 224 33 224 33 224 61 c 0,25,26
 224 86 224 86 245 108 c 128,-1,27
 266 130 266 130 298 130 c 0,0,1
296 469 m 152,-1,29
 326 469 326 469 346 450 c 0,30,31
 368 430 368 430 368 402 c 0,32,33
 368 375 368 375 346 356 c 128,-1,34
 324 337 324 337 296 337 c 128,-1,35
 268 337 268 337 244 356 c 0,36,37
 222 374 222 374 222 402 c 0,38,39
 222 431 222 431 244 450 c 128,-1,28
 266 469 266 469 296 469 c 152,-1,29
EndSplineSet
Validated: 3073
EndChar

StartChar: less
Encoding: 60 60 29
Width: 588
VWidth: 1024
Flags: W
LayerCount: 2
Fore
SplineSet
518 888 m 29,0,-1
 518 756 l 1,1,-1
 203 371 l 1,2,-1
 518 -14 l 1,3,-1
 518 -146 l 1,4,-1
 87 371 l 1,5,-1
 518 888 l 29,0,-1
EndSplineSet
Validated: 3073
EndChar

StartChar: equal
Encoding: 61 61 30
Width: 588
VWidth: 1024
Flags: W
HStem: 203 82<67.1357 516.779> 428 82<67.1357 516.779>
LayerCount: 2
Fore
SplineSet
495 285 m 2,0,1
 510 285 510 285 517 274 c 0,2,3
 525 261 525 261 525 244 c 128,-1,4
 525 227 525 227 517 214 c 0,5,6
 510 203 510 203 495 203 c 2,7,-1
 92 203 l 2,8,9
 65 203 65 203 65 244 c 128,-1,10
 65 285 65 285 92 285 c 2,11,-1
 495 285 l 2,0,1
495 510 m 2,12,13
 510 510 510 510 517 498 c 0,14,15
 525 485 525 485 525 469 c 128,-1,16
 525 453 525 453 517 440 c 0,17,18
 510 428 510 428 495 428 c 2,19,-1
 92 428 l 2,20,21
 65 428 65 428 65 469 c 128,-1,22
 65 510 65 510 92 510 c 2,23,-1
 495 510 l 2,12,13
EndSplineSet
Validated: 3073
EndChar

StartChar: greater
Encoding: 62 62 31
Width: 588
VWidth: 1024
Flags: W
LayerCount: 2
Fore
SplineSet
70 888 m 25,0,-1
 501 371 l 1,1,-1
 70 -146 l 1,2,-1
 70 -14 l 1,3,-1
 385 371 l 1,4,-1
 70 756 l 1,5,-1
 70 888 l 25,0,-1
EndSplineSet
Validated: 3073
EndChar

StartChar: question
Encoding: 63 63 32
Width: 588
VWidth: 1024
Flags: W
HStem: -6 132<243.72 345.311> 677 72<197.073 391.635>
VStem: 221 146<12.5652 105.373> 253 82<181.978 377.075> 453 82<524.946 620.906>
LayerCount: 2
Fore
SplineSet
295 126 m 24,0,1
 324 126 324 126 346 106 c 0,2,3
 367 86 367 86 367 59 c 0,4,5
 367 30 367 30 346 12 c 128,-1,6
 325 -6 325 -6 295 -6 c 0,7,8
 266 -6 266 -6 243 12 c 0,9,10
 221 30 221 30 221 59 c 128,-1,11
 221 88 221 88 243 107 c 128,-1,12
 265 126 265 126 295 126 c 24,0,1
295 749 m 0,13,14
 410 749 410 749 473 694 c 0,15,16
 535 640 535 640 535 561 c 0,17,18
 535 527 535 527 504 492 c 0,19,20
 474 458 474 458 435 433 c 0,21,22
 397 409 397 409 366 385 c 128,-1,23
 335 361 335 361 335 348 c 2,24,-1
 335 205 l 2,25,26
 335 180 335 180 295 180 c 0,27,28
 253 180 253 180 253 205 c 2,29,-1
 253 376 l 2,30,31
 254 389 254 389 287 415 c 0,32,33
 315 438 315 438 356 465 c 0,34,35
 392 489 392 489 422 516 c 0,36,37
 453 544 453 544 453 561 c 0,38,39
 453 569 453 569 452 574 c 0,40,41
 450 583 450 583 442 601 c 0,42,43
 432 623 432 623 419 636 c 0,44,45
 402 653 402 653 372 664 c 0,46,47
 336 677 336 677 295 677 c 0,48,49
 251 677 251 677 218 665 c 0,50,51
 186 653 186 653 170 636 c 0,52,53
 156 621 156 621 146 602 c 0,54,55
 139 589 139 589 137 573 c 2,56,-1
 136 561 l 1,57,-1
 54 561 l 1,58,59
 54 640 54 640 116 694 c 0,60,61
 179 749 179 749 295 749 c 0,13,14
EndSplineSet
Validated: 3073
EndChar

StartChar: at
Encoding: 64 64 33
Width: 588
VWidth: 1024
Flags: W
HStem: 0 71<180.667 235> 168 62<245.663 334.913> 424 62<246.471 330.05> 579 80<195.777 383.76>
VStem: -6 81<212.304 449.432> 159 61<256.339 395.027> 355 67<250.85 398.371> 517 77<246.079 440.711>
LayerCount: 2
Fore
SplineSet
288 659 m 132,-1,1
 372 659 372 659 444 608 c 128,-1,2
 516 557 516 557 555 482 c 128,-1,3
 594 407 594 407 594 344 c 0,4,5
 594 279 594 279 570 222 c 128,-1,6
 546 165 546 165 507 123 c 1,7,-1
 463 137 l 2,8,9
 434 146 434 146 396 190 c 0,10,11
 394 192 394 192 384 207 c 1,12,13
 376 189 376 189 348 178 c 0,14,15
 321 168 321 168 288 168 c 0,16,17
 233 168 233 168 196 223 c 128,-1,18
 159 278 159 278 159 328 c 0,19,20
 159 368 159 368 195 426 c 0,21,22
 231 486 231 486 287 486 c 0,23,24
 351 486 351 486 386 430 c 0,25,26
 420 376 420 376 422 328 c 0,27,28
 423 277 423 277 438 250 c 0,29,30
 451 227 451 227 482 219 c 1,31,32
 517 284 517 284 517 333 c 0,33,34
 515 432 515 432 462 496 c 0,35,36
 392 577 392 577 290 579 c 0,37,38
 185 577 185 577 124 498 c 0,39,40
 75 434 75 434 75 333 c 0,41,42
 75 276 75 276 96 214 c 0,43,44
 117 153 117 153 158 112 c 128,-1,45
 199 71 199 71 235 71 c 1,46,-1
 301 119 l 1,47,-1
 461 0 l 1,48,-1
 246 0 l 2,49,50
 175 0 175 0 115 54 c 0,51,52
 53 110 53 110 24 182 c 0,53,54
 -6 257 -6 257 -6 333 c 0,55,56
 -6 407 -6 407 29 482 c 0,57,58
 65 558 65 558 134 608 c 0,59,0
 204 659 204 659 288 659 c 132,-1,1
290 424 m 4,60,61
 256 424 256 424 238 389 c 0,62,63
 220 356 220 356 220 328 c 0,64,65
 220 293 220 293 230 274 c 0,66,67
 254 230 254 230 287 230 c 0,68,69
 353 230 353 230 355 328 c 0,70,71
 355 352 355 352 339 388 c 0,72,73
 322 424 322 424 290 424 c 4,60,61
EndSplineSet
Validated: 3073
EndChar

StartChar: A
Encoding: 65 65 34
Width: 588
VWidth: 1024
Flags: W
HStem: 0 21G<25 111 477 564> 215 73<194 394> 722 20G<249.484 339.516>
VStem: 25 86<0 54.4848> 477 87<0 54.4848>
LayerCount: 2
Back
SplineSet
267 777 m 1,0,-1
 25 33 l 1,1,-1
 103 7 l 1,2,-1
 345 751 l 1,3,-1
 267 777 l 1,0,-1
322 777 m 1,4,-1
 564 33 l 1,5,-1
 486 7 l 1,6,-1
 244 751 l 1,7,-1
 322 777 l 1,4,-1
EndSplineSet
Fore
SplineSet
333 742 m 5,0,-1
 564 33 l 1,1,-1
 564 0 l 1,2,-1
 477 0 l 1,3,-1
 477 33 l 1,4,-1
 418 215 l 1,5,-1
 170 215 l 1,6,-1
 111 33 l 1,7,-1
 111 0 l 1,8,-1
 25 0 l 1,9,-1
 25 33 l 1,10,-1
 256 742 l 1,11,-1
 333 742 l 5,0,-1
194 288 m 5,12,-1
 394 288 l 1,13,-1
 294 595 l 1,14,-1
 194 288 l 5,12,-1
EndSplineSet
Validated: 3073
EndChar

StartChar: B
Encoding: 66 66 35
Width: 588
VWidth: 1024
Flags: W
HStem: 0 74<125 408.438> 369 73<125 364.395> 670 72<125 381.973>
VStem: 43 82<74 369 442 670> 409 81<494.008 638.672> 470 82<130.672 293.221>
LayerCount: 2
Fore
SplineSet
470 206 m 0,0,1
 470 276 470 276 426 323 c 0,2,3
 383 369 383 369 328 369 c 2,4,-1
 125 369 l 1,5,-1
 125 74 l 1,6,-1
 341 74 l 2,7,8
 384 74 384 74 427 108 c 128,-1,9
 470 142 470 142 470 206 c 0,0,1
409 563 m 0,10,11
 409 605 409 605 390 637 c 0,12,13
 370 670 370 670 335 670 c 2,14,-1
 125 670 l 1,15,-1
 125 442 l 1,16,-1
 324 442 l 2,17,18
 352 442 352 442 381 484 c 0,19,20
 409 525 409 525 409 563 c 0,10,11
324 742 m 2,21,22
 371 742 371 742 404 726 c 128,-1,23
 437 710 437 710 456 682 c 0,24,25
 475 653 475 653 482 626 c 0,26,27
 490 594 490 594 490 563 c 0,28,29
 490 518 490 518 463 470 c 0,30,31
 435 420 435 420 414 416 c 1,32,-1
 414 401 l 1,33,34
 474 378 474 378 513 322 c 0,35,36
 552 265 552 265 552 206 c 0,37,38
 552 115 552 115 495 58 c 0,39,40
 437 0 437 0 343 0 c 2,41,-1
 43 0 l 1,42,-1
 43 742 l 1,43,-1
 324 742 l 2,21,22
EndSplineSet
Validated: 3073
EndChar

StartChar: E
Encoding: 69 69 36
Width: 588
VWidth: 1024
Flags: W
HStem: 0 74<128 506> 364 73<128 379> 670 72<128 506>
VStem: 46 82<74 364 437 670>
LayerCount: 2
Fore
SplineSet
506 742 m 25,0,-1
 550 670 l 1,1,-1
 128 670 l 1,2,-1
 128 437 l 1,3,-1
 379 437 l 1,4,-1
 423 364 l 1,5,-1
 128 364 l 1,6,-1
 128 74 l 1,7,-1
 506 74 l 1,8,-1
 550 0 l 1,9,-1
 46 0 l 1,10,-1
 46 742 l 1,11,-1
 506 742 l 25,0,-1
EndSplineSet
Validated: 3073
EndChar

StartChar: F
Encoding: 70 70 37
Width: 588
VWidth: 1024
Flags: W
HStem: 0 21G<43 125> 374 72<125 376> 670 72<125 503>
VStem: 43 82<0 374 446 670>
LayerCount: 2
Fore
SplineSet
503 742 m 25,0,-1
 547 670 l 1,1,-1
 125 670 l 1,2,-1
 125 446 l 1,3,-1
 376 446 l 1,4,-1
 420 374 l 1,5,-1
 125 374 l 1,6,-1
 125 0 l 1,7,-1
 43 0 l 1,8,-1
 43 742 l 1,9,-1
 503 742 l 25,0,-1
EndSplineSet
Validated: 3073
EndChar

StartChar: G
Encoding: 71 71 38
Width: 588
VWidth: 1024
Flags: W
HStem: 0 74<233.584 465> 371 75<305 432> 670 72<229.906 499>
VStem: 43 82<227.047 529.454>
LayerCount: 2
Fore
SplineSet
499 742 m 29,0,-1
 543 670 l 1,1,-1
 301 670 l 2,2,3
 252 667 252 667 216 640 c 0,4,5
 182 614 182 614 161 568 c 0,6,7
 144 530 144 530 134 478 c 0,8,9
 125 432 125 432 125 379 c 0,10,11
 125 322 125 322 135 273 c 0,12,13
 146 221 146 221 166 176 c 0,14,15
 187 130 187 130 224 102 c 128,-1,16
 261 74 261 74 312 74 c 2,17,-1
 465 74 l 1,18,-1
 432 371 l 1,19,-1
 305 371 l 1,20,-1
 274 446 l 1,21,-1
 501 446 l 1,22,-1
 547 74 l 1,23,-1
 547 0 l 1,24,-1
 312 0 l 2,25,26
 225 0 225 0 163 58 c 0,27,28
 100 116 100 116 72 200 c 0,29,30
 43 285 43 285 43 379 c 0,31,32
 43 469 43 469 69 550 c 0,33,34
 95 630 95 630 154 686 c 128,-1,35
 213 742 213 742 295 742 c 2,36,-1
 499 742 l 29,0,-1
EndSplineSet
Validated: 3073
EndChar

StartChar: H
Encoding: 72 72 39
Width: 588
VWidth: 1024
Flags: W
HStem: 0 21G<43 125 465 547> 364 73<125 465> 722 20G<43 125 465 547>
VStem: 43 82<0 364 437 742> 465 82<0 364 437 742>
LayerCount: 2
Fore
SplineSet
465 437 m 1,0,-1
 465 742 l 1,1,-1
 547 742 l 1,2,-1
 547 0 l 1,3,-1
 465 0 l 1,4,-1
 465 364 l 1,5,-1
 125 364 l 1,6,-1
 125 0 l 1,7,-1
 43 0 l 1,8,-1
 43 742 l 1,9,-1
 125 742 l 1,10,-1
 125 437 l 1,11,-1
 465 437 l 1,0,-1
EndSplineSet
Validated: 3073
EndChar

StartChar: I
Encoding: 73 73 40
Width: 588
VWidth: 1024
Flags: W
HStem: 0 74<75 252 334 513> 670 72<75 252 334 513>
VStem: 252 82<74 670>
LayerCount: 2
Fore
SplineSet
513 742 m 25,0,-1
 557 670 l 1,1,-1
 334 670 l 1,2,-1
 334 74 l 1,3,-1
 513 74 l 1,4,-1
 557 0 l 1,5,-1
 75 0 l 1,6,-1
 31 74 l 1,7,-1
 252 74 l 1,8,-1
 252 670 l 1,9,-1
 75 670 l 1,10,-1
 31 742 l 1,11,-1
 513 742 l 25,0,-1
EndSplineSet
Validated: 3073
EndChar

StartChar: J
Encoding: 74 74 41
Width: 588
VWidth: 1024
Flags: W
HStem: -4 73<219.427 366.591> 669 72<129 418 500 545>
VStem: 85 82<127.007 247> 418 82<125.667 669>
LayerCount: 2
Fore
SplineSet
545 741 m 25,0,-1
 589 669 l 1,1,-1
 500 669 l 1,2,-1
 500 247 l 2,3,4
 500 -4 500 -4 295 -4 c 0,5,6
 187 -4 187 -4 136 64 c 128,-1,7
 85 132 85 132 85 247 c 1,8,-1
 167 247 l 1,9,10
 167 151 167 151 199 110 c 128,-1,11
 231 69 231 69 295 69 c 0,12,13
 358 69 358 69 388 110 c 0,14,15
 418 150 418 150 418 247 c 2,16,-1
 418 669 l 1,17,-1
 129 669 l 1,18,-1
 85 741 l 1,19,-1
 545 741 l 25,0,-1
EndSplineSet
Validated: 3073
EndChar

StartChar: K
Encoding: 75 75 42
Width: 588
VWidth: 1024
Flags: W
HStem: 0 21G<43 125 451.308 553> 364 73<125 233> 722 20G<43 125 438.574 542>
VStem: 43 82<0 364 437 742>
LayerCount: 2
Fore
SplineSet
542 742 m 5,0,-1
 303 401 l 1,1,-1
 553 0 l 1,2,-1
 464 0 l 1,3,-1
 233 364 l 1,4,-1
 125 364 l 1,5,-1
 125 0 l 1,6,-1
 43 0 l 1,7,-1
 43 742 l 1,8,-1
 125 742 l 1,9,-1
 125 437 l 1,10,-1
 233 437 l 1,11,-1
 453 742 l 1,12,-1
 542 742 l 5,0,-1
EndSplineSet
Validated: 3073
EndChar

StartChar: L
Encoding: 76 76 43
Width: 588
VWidth: 1024
Flags: W
HStem: 0 74<159 495> 722 20G<77 159>
VStem: 77 82<74 742>
LayerCount: 2
Fore
SplineSet
159 742 m 25,0,-1
 159 74 l 1,1,-1
 495 74 l 1,2,-1
 538 0 l 1,3,-1
 77 0 l 1,4,-1
 77 742 l 1,5,-1
 159 742 l 25,0,-1
EndSplineSet
Validated: 3073
EndChar

StartChar: M
Encoding: 77 77 44
Width: 588
VWidth: 1024
Flags: W
HStem: 0 21G<43 125 465 547> 721 20G<43 137.143 452.857 547>
VStem: 43 82<0 600> 465 82<0 600>
LayerCount: 2
Fore
SplineSet
547 741 m 29,0,-1
 547 0 l 1,1,-1
 465 0 l 1,2,-1
 465 600 l 1,3,-1
 295 324 l 1,4,-1
 125 600 l 1,5,-1
 125 0 l 1,6,-1
 43 0 l 1,7,-1
 43 741 l 1,8,-1
 125 741 l 1,9,-1
 295 461 l 1,10,-1
 465 741 l 1,11,-1
 547 741 l 29,0,-1
EndSplineSet
Validated: 3073
EndChar

StartChar: N
Encoding: 78 78 45
Width: 588
VWidth: 1024
Flags: W
HStem: 0 21G<43 125 453.475 547> 722 20G<43 136.545 465 547>
VStem: 43 82<0 590> 465 82<153 742>
LayerCount: 2
Fore
SplineSet
547 742 m 29,0,-1
 547 0 l 1,1,-1
 465 0 l 1,2,-1
 125 590 l 1,3,-1
 125 0 l 1,4,-1
 43 0 l 1,5,-1
 43 742 l 1,6,-1
 125 742 l 1,7,-1
 465 153 l 1,8,-1
 465 742 l 1,9,-1
 547 742 l 29,0,-1
EndSplineSet
Validated: 3073
EndChar

StartChar: O
Encoding: 79 79 46
Width: 588
VWidth: 1024
Flags: W
HStem: -6 70<216.063 373.067> 679 70<219.23 369.807>
VStem: 39 91<188.601 546.869> 458 91<188.601 546.869>
LayerCount: 2
Fore
SplineSet
295 749 m 0,0,1
 364 749 364 749 416 715 c 0,2,3
 466 683 466 683 498 626 c 0,4,5
 525 582 525 582 539 504 c 0,6,7
 547 458 547 458 549 370 c 0,8,9
 549 278 549 278 529 193 c 0,10,11
 508 110 508 110 446 52 c 0,12,13
 385 -6 385 -6 295 -6 c 0,14,15
 203 -6 203 -6 142 52 c 0,16,17
 80 110 80 110 59 193 c 0,18,19
 39 278 39 278 39 370 c 0,20,21
 41 458 41 458 49 504 c 0,22,23
 63 582 63 582 90 626 c 0,24,25
 122 683 122 683 172 715 c 0,26,27
 224 749 224 749 295 749 c 0,0,1
295 679 m 256,28,29
 178 679 178 679 146 523 c 0,30,31
 130 447 130 447 130 370 c 0,32,33
 132 269 132 269 146 202 c 0,34,35
 178 64 178 64 295 64 c 128,-1,36
 412 64 412 64 442 202 c 0,37,38
 456 264 456 264 458 370 c 0,39,40
 458 443 458 443 442 523 c 0,41,42
 412 679 412 679 295 679 c 256,28,29
EndSplineSet
Validated: 3073
EndChar

StartChar: P
Encoding: 80 80 47
Width: 588
VWidth: 1024
Flags: W
HStem: 0 21G<53 135> 344 74<135 410.052> 670 72<135 410.47>
VStem: 53 82<0 344 418 670> 454 82<467.626 623.099>
LayerCount: 2
Fore
SplineSet
454 548 m 24,0,1
 454 596 454 596 426 633 c 128,-1,2
 398 670 398 670 353 670 c 2,3,-1
 135 670 l 1,4,-1
 135 418 l 1,5,-1
 353 418 l 2,6,7
 399 418 399 418 426 457 c 0,8,9
 454 497 454 497 454 548 c 24,0,1
369 742 m 26,10,11
 443 742 443 742 489 684 c 0,12,13
 536 625 536 625 536 548 c 0,14,15
 536 468 536 468 489 406 c 128,-1,16
 442 344 442 344 369 344 c 2,17,-1
 135 344 l 1,18,-1
 135 0 l 1,19,-1
 53 0 l 1,20,-1
 53 742 l 1,21,-1
 369 742 l 26,10,11
EndSplineSet
Validated: 3073
EndChar

StartChar: Q
Encoding: 81 81 48
Width: 588
VWidth: 1024
Flags: W
HStem: -13 86<461 530> -13 73<217.297 367.057> 156 69<267 330> 678 74<225.749 370.82>
VStem: 43 82<210.923 525.386> 462 82<197.496 533.637>
LayerCount: 2
Fore
SplineSet
295 678 m 0,0,1
 247 678 247 678 210 644 c 0,2,3
 177 614 177 614 158 560 c 0,4,5
 139 507 139 507 132 460 c 0,6,7
 125 415 125 415 125 370 c 0,8,9
 125 60 125 60 295 60 c 0,10,11
 347 60 347 60 376 89 c 1,12,-1
 330 156 l 1,13,-1
 267 156 l 1,14,-1
 214 225 l 1,15,-1
 336 225 l 1,16,-1
 412 126 l 1,17,18
 437 172 437 172 450 225 c 0,19,20
 462 275 462 275 462 370 c 0,21,22
 462 432 462 432 455 478 c 0,23,24
 448 527 448 527 431 575 c 0,25,26
 415 623 415 623 380 650 c 0,27,28
 344 678 344 678 295 678 c 0,0,1
295 752 m 128,-1,30
 359 752 359 752 408 718 c 128,-1,31
 457 684 457 684 486 626 c 0,32,33
 516 566 516 566 530 504 c 128,-1,34
 544 442 544 442 544 370 c 0,35,36
 544 177 544 177 461 73 c 1,37,-1
 530 73 l 1,38,-1
 592 -13 l 1,39,-1
 455 -13 l 1,40,-1
 424 35 l 1,41,42
 378 -13 378 -13 295 -13 c 0,43,44
 232 -13 232 -13 182 22 c 0,45,46
 131 57 131 57 102 113 c 0,47,48
 74 167 74 167 58 236 c 0,49,50
 43 302 43 302 43 370 c 128,-1,51
 43 438 43 438 58 504 c 0,52,53
 73 572 73 572 102 626 c 0,54,55
 132 683 132 683 182 718 c 0,56,29
 231 752 231 752 295 752 c 128,-1,30
EndSplineSet
Validated: 3073
EndChar

StartChar: R
Encoding: 82 82 49
Width: 588
VWidth: 1024
Flags: W
HStem: 0 21G<43 125 464 546> 374 72<125 377.546> 670 72<125 393.056>
VStem: 43 82<0 374 446 670> 435 82<495.869 626.344> 464 82<0 284.672>
LayerCount: 2
Fore
SplineSet
329 742 m 6,0,1
 419 742 419 742 468 690 c 128,-1,2
 517 638 517 638 517 569 c 0,3,4
 517 468 517 468 423 422 c 1,5,-1
 423 409 l 1,6,7
 482 387 482 387 514 332 c 128,-1,8
 546 277 546 277 546 206 c 2,9,-1
 546 0 l 1,10,-1
 464 0 l 1,11,-1
 464 206 l 2,12,13
 464 270 464 270 414 322 c 128,-1,14
 364 374 364 374 310 374 c 2,15,-1
 125 374 l 1,16,-1
 125 0 l 1,17,-1
 43 0 l 1,18,-1
 43 742 l 1,19,-1
 329 742 l 6,0,1
435 569 m 4,20,21
 435 605 435 605 404 638 c 0,22,23
 374 670 374 670 333 670 c 2,24,-1
 125 670 l 1,25,-1
 125 446 l 1,26,-1
 335 446 l 2,27,28
 372 446 372 446 403 482 c 0,29,30
 433 517 433 517 435 569 c 4,20,21
EndSplineSet
Validated: 3073
EndChar

StartChar: S
Encoding: 83 83 50
Width: 588
VWidth: 1024
Flags: W
HStem: 0 74<86 386.697> 369 74<174.75 410.348> 668 74<182.96 503>
VStem: 54 82<481.024 623.21> 465 82<151.953 314.412>
LayerCount: 2
Fore
SplineSet
503 742 m 25,0,-1
 547 668 l 1,1,-1
 274 668 l 2,2,3
 136 668 136 668 136 548 c 0,4,5
 136 443 136 443 264 443 c 2,6,-1
 320 443 l 2,7,8
 537 443 537 443 547 223 c 1,9,10
 528 0 528 0 295 0 c 2,11,-1
 42 0 l 1,12,-1
 86 74 l 1,13,-1
 295 74 l 2,14,15
 445 74 445 74 465 223 c 1,16,17
 465 369 465 369 331 369 c 2,18,-1
 268 369 l 2,19,20
 55 369 55 369 54 547 c 0,21,22
 54 742 54 742 274 742 c 2,23,-1
 503 742 l 25,0,-1
EndSplineSet
Validated: 3073
EndChar

StartChar: T
Encoding: 84 84 51
Width: 588
VWidth: 1024
Flags: W
HStem: 0 21G<252 335> 669 73<75 252 335 513>
VStem: 252 83<0 669>
LayerCount: 2
Fore
SplineSet
252 669 m 29,0,-1
 75 669 l 1,1,-1
 31 742 l 1,2,-1
 513 742 l 1,3,-1
 557 669 l 1,4,-1
 335 669 l 1,5,-1
 335 0 l 1,6,-1
 252 0 l 1,7,-1
 252 669 l 29,0,-1
EndSplineSet
Validated: 3073
EndChar

StartChar: U
Encoding: 85 85 52
Width: 588
VWidth: 1024
Flags: W
HStem: -6 73<210.079 381.271> 720 20G<43 125 464 546>
VStem: 43 82<166.367 740> 464 82<167.214 740>
LayerCount: 2
Fore
SplineSet
546 740 m 25,0,-1
 546 289 l 2,1,2
 543 147 543 147 477 71 c 0,3,4
 411 -6 411 -6 295 -6 c 0,5,6
 182 -6 182 -6 114 72 c 0,7,8
 46 151 46 151 43 289 c 2,9,-1
 43 740 l 1,10,-1
 125 740 l 1,11,-1
 125 289 l 2,12,13
 126 184 126 184 170 125 c 0,14,15
 213 67 213 67 295 67 c 0,16,17
 458 67 458 67 464 289 c 1,18,-1
 464 740 l 1,19,-1
 546 740 l 25,0,-1
EndSplineSet
Validated: 3073
EndChar

StartChar: V
Encoding: 86 86 53
Width: 588
VWidth: 1024
Flags: W
HStem: 722 20G<41 129.59 458.41 547>
LayerCount: 2
Fore
SplineSet
547 742 m 29,0,-1
 294 -15 l 1,1,-1
 41 742 l 1,2,-1
 123 742 l 1,3,-1
 294 223 l 1,4,-1
 465 742 l 1,5,-1
 547 742 l 29,0,-1
EndSplineSet
Validated: 3073
EndChar

StartChar: W
Encoding: 87 87 54
Width: 588
VWidth: 1024
Flags: W
HStem: 0 21G<85.7854 213.237 374.763 502.215> 721 20G<42 125.09 462.91 546>
LayerCount: 2
Fore
SplineSet
546 741 m 29,0,-1
 501 0 l 1,1,-1
 381 0 l 1,2,-1
 294 279 l 1,3,-1
 207 0 l 1,4,-1
 87 0 l 1,5,-1
 42 741 l 1,6,-1
 124 741 l 1,7,-1
 159 99 l 1,8,-1
 294 494 l 1,9,-1
 429 99 l 1,10,-1
 464 741 l 1,11,-1
 546 741 l 29,0,-1
EndSplineSet
Validated: 3073
EndChar

StartChar: X
Encoding: 88 88 55
Width: 588
VWidth: 1024
Flags: W
HStem: 0 21G<43 135.241 452.88 546> 722 20G<43 137.186 450.957 546>
LayerCount: 2
Fore
SplineSet
295 463 m 1,0,-1
 463 742 l 1,1,-1
 546 742 l 1,2,-1
 343 396 l 1,3,-1
 546 0 l 1,4,-1
 463 0 l 1,5,-1
 295 332 l 1,6,-1
 125 0 l 1,7,-1
 43 0 l 1,8,-1
 245 396 l 1,9,-1
 43 742 l 1,10,-1
 125 742 l 1,11,-1
 295 463 l 1,0,-1
EndSplineSet
Validated: 3073
EndChar

StartChar: Y
Encoding: 89 89 56
Width: 588
VWidth: 1024
Flags: W
HStem: 0 21G<254 336> 722 20G<42 135.104 453.961 547>
VStem: 254 82<0 353>
LayerCount: 2
Fore
SplineSet
547 742 m 25,0,-1
 336 353 l 1,1,-1
 336 0 l 1,2,-1
 254 0 l 1,3,-1
 254 353 l 1,4,-1
 42 742 l 1,5,-1
 124 742 l 1,6,-1
 295 434 l 1,7,-1
 465 742 l 1,8,-1
 547 742 l 25,0,-1
EndSplineSet
Validated: 3073
EndChar

StartChar: Z
Encoding: 90 90 57
Width: 588
VWidth: 1024
Flags: W
HStem: 0 74<134 503> 669 73<87 455>
LayerCount: 2
Fore
SplineSet
503 742 m 29,0,-1
 547 669 l 1,1,-1
 134 74 l 1,2,-1
 503 74 l 1,3,-1
 547 0 l 1,4,-1
 87 0 l 1,5,-1
 43 74 l 1,6,-1
 455 669 l 1,7,-1
 87 669 l 1,8,-1
 43 742 l 1,9,-1
 503 742 l 29,0,-1
EndSplineSet
Validated: 3073
EndChar

StartChar: bracketleft
Encoding: 91 91 58
Width: 588
VWidth: 1024
Flags: W
HStem: -146 82<277 395> 806 82<277 395>
VStem: 195 200<-146 -64 806 888> 195 82<-64 806>
LayerCount: 2
Fore
SplineSet
395 888 m 29,0,-1
 395 806 l 1,1,-1
 277 806 l 1,2,-1
 277 -64 l 1,3,-1
 395 -64 l 1,4,-1
 395 -146 l 1,5,-1
 195 -146 l 1,6,-1
 195 888 l 1,7,-1
 395 888 l 29,0,-1
EndSplineSet
Validated: 3073
EndChar

StartChar: backslash
Encoding: 92 92 59
Width: 588
VWidth: 1024
Flags: W
LayerCount: 2
Fore
SplineSet
52 888 m 25,0,-1
 141 888 l 1,1,-1
 536 -146 l 1,2,-1
 447 -146 l 1,3,-1
 52 888 l 25,0,-1
EndSplineSet
Validated: 3073
EndChar

StartChar: bracketright
Encoding: 93 93 60
Width: 588
VWidth: 1024
Flags: W
HStem: -146 82<193 311> 806 82<193 311>
VStem: 193 200<-146 -64 806 888> 311 82<-64 806>
LayerCount: 2
Fore
SplineSet
193 888 m 29,0,-1
 393 888 l 1,1,-1
 393 -146 l 1,2,-1
 193 -146 l 1,3,-1
 193 -64 l 1,4,-1
 311 -64 l 1,5,-1
 311 806 l 1,6,-1
 193 806 l 1,7,-1
 193 888 l 29,0,-1
EndSplineSet
Validated: 3073
EndChar

StartChar: asciicircum
Encoding: 94 94 61
Width: 588
VWidth: 1024
Flags: W
HStem: 555 264
LayerCount: 2
Fore
SplineSet
295 819 m 25,0,-1
 538 555 l 1,1,-1
 441 555 l 1,2,-1
 295 722 l 1,3,-1
 148 555 l 1,4,-1
 51 555 l 1,5,-1
 295 819 l 25,0,-1
EndSplineSet
Validated: 3073
EndChar

StartChar: underscore
Encoding: 95 95 62
Width: 588
VWidth: 1024
Flags: W
HStem: 0 73<42 546>
LayerCount: 2
Fore
SplineSet
546 0 m 25,0,-1
 42 0 l 1,1,-1
 42 73 l 1,2,-1
 546 73 l 1,3,-1
 546 0 l 25,0,-1
EndSplineSet
Validated: 3073
EndChar

StartChar: a
Encoding: 97 97 64
Width: 588
VWidth: 1024
Flags: W
HStem: -6 73<192.265 321.144 485.141 510.275> 410 69<195.332 329.294>
VStem: 53 82<141.506 341.25> 397 73<180.379 353.27> 417 53<79.7197 129>
LayerCount: 2
Fore
SplineSet
496 473 m 5,0,-1
 470 446 l 1,1,-1
 470 152 l 2,2,3
 470 79 470 79 513 63 c 1,4,-1
 565 63 l 1,5,-1
 506 -8 l 1,6,7
 417 4 417 4 417 129 c 1,8,9
 378 -6 378 -6 285 -6 c 0,10,11
 187 -6 187 -6 123 67 c 0,12,13
 53 146 53 146 53 241 c 0,14,15
 53 326 53 326 112 403 c 0,16,17
 170 479 170 479 256 479 c 0,18,19
 288 479 288 479 332 456 c 0,20,21
 375 433 375 433 388 421 c 1,22,-1
 388 473 l 1,23,-1
 496 473 l 5,0,-1
253 410 m 4,24,25
 225 410 225 410 191 385 c 0,26,27
 167 367 167 367 154 335 c 0,28,29
 135 290 135 290 135 227 c 0,30,31
 135 156 135 156 177 102 c 0,32,33
 206 67 206 67 274 67 c 0,34,35
 336 67 336 67 382 196 c 0,36,37
 397 240 397 240 397 296 c 0,38,39
 397 335 397 335 367 362 c 0,40,41
 336 390 336 390 312 400 c 128,-1,42
 288 410 288 410 253 410 c 4,24,25
EndSplineSet
Validated: 3073
EndChar

StartChar: b
Encoding: 98 98 65
Width: 588
VWidth: 1024
Flags: W
HStem: -6 73<218.971 350.583> 407 72<264.096 411.958> 722 20G<80 187>
VStem: 105 78<112.398 346.146 421 717> 452 81<161.855 360.155>
LayerCount: 2
Fore
SplineSet
80 742 m 1,0,-1
 187 742 l 1,1,-1
 187 421 l 1,2,3
 197 431 197 431 257 455 c 128,-1,4
 317 479 317 479 340 479 c 0,5,6
 431 479 431 479 482 416 c 128,-1,7
 533 353 533 353 533 241 c 0,8,9
 533 143 533 143 450 68 c 0,10,11
 369 -6 369 -6 271 -6 c 0,12,13
 199 -6 199 -6 145 78 c 1,14,15
 143 4 143 4 90 -8 c 1,16,-1
 26 54 l 1,17,-1
 72 54 l 1,18,19
 102 86 102 86 105 142 c 2,20,-1
 105 717 l 1,21,-1
 80 742 l 1,0,-1
359 407 m 0,22,23
 336 407 336 407 294 396 c 0,24,25
 255 386 255 386 218 358 c 0,26,27
 183 332 183 332 183 296 c 0,28,29
 183 285 183 285 183.5 269 c 128,-1,30
 184 253 184 253 184 249 c 0,31,32
 184 242 184 242 186 200 c 0,33,34
 187 175 187 175 193 150 c 0,35,36
 198 127 198 127 206 109 c 0,37,38
 215 89 215 89 230 78 c 0,39,40
 246 67 246 67 264 67 c 0,41,42
 336 67 336 67 394 119 c 128,-1,43
 452 171 452 171 452 234 c 0,44,45
 452 407 452 407 359 407 c 0,22,23
EndSplineSet
Validated: 3073
EndChar

StartChar: c
Encoding: 99 99 66
Width: 588
VWidth: 1024
Flags: W
HStem: -6 73<216.652 371.146> 407 72<218.83 363.812>
VStem: 72 82<140.047 336.636>
LayerCount: 2
Fore
SplineSet
297 479 m 28,0,1
 363 479 363 479 432 430 c 0,2,3
 500 382 500 382 500 345 c 1,4,-1
 413 263 l 1,5,-1
 413 331 l 1,6,7
 402 360 402 360 366 384 c 0,8,9
 332 407 332 407 297 407 c 0,10,11
 228 407 228 407 191 360 c 128,-1,12
 154 313 154 313 154 243 c 0,13,14
 154 168 154 168 188 118 c 0,15,16
 223 67 223 67 297 67 c 0,17,18
 342 67 342 67 379 94 c 0,19,20
 417 121 417 121 433 159 c 1,21,-1
 526 159 l 1,22,23
 504 98 504 98 438 46 c 128,-1,24
 372 -6 372 -6 295 -6 c 0,25,26
 198 -6 198 -6 135 66 c 128,-1,27
 72 138 72 138 72 243 c 0,28,29
 72 350 72 350 136 414 c 0,30,31
 201 479 201 479 297 479 c 28,0,1
EndSplineSet
Validated: 3073
EndChar

StartChar: d
Encoding: 100 100 67
Width: 588
VWidth: 1024
Flags: W
HStem: -6 73<237.417 369.029> 407 72<176.042 323.904> 722 20G<401 508>
VStem: 55 81<161.855 360.155> 404 79<109.344 347.025 421 717>
LayerCount: 2
Fore
SplineSet
508 742 m 5,0,-1
 483 717 l 1,1,-1
 483 142 l 2,2,3
 486 86 486 86 516 54 c 1,4,-1
 562 54 l 1,5,-1
 498 -8 l 1,6,7
 445 4 445 4 443 78 c 1,8,9
 389 -6 389 -6 317 -6 c 0,10,11
 219 -6 219 -6 138 68 c 0,12,13
 55 143 55 143 55 241 c 0,14,15
 55 353 55 353 106 416 c 128,-1,16
 157 479 157 479 248 479 c 0,17,18
 271 479 271 479 331 455 c 128,-1,19
 391 431 391 431 401 421 c 1,20,-1
 401 742 l 1,21,-1
 508 742 l 5,0,-1
229 407 m 4,22,23
 136 407 136 407 136 234 c 0,24,25
 136 171 136 171 194 119 c 128,-1,26
 252 67 252 67 324 67 c 0,27,28
 342 67 342 67 358 78 c 0,29,30
 373 89 373 89 382 109 c 0,31,32
 390 127 390 127 395 150 c 0,33,34
 401 175 401 175 402 200 c 0,35,36
 404 242 404 242 404 249 c 0,37,38
 404 253 404 253 404.5 269 c 128,-1,39
 405 285 405 285 405 296 c 0,40,41
 405 332 405 332 370 358 c 0,42,43
 333 386 333 386 294 396 c 0,44,45
 252 407 252 407 229 407 c 4,22,23
EndSplineSet
Validated: 3073
EndChar

StartChar: e
Encoding: 101 101 68
Width: 588
VWidth: 1024
Flags: W
HStem: -6 62<217.635 381.666> 417 62<220.415 377.36>
VStem: 72 82<185.594 345.081>
LayerCount: 2
Fore
SplineSet
295 479 m 4,0,1
 332 479 332 479 366 467 c 128,-1,2
 400 455 400 455 423 437 c 0,3,4
 447 418 447 418 464 398 c 0,5,6
 480 380 480 380 492 350 c 0,7,8
 502 326 502 326 502 310 c 1,9,-1
 176 126 l 1,10,11
 180 108 180 108 210 83 c 0,12,13
 221 74 221 74 245 64 c 0,14,15
 265 56 265 56 295 56 c 0,16,17
 349 56 349 56 390 82 c 128,-1,18
 431 108 431 108 431 134 c 1,19,-1
 537 165 l 1,20,21
 511 99 511 99 448 46 c 0,22,23
 386 -6 386 -6 295 -6 c 0,24,25
 196 -6 196 -6 134 62 c 128,-1,26
 72 130 72 130 72 236 c 0,27,28
 72 345 72 345 134 411 c 0,29,30
 197 479 197 479 295 479 c 4,0,1
408 350 m 5,31,32
 408 352 408 352 406 358 c 0,33,34
 404 365 404 365 398 374 c 0,35,36
 393 382 393 382 379 394 c 0,37,38
 369 402 369 402 346 410 c 0,39,40
 325 417 325 417 295 417 c 0,41,42
 240 417 240 417 208 386 c 0,43,44
 174 354 174 354 164 317 c 0,45,46
 154 281 154 281 154 236 c 0,47,48
 154 211 154 211 156 185 c 1,49,-1
 408 350 l 5,31,32
EndSplineSet
Validated: 3073
EndChar

StartChar: f
Encoding: 102 102 69
Width: 588
VWidth: 1024
Flags: W
HStem: 0 21G<194 334> 390 73<83 223 305 461> 673 72<319.858 430.927>
VStem: 223 82<34 390 463 658.079> 445 82<614.195 658.939>
LayerCount: 2
Fore
SplineSet
377 745 m 0,0,1
 411 745 411 745 440 730 c 0,2,3
 468 715 468 715 486 694 c 0,4,5
 497 681 497 681 513 654 c 0,6,7
 522 639 522 639 527 620 c 1,8,-1
 445 552 l 1,9,-1
 445 601 l 2,10,11
 445 673 445 673 377 673 c 0,12,13
 305 673 305 673 305 601 c 2,14,-1
 305 463 l 1,15,-1
 499 463 l 1,16,-1
 461 390 l 1,17,-1
 305 390 l 1,18,-1
 305 34 l 1,19,-1
 334 0 l 1,20,-1
 194 0 l 1,21,-1
 223 34 l 1,22,-1
 223 390 l 1,23,-1
 83 390 l 1,24,-1
 83 463 l 1,25,-1
 223 463 l 1,26,-1
 223 621 l 2,27,28
 223 671 223 671 264 708 c 128,-1,29
 305 745 305 745 377 745 c 0,0,1
EndSplineSet
Validated: 3073
EndChar

StartChar: g
Encoding: 103 103 70
Width: 588
VWidth: 1024
Flags: W
HStem: -218 72<186.659 370.85> 33 72<204.172 353.632> 407 72<199.234 351.32>
VStem: 70 82<163.275 354.236> 404 82<-116.92 118 163.001 345.44 397 446>
LayerCount: 2
Fore
SplineSet
404 118 m 1,0,1
 404 118 404 118 398 104 c 2,2,3
 381 72 381 72 353 54 c 0,4,5
 318 33 318 33 277 33 c 0,6,7
 190 33 190 33 130 102 c 128,-1,8
 70 171 70 171 70 259 c 0,9,10
 70 344 70 344 129 412 c 0,11,12
 187 479 187 479 277 479 c 0,13,14
 318 479 318 479 353 459 c 0,15,16
 387 440 387 440 404 397 c 1,17,-1
 404 473 l 1,18,-1
 510 473 l 1,19,-1
 486 446 l 1,20,-1
 486 -110 l 2,21,22
 486 -147 486 -147 430 -182 c 0,23,24
 375 -216 375 -216 279 -218 c 0,25,26
 195 -218 195 -218 140 -178 c 0,27,28
 84 -137 84 -137 70 -99 c 1,29,-1
 152 -31 l 1,30,-1
 152 -99 l 1,31,32
 159 -107 159 -107 167 -113 c 0,33,34
 182 -124 182 -124 210 -134 c 0,35,36
 243 -146 243 -146 279 -146 c 0,37,38
 338 -144 338 -144 371 -125 c 128,-1,39
 404 -106 404 -106 404 -75 c 2,40,-1
 404 118 l 1,0,1
277 407 m 256,41,42
 211 407 211 407 182 368 c 0,43,44
 152 327 152 327 152 259 c 0,45,46
 152 189 152 189 183 148 c 0,47,48
 215 105 215 105 277 105 c 0,49,50
 338 105 338 105 368 140 c 0,51,52
 398 174 398 174 398 257 c 0,53,54
 398 407 398 407 277 407 c 256,41,42
EndSplineSet
Validated: 3073
EndChar

StartChar: h
Encoding: 104 104 71
Width: 588
VWidth: 1024
Flags: W
HStem: 0 21G<67 196 393 524> 407 72<235.629 375.725> 722 20G<65 172>
VStem: 90 82<30 341.759 413 720> 420 82<30 357.957>
LayerCount: 2
Fore
SplineSet
172 742 m 5,0,-1
 172 413 l 1,1,2
 198 442 198 442 236 460 c 0,3,4
 276 479 276 479 308 479 c 0,5,6
 403 479 403 479 452 412 c 0,7,8
 500 346 500 346 502 252 c 2,9,-1
 502 30 l 1,10,-1
 524 0 l 1,11,-1
 393 0 l 1,12,-1
 420 30 l 1,13,-1
 420 252 l 2,14,15
 420 407 420 407 308 407 c 0,16,17
 255 407 255 407 214 368 c 0,18,19
 174 329 174 329 174 255 c 2,20,-1
 174 30 l 1,21,-1
 196 0 l 1,22,-1
 67 0 l 1,23,-1
 90 30 l 1,24,-1
 90 720 l 1,25,-1
 65 742 l 1,26,-1
 172 742 l 5,0,-1
EndSplineSet
Validated: 3073
EndChar

StartChar: i
Encoding: 105 105 72
Width: 588
VWidth: 1024
Flags: W
HStem: 0 83<327 375> 390 83<182 247> 567 126<223.697 314.664>
VStem: 182 145<390 473> 205 129<586.004 673.996> 247 80<83 390>
LayerCount: 2
Fore
SplineSet
270 693 m 24,0,1
 292 693 292 693 312 674 c 0,2,3
 334 654 334 654 334 630 c 128,-1,4
 334 606 334 606 312 586 c 0,5,6
 292 567 292 567 270 567 c 0,7,8
 251 567 251 567 227 586 c 0,9,10
 205 604 205 604 205 630 c 128,-1,11
 205 656 205 656 227 674 c 0,12,13
 251 693 251 693 270 693 c 24,0,1
327 473 m 25,14,-1
 327 83 l 1,15,-1
 413 83 l 1,16,-1
 375 0 l 1,17,-1
 247 0 l 1,18,-1
 247 390 l 1,19,-1
 182 390 l 1,20,-1
 182 473 l 1,21,-1
 327 473 l 25,14,-1
EndSplineSet
Validated: 3073
EndChar

StartChar: j
Encoding: 106 106 73
Width: 588
VWidth: 1024
Flags: W
HStem: -198 73<218.409 375.932> 453 20G<400 527> 565 132<412.689 516.664>
VStem: 80 82<-65.2036 54.6081> 391 145<584.565 677.435> 423 82<-74.6331 443>
LayerCount: 2
Fore
SplineSet
464 697 m 156,-1,1
 494 697 494 697 514 678 c 0,2,3
 536 658 536 658 536 631 c 128,-1,4
 536 604 536 604 514 584 c 0,5,6
 494 565 494 565 464 565 c 128,-1,7
 434 565 434 565 412 584 c 0,8,9
 391 602 391 602 391 631 c 128,-1,10
 391 660 391 660 412 678 c 0,11,0
 434 697 434 697 464 697 c 156,-1,1
80 35 m 4,12,13
 80 61 80 61 95 85 c 128,-1,14
 110 109 110 109 140 109 c 0,15,16
 156 109 156 109 180 99 c 0,17,18
 205 89 205 89 205 78 c 128,-1,19
 205 67 205 67 184 55 c 0,20,21
 162 42 162 42 162 25 c 0,22,23
 162 -47 162 -47 198.5 -86 c 128,-1,24
 235 -125 235 -125 293 -125 c 0,25,26
 322 -125 322 -125 351.5 -115 c 128,-1,27
 381 -105 381 -105 394 -87 c 0,28,29
 423 -47 423 -47 423 12 c 2,30,-1
 423 443 l 1,31,-1
 400 473 l 1,32,-1
 527 473 l 1,33,-1
 505 443 l 1,34,-1
 505 12 l 2,35,36
 505 -80 505 -80 447 -141 c 0,37,38
 420 -170 420 -170 377 -184 c 128,-1,39
 334 -198 334 -198 293 -198 c 0,40,41
 250 -198 250 -198 206.5 -182.5 c 128,-1,42
 163 -167 163 -167 136 -140 c 0,43,44
 80 -82 80 -82 80 35 c 4,12,13
EndSplineSet
Validated: 3073
EndChar

StartChar: k
Encoding: 107 107 74
Width: 588
VWidth: 1024
Flags: W
HStem: 0 21G<73 199 388 516> 237 72<177 324.291> 453 20G<364 493> 722 20G<73 199>
VStem: 95 82<30 237 309 714> 388 82<371.109 441>
LayerCount: 2
Fore
SplineSet
388 441 m 5,0,-1
 364 473 l 1,1,-1
 493 473 l 1,2,-1
 470 441 l 1,3,4
 469 342 469 342 353 274 c 1,5,6
 415 232 415 232 452 166 c 0,7,8
 488 102 488 102 493 30 c 1,9,-1
 516 0 l 1,10,-1
 388 0 l 1,11,-1
 414 30 l 1,12,13
 411 155 411 155 302 237 c 1,14,-1
 177 237 l 1,15,-1
 177 30 l 1,16,-1
 199 0 l 1,17,-1
 73 0 l 1,18,-1
 95 30 l 1,19,-1
 95 714 l 1,20,-1
 73 742 l 1,21,-1
 199 742 l 1,22,-1
 177 714 l 1,23,-1
 177 309 l 1,24,-1
 281 309 l 1,25,26
 342 334 342 334 365 368 c 128,-1,27
 388 402 388 402 388 441 c 5,0,-1
EndSplineSet
Validated: 3073
EndChar

StartChar: l
Encoding: 108 108 75
Width: 588
VWidth: 1024
Flags: W
HStem: -6 73<283.245 386.473> 722 20G<153 289>
VStem: 178 86<85.6255 714>
LayerCount: 2
Fore
SplineSet
289 742 m 29,0,-1
 264 714 l 1,1,-1
 264 158 l 2,2,3
 264 125 264 125 272 106 c 0,4,5
 279 90 279 90 294 78 c 0,6,7
 308 67 308 67 331 67 c 0,8,9
 396 67 396 67 396 123 c 2,10,-1
 396 191 l 1,11,-1
 478 108 l 1,12,13
 468 70 468 70 429 32 c 0,14,15
 391 -6 391 -6 327 -6 c 0,16,17
 254 -6 254 -6 224 24 c 0,18,19
 208 40 208 40 198 56 c 0,20,21
 189 72 189 72 184 106 c 0,22,23
 178 154 178 154 178 234 c 2,24,-1
 178 714 l 1,25,-1
 153 742 l 1,26,-1
 289 742 l 29,0,-1
EndSplineSet
Validated: 3073
EndChar

StartChar: m
Encoding: 109 109 76
Width: 588
VWidth: 1024
Flags: W
HStem: 0 21G<15 145 231 360 446 576> 407 72<151.95 231.66 365.209 441.116>
VStem: 40 82<30 372.711 432 448> 257 82<30 377.278> 469 82<30 375.035>
LayerCount: 2
Fore
SplineSet
122 473 m 25,0,-1
 122 432 l 1,1,2
 130 449 130 449 155 464 c 0,3,4
 181 479 181 479 197 479 c 0,5,6
 227 478 227 478 250 462 c 0,7,8
 273 447 273 447 297 415 c 1,9,10
 345 477 345 477 402 479 c 0,11,12
 447 479 447 479 482 451 c 0,13,14
 518 422 518 422 530 380 c 0,15,16
 541 339 541 339 546 303 c 0,17,18
 551 265 551 265 551 240 c 2,19,-1
 551 30 l 1,20,-1
 576 0 l 1,21,-1
 446 0 l 1,22,-1
 469 30 l 1,23,-1
 469 240 l 2,24,25
 469 407 469 407 402 407 c 0,26,27
 339 407 339 407 339 240 c 2,28,-1
 339 30 l 1,29,-1
 360 0 l 1,30,-1
 231 0 l 1,31,-1
 257 30 l 1,32,-1
 257 240 l 2,33,34
 257 407 257 407 195 407 c 0,35,36
 122 407 122 407 122 240 c 2,37,-1
 122 30 l 1,38,-1
 145 0 l 1,39,-1
 15 0 l 1,40,-1
 40 30 l 1,41,-1
 40 448 l 1,42,-1
 14 473 l 1,43,-1
 122 473 l 25,0,-1
EndSplineSet
Validated: 3073
EndChar

StartChar: n
Encoding: 110 110 77
Width: 588
VWidth: 1024
Flags: W
HStem: 0 21G<83 210 399 530> 411 68<232.614 371.89>
VStem: 104 82<30 357.006 420 448> 424 82<30 348.121>
LayerCount: 2
Fore
SplineSet
306 479 m 0,0,1
 374 479 374 479 420 442 c 0,2,3
 467 404 467 404 486 352 c 0,4,5
 506 297 506 297 506 232 c 2,6,-1
 506 30 l 1,7,-1
 530 0 l 1,8,-1
 399 0 l 1,9,-1
 424 30 l 1,10,-1
 424 232 l 2,11,12
 424 316 424 316 394 364 c 0,13,14
 365 411 365 411 306 411 c 0,15,16
 238 411 238 411 212 366 c 0,17,18
 186 320 186 320 186 232 c 2,19,-1
 186 30 l 1,20,-1
 210 0 l 1,21,-1
 83 0 l 1,22,-1
 104 30 l 1,23,-1
 104 448 l 1,24,-1
 79 473 l 1,25,-1
 185 473 l 1,26,-1
 185 420 l 1,27,28
 239 479 239 479 306 479 c 0,0,1
EndSplineSet
Validated: 3073
EndChar

StartChar: o
Encoding: 111 111 78
Width: 588
VWidth: 1024
Flags: W
HStem: -6 62<214.414 367.51> 417 62<219.249 363.749>
VStem: 72 92<124.994 336.884> 425 92<131.125 330.831>
LayerCount: 2
Fore
SplineSet
289 417 m 4,0,1
 164 417 164 417 164 230 c 0,2,3
 164 146 164 146 192 102 c 0,4,5
 221 56 221 56 289 56 c 0,6,7
 359 56 359 56 392 102 c 128,-1,8
 425 148 425 148 425 230 c 128,-1,9
 425 312 425 312 392 365 c 0,10,11
 359 417 359 417 289 417 c 4,0,1
289 479 m 4,12,13
 384 479 384 479 450 402 c 0,14,15
 517 324 517 324 517 230 c 128,-1,16
 517 136 517 136 451 65 c 128,-1,17
 385 -6 385 -6 289 -6 c 0,18,19
 194 -6 194 -6 133 64 c 128,-1,20
 72 134 72 134 72 230 c 128,-1,21
 72 326 72 326 134 403 c 0,22,23
 195 479 195 479 289 479 c 4,12,13
EndSplineSet
Validated: 3073
EndChar

StartChar: p
Encoding: 112 112 79
Width: 588
VWidth: 1024
Flags: W
HStem: -6 73<242.188 381.2> 406 73<243.958 380.824>
VStem: 102 82<-181 74 143.034 327.442 401 448> 434 84<131.05 340.013>
LayerCount: 2
Fore
SplineSet
321 479 m 0,0,1
 407 479 407 479 462 401 c 0,2,3
 518 322 518 322 518 234 c 0,4,5
 518 147 518 147 462 70 c 0,6,7
 407 -6 407 -6 321 -6 c 0,8,9
 279 -6 279 -6 239 14 c 0,10,11
 201 33 201 33 184 74 c 1,12,-1
 184 -181 l 1,13,-1
 208 -212 l 1,14,-1
 76 -212 l 1,15,-1
 102 -181 l 1,16,-1
 102 448 l 1,17,-1
 76 473 l 1,18,-1
 184 473 l 1,19,-1
 184 401 l 1,20,21
 214 479 214 479 321 479 c 0,0,1
312 406 m 128,-1,23
 247 406 247 406 218 353 c 128,-1,24
 189 300 189 300 189 234 c 0,25,26
 189 170 189 170 218 118 c 0,27,28
 246 67 246 67 311 67 c 0,29,30
 377 67 377 67 405 116 c 0,31,32
 434 166 434 166 434 234 c 0,33,34
 434 304 434 304 406 354 c 0,35,22
 377 406 377 406 312 406 c 128,-1,23
EndSplineSet
Validated: 3073
EndChar

StartChar: q
Encoding: 113 113 80
Width: 588
VWidth: 1024
Flags: W
HStem: -218 73<501.235 572.715> -6 73<202.03 339.753> 406 73<201.984 337.994>
VStem: 70 84<127.823 345.199> 400 82<-127.089 74 140.299 329.874 402 450>
LayerCount: 2
Fore
SplineSet
505 473 m 1,0,-1
 482 450 l 1,1,-1
 482 -9 l 2,2,3
 482 -144 482 -144 533 -145 c 0,4,5
 586 -145 586 -145 586 -59 c 1,6,-1
 667 -102 l 1,7,8
 657 -138 657 -138 620 -178 c 128,-1,9
 583 -218 583 -218 528 -218 c 0,10,11
 400 -216 400 -216 400 -9 c 2,12,-1
 400 74 l 1,13,14
 383 33 383 33 346 14 c 0,15,16
 306 -6 306 -6 264 -6 c 0,17,18
 178 -6 178 -6 124 70 c 128,-1,19
 70 146 70 146 70 234 c 0,20,21
 70 292 70 292 92 346 c 128,-1,22
 114 400 114 400 160 440 c 0,23,24
 205 479 205 479 264 479 c 0,25,26
 370 479 370 479 400 402 c 1,27,-1
 400 473 l 1,28,-1
 505 473 l 1,0,-1
270 406 m 4,29,30
 205 406 205 406 180 356 c 0,31,32
 154 304 154 304 154 234 c 0,33,34
 154 165 154 165 180 116 c 128,-1,35
 206 67 206 67 270 67 c 0,36,37
 333 67 333 67 366 118 c 0,38,39
 398 167 398 167 398 234 c 0,40,41
 398 302 398 302 366 353 c 0,42,43
 333 406 333 406 270 406 c 4,29,30
EndSplineSet
Validated: 3073
EndChar

StartChar: r
Encoding: 114 114 81
Width: 588
VWidth: 1024
Flags: W
HStem: 0 21G<71 200> 407 72<248.045 400.928>
VStem: 93 82<32 315.111 399 469.72> 429 82<298.547 379.968>
LayerCount: 2
Fore
SplineSet
316 479 m 0,0,1
 406 478 406 478 458 424 c 0,2,3
 509 371 509 371 511 319 c 0,4,5
 511 298 511 298 488 284 c 0,6,7
 464 269 464 269 430 269 c 0,8,9
 418 269 418 269 412 278 c 128,-1,10
 406 287 406 287 406 293 c 0,11,12
 406 302 406 302 418 312 c 0,13,14
 429 322 429 322 429 330 c 0,15,16
 429 370 429 370 396 388 c 0,17,18
 361 407 361 407 316 407 c 0,19,20
 277 407 277 407 246 384 c 128,-1,21
 215 361 215 361 202 329 c 0,22,23
 188 294 188 294 182 267 c 0,24,25
 175 234 175 234 175 215 c 2,26,-1
 175 32 l 1,27,-1
 200 0 l 1,28,-1
 71 0 l 1,29,-1
 93 32 l 1,30,-1
 93 450 l 1,31,32
 69 470 69 470 69 473 c 1,33,-1
 175 473 l 1,34,-1
 175 399 l 1,35,36
 185 426 185 426 232 452 c 0,37,38
 280 479 280 479 316 479 c 0,0,1
EndSplineSet
Validated: 3073
EndChar

StartChar: s
Encoding: 115 115 82
Width: 588
VWidth: 1024
Flags: W
HStem: -6 73<163.577 407.277> 208 73<186.504 403.558> 407 72<186.535 424.76>
VStem: 87 82<296.182 391.858> 87 68<78.0162 124.253> 419 82<77.972 191.552> 433 68<346.114 397.143>
LayerCount: 2
Fore
SplineSet
386 479 m 6,0,1
 407 479 407 479 454 454 c 0,2,3
 473 445 473 445 486 418 c 0,4,5
 500 391 500 391 501 369 c 0,6,7
 501 347 501 347 488 338 c 0,8,9
 474 329 474 329 441 329 c 0,10,11
 429 329 429 329 420 332 c 0,12,13
 410 335 410 335 410 341 c 0,14,15
 410 350 410 350 422 356 c 0,16,17
 433 362 433 362 433 369 c 0,18,19
 433 381 433 381 416 394 c 128,-1,20
 399 407 399 407 377 407 c 2,21,-1
 236 407 l 2,22,23
 203 407 203 407 186 390 c 128,-1,24
 169 373 169 373 169 345 c 128,-1,25
 169 317 169 317 186 298 c 0,26,27
 202 281 202 281 236 281 c 2,28,-1
 358 281 l 2,29,30
 418 281 418 281 460 239 c 0,31,32
 501 198 501 198 501 142 c 0,33,34
 501 88 501 88 458 40 c 0,35,36
 416 -6 416 -6 358 -6 c 2,37,-1
 201 -6 l 2,38,39
 185 -6 185 -6 136 19 c 0,40,41
 119 28 119 28 103 56 c 0,42,43
 89 82 89 82 87 104 c 0,44,45
 87 144 87 144 155 144 c 0,46,47
 180 144 180 144 180 132 c 0,48,49
 180 124 180 124 168 118 c 0,50,51
 155 112 155 112 155 104 c 0,52,53
 155 94 155 94 174 80 c 0,54,55
 191 67 191 67 213 67 c 2,56,-1
 360 67 l 2,57,58
 419 67 419 67 419 136 c 0,59,60
 419 167 419 167 404 188 c 0,61,62
 390 208 390 208 358 208 c 2,63,-1
 245 208 l 2,64,65
 184 208 184 208 136 250 c 0,66,67
 87 293 87 293 87 345 c 128,-1,68
 87 397 87 397 135 438 c 0,69,70
 184 479 184 479 245 479 c 2,71,-1
 386 479 l 6,0,1
EndSplineSet
Validated: 3073
EndChar

StartChar: t
Encoding: 116 116 83
Width: 588
VWidth: 1024
Flags: W
HStem: -6 73<299.739 397.367> 390 73<78 206 288 472> 722 20G<178 310>
VStem: 206 82<79.0156 390 463 713>
LayerCount: 2
Fore
SplineSet
310 742 m 1,0,-1
 288 713 l 1,1,-1
 288 463 l 1,2,-1
 510 463 l 1,3,-1
 472 390 l 1,4,-1
 288 390 l 1,5,-1
 288 164 l 1,6,-1
 288 132 l 2,7,8
 288 119 288 119 292 106 c 0,9,10
 296 92 296 92 302 85 c 0,11,12
 307 79 307 79 322 72 c 0,13,14
 333 67 333 67 354 67 c 0,15,16
 376 67 376 67 394 85 c 0,17,18
 413 104 413 104 420 121 c 2,19,-1
 427 139 l 1,20,-1
 427 208 l 1,21,-1
 501 134 l 1,22,23
 495 112 495 112 477 82 c 0,24,25
 458 50 458 50 424 23 c 0,26,27
 387 -6 387 -6 349 -6 c 0,28,29
 295 -6 295 -6 250 28 c 0,30,31
 206 61 206 61 206 119 c 2,32,-1
 206 390 l 1,33,-1
 78 390 l 1,34,-1
 78 463 l 1,35,-1
 206 463 l 1,36,-1
 206 713 l 1,37,-1
 178 742 l 1,38,-1
 310 742 l 1,0,-1
EndSplineSet
Validated: 3073
EndChar

StartChar: u
Encoding: 117 117 84
Width: 588
VWidth: 1024
Flags: W
HStem: -6 73<225.661 358.745> 453 20G<67 198 393 520>
VStem: 90 82<130.903 442> 416 82<15 63 134.133 442>
LayerCount: 2
Fore
SplineSet
520 473 m 25,0,-1
 498 442 l 1,1,-1
 498 15 l 1,2,-1
 522 -6 l 1,3,-1
 416 -6 l 1,4,-1
 416 63 l 1,5,6
 353 -6 353 -6 289 -6 c 0,7,8
 190 -6 190 -6 140 66 c 0,9,10
 90 139 90 139 90 242 c 2,11,-1
 90 442 l 1,12,-1
 67 473 l 1,13,-1
 198 473 l 1,14,-1
 172 442 l 1,15,-1
 172 248 l 2,16,17
 172 163 172 163 202 115 c 128,-1,18
 232 67 232 67 289 67 c 0,19,20
 353 67 353 67 384 116 c 0,21,22
 416 166 416 166 416 248 c 2,23,-1
 416 442 l 1,24,-1
 393 473 l 1,25,-1
 520 473 l 25,0,-1
EndSplineSet
Validated: 3073
EndChar

StartChar: v
Encoding: 118 118 85
Width: 588
VWidth: 1024
Flags: W
HStem: -6 21G<258.5 331.5> 453 20G<68 202 385 521>
VStem: 93 82<260.25 441> 414 82<261.125 441>
LayerCount: 2
Fore
SplineSet
521 473 m 29,0,-1
 496 441 l 1,1,-1
 496 369 l 2,2,3
 496 289 496 289 432 163 c 128,-1,4
 368 37 368 37 295 -6 c 1,5,6
 222 37 222 37 157 163 c 0,7,8
 93 287 93 287 93 369 c 2,9,-1
 93 441 l 1,10,-1
 68 473 l 1,11,-1
 202 473 l 1,12,-1
 175 441 l 1,13,-1
 175 369 l 2,14,15
 175 313 175 313 214 213 c 0,16,17
 254 111 254 111 295 75 c 1,18,19
 337 113 337 113 376 213 c 0,20,21
 414 311 414 311 414 369 c 2,22,-1
 414 441 l 1,23,-1
 385 473 l 1,24,-1
 521 473 l 29,0,-1
EndSplineSet
Validated: 3073
EndChar

StartChar: w
Encoding: 119 119 86
Width: 588
VWidth: 1024
Flags: W
HStem: -6 21G<126 235 380 467> 453 20G<33 161 228 357 427 556>
VStem: 55 82<102.775 441> 254 81<115.562 441> 452 82<101.734 441>
CounterMasks: 1 38
LayerCount: 2
Fore
SplineSet
556 473 m 25,0,-1
 534 441 l 1,1,-1
 534 217 l 2,2,3
 534 38 534 38 400 -6 c 1,4,5
 360 14 360 14 332 39 c 128,-1,6
 304 64 304 64 294 99 c 1,7,8
 273 31 273 31 197 -6 c 1,9,10
 55 40 55 40 55 217 c 2,11,-1
 55 441 l 1,12,-1
 33 473 l 1,13,-1
 161 473 l 1,14,-1
 137 441 l 1,15,-1
 137 217 l 2,16,17
 137 155 137 155 147 125 c 0,18,19
 158 93 158 93 197 67 c 1,20,21
 235 102 235 102 244 130 c 0,22,23
 254 162 254 162 254 217 c 2,24,-1
 254 441 l 1,25,-1
 228 473 l 1,26,-1
 357 473 l 1,27,-1
 335 441 l 1,28,-1
 335 217 l 2,29,30
 335 166 335 166 348 133 c 0,31,32
 360 102 360 102 400 67 c 1,33,34
 423 82 423 82 436 109 c 128,-1,35
 449 136 449 136 450 153 c 0,36,37
 450 159 450 159 450.5 168 c 128,-1,38
 451 177 451 177 451.5 191.5 c 128,-1,39
 452 206 452 206 452 217 c 2,40,-1
 452 441 l 1,41,-1
 427 473 l 1,42,-1
 556 473 l 25,0,-1
EndSplineSet
Validated: 3073
EndChar

StartChar: x
Encoding: 120 120 87
Width: 588
VWidth: 1024
Flags: W
HStem: 469 20G<141.556 164.381 422.619 445.444>
LayerCount: 2
Fore
SplineSet
292 292 m 1,0,-1
 420 447 l 1,1,-1
 425 489 l 1,2,-1
 517 399 l 1,3,-1
 478 394 l 1,4,-1
 346 236 l 1,5,-1
 477 78 l 1,6,-1
 517 74 l 1,7,-1
 425 -27 l 1,8,-1
 420 25 l 1,9,-1
 292 180 l 1,10,-1
 167 25 l 1,11,-1
 162 -27 l 1,12,-1
 70 74 l 1,13,-1
 110 78 l 1,14,-1
 241 236 l 1,15,-1
 109 394 l 1,16,-1
 70 399 l 1,17,-1
 162 489 l 1,18,-1
 167 447 l 1,19,-1
 292 292 l 1,0,-1
EndSplineSet
Validated: 3073
EndChar

StartChar: y
Encoding: 121 121 88
Width: 588
VWidth: 1024
Flags: W
HStem: -205 73<204.33 370.235> 41 73<218.268 362.987> 453 20G<69 201 391 519>
VStem: 92 82<162 442> 103 63<-95.3604 -59> 414 82<-87.0181 110 169.701 442>
LayerCount: 2
Fore
SplineSet
519 473 m 29,0,-1
 496 442 l 1,1,-1
 496 10 l 2,2,3
 496 -98 496 -98 442 -152 c 0,4,5
 389 -205 389 -205 288 -205 c 0,6,7
 218 -203 218 -203 162 -166 c 0,8,9
 106 -128 106 -128 103 -59 c 1,10,-1
 166 -23 l 1,11,12
 166 -132 166 -132 288 -132 c 0,13,14
 357 -132 357 -132 387 -95 c 128,-1,15
 417 -58 417 -58 417 20 c 2,16,-1
 417 110 l 1,17,18
 405 76 405 76 366 58 c 0,19,20
 329 41 329 41 288 41 c 0,21,22
 189 41 189 41 140 108 c 0,23,24
 92 174 92 174 92 272 c 2,25,-1
 92 442 l 1,26,-1
 69 473 l 1,27,-1
 201 473 l 1,28,-1
 174 442 l 1,29,-1
 174 272 l 2,30,31
 174 189 174 189 202 152 c 0,32,33
 231 114 231 114 288 114 c 0,34,35
 414 114 414 114 414 272 c 2,36,-1
 414 442 l 1,37,-1
 391 473 l 1,38,-1
 519 473 l 29,0,-1
EndSplineSet
Validated: 3073
EndChar

StartChar: z
Encoding: 122 122 89
Width: 588
VWidth: 1024
Flags: W
HStem: 399 72<152.326 393>
VStem: 82 70<353.169 394.863> 433 69<43 103.684>
LayerCount: 2
Fore
SplineSet
517 471 m 21,0,1
 514 366 514 366 174 78 c 1,2,-1
 396 65 l 1,3,4
 433 72 433 72 433 84 c 0,5,6
 433 92 433 92 421 97 c 0,7,8
 409 101 409 101 409 111 c 0,9,10
 409 124 409 124 433 124 c 0,11,12
 466 124 466 124 484 106 c 128,-1,13
 502 88 502 88 502 67 c 0,14,15
 501 19 501 19 464 -1 c 0,16,17
 439 -14 439 -14 407 -14 c 0,18,19
 239 5 239 5 152 5 c 0,20,21
 72 5 72 5 72 78 c 1,22,23
 98 111 98 111 166 172 c 0,24,25
 268 263 268 263 306 298 c 0,26,27
 373 359 373 359 393 399 c 1,28,-1
 187 399 l 1,29,30
 152 391 152 391 152 380 c 0,31,32
 152 372 152 372 163 366 c 128,-1,33
 174 360 174 360 174 351 c 0,34,35
 174 337 174 337 152 337 c 0,36,37
 121 337 121 337 101 354 c 0,38,39
 82 370 82 370 82 393 c 0,40,41
 84 437 84 437 122 457 c 0,42,43
 150 471 150 471 177 471 c 2,44,-1
 517 471 l 21,0,1
EndSplineSet
Validated: 3073
EndChar

StartChar: braceleft
Encoding: 123 123 90
Width: 588
VWidth: 1024
Flags: W
HStem: -146 93<332.562 395> 796 92<333.856 395>
LayerCount: 2
Fore
SplineSet
235 372 m 5,0,1
 252 344 252 344 281 306 c 0,2,3
 307 273 307 273 330 238 c 0,4,5
 347 212 347 212 347 189 c 1,6,-1
 312 0 l 2,7,8
 312 -1 312 -1 319 -14 c 0,9,10
 340 -53 340 -53 395 -53 c 1,11,-1
 395 -146 l 1,12,13
 358 -146 358 -146 321 -128 c 0,14,15
 283 -110 283 -110 246 -58 c 0,16,17
 232 -37 232 -37 226 -24 c 2,18,-1
 222 -11 l 1,19,20
 255 156 255 156 255 182 c 0,21,22
 255 210 255 210 236 236 c 0,23,24
 209 273 209 273 182 305 c 0,25,26
 146 347 146 347 130 372 c 1,27,28
 143 393 143 393 182 438 c 0,29,30
 214 476 214 476 236 506 c 0,31,32
 256 534 256 534 256 561 c 0,33,34
 256 590 256 590 222 754 c 1,35,-1
 226 767 l 2,36,37
 228 775 228 775 246 801 c 0,38,39
 304 888 304 888 395 888 c 1,40,-1
 395 796 l 1,41,42
 342 796 342 796 319 758 c 0,43,44
 312 745 312 745 312 743 c 2,45,-1
 347 554 l 1,46,47
 347 532 347 532 330 506 c 0,48,49
 307 471 307 471 281 438 c 0,50,51
 252 400 252 400 235 372 c 5,0,1
EndSplineSet
Validated: 3073
EndChar

StartChar: bar
Encoding: 124 124 91
Width: 588
VWidth: 1024
Flags: W
VStem: 253 82<-146 888>
LayerCount: 2
Fore
SplineSet
335 888 m 29,0,-1
 335 -146 l 1,1,-1
 253 -146 l 1,2,-1
 253 888 l 1,3,-1
 335 888 l 29,0,-1
EndSplineSet
Validated: 3073
EndChar

StartChar: braceright
Encoding: 125 125 92
Width: 588
VWidth: 1024
Flags: W
HStem: -146 93<193 256.352> 796 92<193 254.144>
LayerCount: 2
Fore
SplineSet
353 372 m 5,0,1
 336 400 336 400 307 438 c 0,2,3
 281 471 281 471 258 506 c 0,4,5
 241 531 241 531 241 554 c 1,6,-1
 276 743 l 2,7,8
 276 745 276 745 269 758 c 0,9,10
 246 796 246 796 193 796 c 1,11,-1
 193 888 l 1,12,13
 284 888 284 888 342 801 c 0,14,15
 360 775 360 775 362 767 c 2,16,-1
 366 754 l 1,17,18
 332 590 332 590 332 561 c 0,19,20
 332 534 332 534 352 506 c 0,21,22
 374 476 374 476 406 438 c 0,23,24
 445 393 445 393 458 372 c 1,25,26
 442 347 442 347 406 305 c 0,27,28
 379 273 379 273 352 236 c 0,29,30
 333 210 333 210 333 182 c 0,31,32
 333 156 333 156 366 -11 c 1,33,-1
 362 -24 l 2,34,35
 356 -37 356 -37 342 -58 c 0,36,37
 305 -110 305 -110 267 -128 c 128,-1,38
 229 -146 229 -146 193 -146 c 1,39,-1
 193 -53 l 1,40,41
 248 -53 248 -53 269 -14 c 0,42,43
 276 -1 276 -1 276 0 c 2,44,-1
 241 189 l 1,45,46
 241 212 241 212 258 238 c 0,47,48
 281 273 281 273 307 306 c 0,49,50
 336 344 336 344 353 372 c 5,0,1
EndSplineSet
Validated: 3073
EndChar

StartChar: asciitilde
Encoding: 126 126 93
Width: 588
VWidth: 1024
Flags: W
HStem: 293 73<349.43 455.516> 391 72<132.049 238.211>
LayerCount: 2
Fore
SplineSet
505 424 m 1,0,1
 536 424 536 424 536 387 c 0,2,3
 536 361 536 361 491 327 c 0,4,5
 447 293 447 293 404 293 c 0,6,7
 379 293 379 293 290 342 c 128,-1,8
 201 391 201 391 185 391 c 0,9,10
 169 389 169 389 144 376 c 128,-1,11
 119 363 119 363 100 347 c 2,12,-1
 82 332 l 1,13,14
 54 332 54 332 54 369 c 0,15,16
 54 395 54 395 98 429 c 128,-1,17
 142 463 142 463 185 463 c 0,18,19
 206 463 206 463 298 414 c 0,20,21
 388 366 388 366 404 366 c 0,22,23
 418 366 418 366 444 380 c 0,24,25
 466 394 466 394 487 410 c 2,26,-1
 505 424 l 1,0,1
EndSplineSet
Validated: 3073
EndChar

StartChar: periodcentered
Encoding: 183 183 95
Width: 588
VWidth: 1024
Flags: W
HStem: 329 102<261.408 326.592>
VStem: 247 94<343.501 416.499>
LayerCount: 2
Fore
SplineSet
294 431 m 156,-1,1
 314 431 314 431 327 417 c 0,2,3
 341 401 341 401 341 380 c 128,-1,4
 341 359 341 359 327 343 c 0,5,6
 314 329 314 329 294 329 c 128,-1,7
 274 329 274 329 261 343 c 0,8,9
 247 359 247 359 247 380 c 128,-1,10
 247 401 247 401 261 417 c 0,11,0
 274 431 274 431 294 431 c 156,-1,1
EndSplineSet
Validated: 3073
EndChar

StartChar: exclamdown
Encoding: 161 161 97
Width: 588
VWidth: 1024
Flags: W
HStem: 2 21G<284 305.5> 625 132<243.689 344.826>
VStem: 221 146<645.111 737.92> 231 125<8.78296 314.961> 242 103.5<29.9552 556.978> 253 82<301.647 568.943>
LayerCount: 2
Fore
SplineSet
367 692 m 0,0,1
 367 664 367 664 345.5 644.5 c 128,-1,2
 324 625 324 625 295 625 c 0,3,4
 265 625 265 625 243 644 c 128,-1,5
 221 663 221 663 221 692 c 0,6,7
 221 720 221 720 243 738.5 c 128,-1,8
 265 757 265 757 295 757 c 128,-1,9
 325 757 325 757 346 739 c 128,-1,10
 367 721 367 721 367 692 c 0,0,1
356 29 m 0,11,12
 356 16 356 16 336 9 c 128,-1,13
 316 2 316 2 295 2 c 0,14,15
 273 2 273 2 252 9 c 128,-1,16
 231 16 231 16 231 29 c 0,17,18
 231 57 231 57 242 287 c 128,-1,19
 253 517 253 517 253 545 c 0,20,21
 253 571 253 571 295 571 c 0,22,23
 335 571 335 571 335 545 c 0,24,25
 335 517 335 517 345.5 287.5 c 128,-1,26
 356 58 356 58 356 29 c 0,11,12
EndSplineSet
Validated: 3073
EndChar

StartChar: SF430000
Encoding: 9552 9552 98
Width: 588
VWidth: 1024
Flags: W
HStem: 253 74<0 588> 401 73<0 588>
LayerCount: 2
Fore
SplineSet
0 401 m 1,0,-1
 0 474 l 1,1,-1
 588 474 l 1,2,-1
 588 401 l 1,3,-1
 0 401 l 1,0,-1
0 253 m 1,4,-1
 0 327 l 1,5,-1
 588 327 l 1,6,-1
 588 253 l 1,7,-1
 0 253 l 1,4,-1
EndSplineSet
Validated: 3073
EndChar

StartChar: SF240000
Encoding: 9553 9553 99
Width: 588
VWidth: 1024
Flags: W
VStem: 162 94<-277 1004> 332 94<-277 1004>
LayerCount: 2
Fore
SplineSet
256 -277 m 1,0,-1
 162 -277 l 1,1,-1
 162 1004 l 1,2,-1
 256 1004 l 1,3,-1
 256 -277 l 1,0,-1
426 -277 m 1,4,-1
 332 -277 l 1,5,-1
 332 1004 l 1,6,-1
 426 1004 l 1,7,-1
 426 -277 l 1,4,-1
EndSplineSet
Validated: 3073
EndChar

StartChar: SF510000
Encoding: 9554 9554 100
Width: 588
VWidth: 1024
Flags: W
HStem: 253 74<341 588> 401 73<341 588>
VStem: 247 94<-277 253 327 401>
LayerCount: 2
Fore
SplineSet
247 -277 m 1,0,-1
 247 474 l 1,1,-1
 588 474 l 1,2,-1
 588 401 l 1,3,-1
 341 401 l 1,4,-1
 341 327 l 1,5,-1
 588 327 l 1,6,-1
 588 253 l 1,7,-1
 341 253 l 1,8,-1
 341 -277 l 1,9,-1
 247 -277 l 1,0,-1
EndSplineSet
Validated: 3073
EndChar

StartChar: SF520000
Encoding: 9555 9555 101
Width: 588
VWidth: 1024
Flags: W
HStem: 327 74<256 332 426 588>
VStem: 162 94<-277 327> 332 94<-277 327>
LayerCount: 2
Fore
SplineSet
162 -277 m 1,0,-1
 162 401 l 1,1,-1
 588 401 l 1,2,-1
 588 327 l 1,3,-1
 426 327 l 1,4,-1
 426 -277 l 1,5,-1
 332 -277 l 1,6,-1
 332 327 l 1,7,-1
 256 327 l 1,8,-1
 256 -277 l 1,9,-1
 162 -277 l 1,0,-1
EndSplineSet
Validated: 3073
EndChar

StartChar: SF390000
Encoding: 9556 9556 102
Width: 588
VWidth: 1024
Flags: W
HStem: 253 74<426 588> 401 73<256 588>
VStem: 162 94<-277 401> 332 94<-277 253>
LayerCount: 2
Fore
SplineSet
256 -277 m 1,0,-1
 162 -277 l 1,1,-1
 162 474 l 1,2,-1
 588 474 l 1,3,-1
 588 401 l 1,4,-1
 256 401 l 1,5,-1
 256 -277 l 1,0,-1
332 -277 m 1,6,-1
 332 327 l 1,7,-1
 588 327 l 1,8,-1
 588 253 l 1,9,-1
 426 253 l 1,10,-1
 426 -277 l 1,11,-1
 332 -277 l 1,6,-1
EndSplineSet
Validated: 3073
EndChar

StartChar: SF220000
Encoding: 9557 9557 103
Width: 588
VWidth: 1024
Flags: W
HStem: 253 74<0 247> 401 73<0 247>
VStem: 247 94<-277 253 327 401>
LayerCount: 2
Fore
SplineSet
341 -277 m 1,0,-1
 247 -277 l 1,1,-1
 247 253 l 1,2,-1
 0 253 l 1,3,-1
 0 327 l 1,4,-1
 247 327 l 1,5,-1
 247 401 l 1,6,-1
 0 401 l 1,7,-1
 0 474 l 1,8,-1
 341 474 l 1,9,-1
 341 -277 l 1,0,-1
EndSplineSet
Validated: 3073
EndChar

StartChar: SF210000
Encoding: 9558 9558 104
Width: 588
VWidth: 1024
Flags: W
HStem: 327 74<0 162 256 332>
VStem: 162 94<-277 327> 332 94<-277 327>
LayerCount: 2
Fore
SplineSet
256 -277 m 1,0,-1
 162 -277 l 1,1,-1
 162 327 l 1,2,-1
 0 327 l 1,3,-1
 0 401 l 1,4,-1
 426 401 l 1,5,-1
 426 -277 l 1,6,-1
 332 -277 l 1,7,-1
 332 327 l 1,8,-1
 256 327 l 1,9,-1
 256 -277 l 1,0,-1
EndSplineSet
Validated: 3073
EndChar

StartChar: SF250000
Encoding: 9559 9559 105
Width: 588
VWidth: 1024
Flags: W
HStem: 253 74<0 162> 401 73<0 332>
VStem: 162 94<-277 253> 332 94<-277 401>
LayerCount: 2
Fore
SplineSet
426 -277 m 1,0,-1
 332 -277 l 1,1,-1
 332 401 l 1,2,-1
 0 401 l 1,3,-1
 0 474 l 1,4,-1
 426 474 l 1,5,-1
 426 -277 l 1,0,-1
256 -277 m 1,6,-1
 162 -277 l 1,7,-1
 162 253 l 1,8,-1
 0 253 l 1,9,-1
 0 327 l 1,10,-1
 256 327 l 1,11,-1
 256 -277 l 1,6,-1
EndSplineSet
Validated: 3073
EndChar

StartChar: SF500000
Encoding: 9560 9560 106
Width: 588
VWidth: 1024
Flags: W
HStem: 253 74<341 588> 401 73<341 588>
VStem: 247 94<327 401 474 1004>
LayerCount: 2
Fore
SplineSet
588 253 m 1,0,-1
 247 253 l 1,1,-1
 247 1004 l 1,2,-1
 341 1004 l 1,3,-1
 341 474 l 1,4,-1
 588 474 l 1,5,-1
 588 401 l 1,6,-1
 341 401 l 1,7,-1
 341 327 l 1,8,-1
 588 327 l 1,9,-1
 588 253 l 1,0,-1
EndSplineSet
Validated: 3073
EndChar

StartChar: SF490000
Encoding: 9561 9561 107
Width: 588
VWidth: 1024
Flags: W
HStem: 327 74<256 332 426 588>
VStem: 162 94<401 1004> 332 94<401 1004>
LayerCount: 2
Fore
SplineSet
162 327 m 1,0,-1
 162 1004 l 1,1,-1
 256 1004 l 1,2,-1
 256 401 l 1,3,-1
 332 401 l 1,4,-1
 332 1004 l 1,5,-1
 426 1004 l 1,6,-1
 426 401 l 1,7,-1
 588 401 l 1,8,-1
 588 327 l 1,9,-1
 162 327 l 1,0,-1
EndSplineSet
Validated: 3073
EndChar

StartChar: SF280000
Encoding: 9563 9563 108
Width: 588
VWidth: 1024
Flags: W
HStem: 253 74<0 247> 401 73<0 247>
VStem: 247 94<327 401 474 1004>
LayerCount: 2
Fore
SplineSet
0 253 m 1,0,-1
 0 327 l 1,1,-1
 247 327 l 1,2,-1
 247 401 l 1,3,-1
 0 401 l 1,4,-1
 0 474 l 1,5,-1
 247 474 l 1,6,-1
 247 1004 l 1,7,-1
 341 1004 l 1,8,-1
 341 253 l 1,9,-1
 0 253 l 1,0,-1
EndSplineSet
Validated: 3073
EndChar

StartChar: SF270000
Encoding: 9564 9564 109
Width: 588
VWidth: 1024
Flags: W
HStem: 327 74<0 162 256 332>
VStem: 162 94<401 1004> 332 94<401 1004>
LayerCount: 2
Fore
SplineSet
0 327 m 1,0,-1
 0 401 l 1,1,-1
 162 401 l 1,2,-1
 162 1004 l 1,3,-1
 256 1004 l 1,4,-1
 256 401 l 1,5,-1
 332 401 l 1,6,-1
 332 1004 l 1,7,-1
 426 1004 l 1,8,-1
 426 327 l 1,9,-1
 0 327 l 1,0,-1
EndSplineSet
Validated: 3073
EndChar

StartChar: SF260000
Encoding: 9565 9565 110
Width: 588
VWidth: 1024
Flags: W
HStem: 253 74<0 332> 401 73<0 162>
VStem: 162 94<474 1004> 332 94<327 1004>
LayerCount: 2
Fore
SplineSet
0 401 m 1,0,-1
 0 474 l 1,1,-1
 162 474 l 1,2,-1
 162 1004 l 1,3,-1
 256 1004 l 1,4,-1
 256 401 l 1,5,-1
 0 401 l 1,0,-1
0 253 m 1,6,-1
 0 327 l 1,7,-1
 332 327 l 1,8,-1
 332 1004 l 1,9,-1
 426 1004 l 1,10,-1
 426 253 l 1,11,-1
 0 253 l 1,6,-1
EndSplineSet
Validated: 3073
EndChar

StartChar: SF360000
Encoding: 9566 9566 111
Width: 588
VWidth: 1024
Flags: W
HStem: 253 74<341 588> 401 73<341 588>
VStem: 247 94<-277 253 327 401 474 1004>
LayerCount: 2
Fore
SplineSet
247 -277 m 1,0,-1
 247 1004 l 1,1,-1
 341 1004 l 1,2,-1
 341 474 l 1,3,-1
 588 474 l 1,4,-1
 588 401 l 1,5,-1
 341 401 l 1,6,-1
 341 327 l 1,7,-1
 588 327 l 1,8,-1
 588 253 l 1,9,-1
 341 253 l 1,10,-1
 341 -277 l 1,11,-1
 247 -277 l 1,0,-1
EndSplineSet
Validated: 3073
EndChar

StartChar: SF370000
Encoding: 9567 9567 112
Width: 588
VWidth: 1024
Flags: W
HStem: 327 74<426 588>
VStem: 162 94<-277 1004> 332 94<-277 327 401 1004>
LayerCount: 2
Fore
SplineSet
256 -277 m 1,0,-1
 162 -277 l 1,1,-1
 162 1004 l 1,2,-1
 256 1004 l 1,3,-1
 256 -277 l 1,0,-1
332 -277 m 1,4,-1
 332 1004 l 1,5,-1
 426 1004 l 1,6,-1
 426 401 l 1,7,-1
 588 401 l 1,8,-1
 588 327 l 1,9,-1
 426 327 l 1,10,-1
 426 -277 l 1,11,-1
 332 -277 l 1,4,-1
EndSplineSet
Validated: 3073
EndChar

StartChar: SF420000
Encoding: 9568 9568 113
Width: 588
VWidth: 1024
Flags: W
HStem: 253 74<426 588> 401 73<426 588>
VStem: 162 94<-277 1004> 332 94<-277 253 474 1004>
LayerCount: 2
Fore
SplineSet
256 -277 m 1,0,-1
 162 -277 l 1,1,-1
 162 1004 l 1,2,-1
 256 1004 l 1,3,-1
 256 -277 l 1,0,-1
332 401 m 1,4,-1
 332 1004 l 1,5,-1
 426 1004 l 1,6,-1
 426 474 l 1,7,-1
 588 474 l 1,8,-1
 588 401 l 1,9,-1
 332 401 l 1,4,-1
332 -277 m 1,10,-1
 332 327 l 1,11,-1
 588 327 l 1,12,-1
 588 253 l 1,13,-1
 426 253 l 1,14,-1
 426 -277 l 1,15,-1
 332 -277 l 1,10,-1
EndSplineSet
Validated: 3073
EndChar

StartChar: SF190000
Encoding: 9569 9569 114
Width: 588
VWidth: 1024
Flags: W
HStem: 253 74<0 247> 401 73<0 247>
VStem: 247 94<-277 253 327 401 474 1004>
LayerCount: 2
Fore
SplineSet
341 -277 m 1,0,-1
 247 -277 l 1,1,-1
 247 253 l 1,2,-1
 0 253 l 1,3,-1
 0 327 l 1,4,-1
 247 327 l 1,5,-1
 247 401 l 1,6,-1
 0 401 l 1,7,-1
 0 474 l 1,8,-1
 247 474 l 1,9,-1
 247 1004 l 1,10,-1
 341 1004 l 1,11,-1
 341 -277 l 1,0,-1
EndSplineSet
Validated: 3073
EndChar

StartChar: SF200000
Encoding: 9570 9570 115
Width: 588
VWidth: 1024
Flags: W
HStem: 327 74<0 162>
VStem: 162 94<-277 327 401 1004> 332 94<-277 1004>
LayerCount: 2
Fore
SplineSet
256 -277 m 1,0,-1
 162 -277 l 1,1,-1
 162 327 l 1,2,-1
 0 327 l 1,3,-1
 0 401 l 1,4,-1
 162 401 l 1,5,-1
 162 1004 l 1,6,-1
 256 1004 l 1,7,-1
 256 -277 l 1,0,-1
426 -277 m 1,8,-1
 332 -277 l 1,9,-1
 332 1004 l 1,10,-1
 426 1004 l 1,11,-1
 426 -277 l 1,8,-1
EndSplineSet
Validated: 3073
EndChar

StartChar: SF230000
Encoding: 9571 9571 116
Width: 588
VWidth: 1024
Flags: W
HStem: 253 74<0 162> 401 73<0 162>
VStem: 162 94<-277 253 474 1004> 332 94<-277 1004>
LayerCount: 2
Fore
SplineSet
0 401 m 1,0,-1
 0 474 l 1,1,-1
 162 474 l 1,2,-1
 162 1004 l 1,3,-1
 256 1004 l 1,4,-1
 256 401 l 1,5,-1
 0 401 l 1,0,-1
426 -277 m 1,6,-1
 332 -277 l 1,7,-1
 332 1004 l 1,8,-1
 426 1004 l 1,9,-1
 426 -277 l 1,6,-1
256 -277 m 1,10,-1
 162 -277 l 1,11,-1
 162 253 l 1,12,-1
 0 253 l 1,13,-1
 0 327 l 1,14,-1
 256 327 l 1,15,-1
 256 -277 l 1,10,-1
EndSplineSet
Validated: 3073
EndChar

StartChar: SF470000
Encoding: 9572 9572 117
Width: 588
VWidth: 1024
Flags: W
HStem: 253 74<0 247 341 588> 401 73<0 588>
VStem: 247 94<-277 253>
LayerCount: 2
Fore
SplineSet
0 401 m 1,0,-1
 0 474 l 1,1,-1
 588 474 l 1,2,-1
 588 401 l 1,3,-1
 0 401 l 1,0,-1
341 -277 m 1,4,-1
 247 -277 l 1,5,-1
 247 253 l 1,6,-1
 0 253 l 1,7,-1
 0 327 l 1,8,-1
 588 327 l 1,9,-1
 588 253 l 1,10,-1
 341 253 l 1,11,-1
 341 -277 l 1,4,-1
EndSplineSet
Validated: 3073
EndChar

StartChar: SF480000
Encoding: 9573 9573 118
Width: 588
VWidth: 1024
Flags: W
HStem: 327 74<0 162 256 332 426 588>
VStem: 162 94<-277 327> 332 94<-277 327>
LayerCount: 2
Fore
SplineSet
256 -277 m 1,0,-1
 162 -277 l 1,1,-1
 162 327 l 1,2,-1
 0 327 l 1,3,-1
 0 401 l 1,4,-1
 588 401 l 1,5,-1
 588 327 l 1,6,-1
 426 327 l 1,7,-1
 426 -277 l 1,8,-1
 332 -277 l 1,9,-1
 332 327 l 1,10,-1
 256 327 l 1,11,-1
 256 -277 l 1,0,-1
EndSplineSet
Validated: 3073
EndChar

StartChar: SF410000
Encoding: 9574 9574 119
Width: 588
VWidth: 1024
Flags: W
HStem: 253 74<0 162 426 588> 401 73<0 588>
VStem: 162 94<-277 253> 332 94<-277 253>
LayerCount: 2
Fore
SplineSet
0 401 m 1,0,-1
 0 474 l 1,1,-1
 588 474 l 1,2,-1
 588 401 l 1,3,-1
 0 401 l 1,0,-1
256 -277 m 1,4,-1
 162 -277 l 1,5,-1
 162 253 l 1,6,-1
 0 253 l 1,7,-1
 0 327 l 1,8,-1
 256 327 l 1,9,-1
 256 -277 l 1,4,-1
332 -277 m 1,10,-1
 332 327 l 1,11,-1
 588 327 l 1,12,-1
 588 253 l 1,13,-1
 426 253 l 1,14,-1
 426 -277 l 1,15,-1
 332 -277 l 1,10,-1
EndSplineSet
Validated: 3073
EndChar

StartChar: SF450000
Encoding: 9575 9575 120
Width: 588
VWidth: 1024
Flags: W
HStem: 253 74<0 588> 401 73<0 247 341 588>
VStem: 247 94<474 1004>
LayerCount: 2
Fore
SplineSet
0 401 m 1,0,-1
 0 474 l 1,1,-1
 247 474 l 1,2,-1
 247 1004 l 1,3,-1
 341 1004 l 1,4,-1
 341 474 l 1,5,-1
 588 474 l 1,6,-1
 588 401 l 1,7,-1
 0 401 l 1,0,-1
0 253 m 1,8,-1
 0 327 l 1,9,-1
 588 327 l 1,10,-1
 588 253 l 1,11,-1
 0 253 l 1,8,-1
EndSplineSet
Validated: 3073
EndChar

StartChar: SF460000
Encoding: 9576 9576 121
Width: 588
VWidth: 1024
Flags: W
HStem: 327 74<0 162 256 332 426 588>
VStem: 162 94<401 1004> 332 94<401 1004>
LayerCount: 2
Fore
SplineSet
0 327 m 1,0,-1
 0 401 l 1,1,-1
 162 401 l 1,2,-1
 162 1004 l 1,3,-1
 256 1004 l 1,4,-1
 256 401 l 1,5,-1
 332 401 l 1,6,-1
 332 1004 l 1,7,-1
 426 1004 l 1,8,-1
 426 401 l 1,9,-1
 588 401 l 1,10,-1
 588 327 l 1,11,-1
 0 327 l 1,0,-1
EndSplineSet
Validated: 3073
EndChar

StartChar: SF400000
Encoding: 9577 9577 122
Width: 588
VWidth: 1024
Flags: W
HStem: 253 74<0 588> 401 73<0 162 426 588>
VStem: 162 94<474 1004> 332 94<474 1004>
LayerCount: 2
Fore
SplineSet
0 401 m 1,0,-1
 0 474 l 1,1,-1
 162 474 l 1,2,-1
 162 1004 l 1,3,-1
 256 1004 l 1,4,-1
 256 401 l 1,5,-1
 0 401 l 1,0,-1
332 401 m 1,6,-1
 332 1004 l 1,7,-1
 426 1004 l 1,8,-1
 426 474 l 1,9,-1
 588 474 l 1,10,-1
 588 401 l 1,11,-1
 332 401 l 1,6,-1
0 253 m 1,12,-1
 0 327 l 1,13,-1
 588 327 l 1,14,-1
 588 253 l 1,15,-1
 0 253 l 1,12,-1
EndSplineSet
Validated: 3073
EndChar

StartChar: SF540000
Encoding: 9578 9578 123
Width: 588
VWidth: 1024
Flags: W
HStem: 253 74<0 247 341 588> 401 73<0 247 341 588>
VStem: 247 94<-277 253 474 1004>
LayerCount: 2
Fore
SplineSet
0 401 m 1,0,-1
 0 474 l 1,1,-1
 247 474 l 1,2,-1
 247 1004 l 1,3,-1
 341 1004 l 1,4,-1
 341 474 l 1,5,-1
 588 474 l 1,6,-1
 588 401 l 1,7,-1
 0 401 l 1,0,-1
341 -277 m 1,8,-1
 247 -277 l 1,9,-1
 247 253 l 1,10,-1
 0 253 l 1,11,-1
 0 327 l 1,12,-1
 588 327 l 1,13,-1
 588 253 l 1,14,-1
 341 253 l 1,15,-1
 341 -277 l 1,8,-1
EndSplineSet
Validated: 3073
EndChar

StartChar: SF530000
Encoding: 9579 9579 124
Width: 588
VWidth: 1024
Flags: W
HStem: 327 74<0 162 426 588>
VStem: 162 94<-277 327 401 1004> 332 94<-277 327 401 1004>
LayerCount: 2
Fore
SplineSet
256 -277 m 1,0,-1
 162 -277 l 1,1,-1
 162 327 l 1,2,-1
 0 327 l 1,3,-1
 0 401 l 1,4,-1
 162 401 l 1,5,-1
 162 1004 l 1,6,-1
 256 1004 l 1,7,-1
 256 -277 l 1,0,-1
332 -277 m 1,8,-1
 332 1004 l 1,9,-1
 426 1004 l 1,10,-1
 426 401 l 1,11,-1
 588 401 l 1,12,-1
 588 327 l 1,13,-1
 426 327 l 1,14,-1
 426 -277 l 1,15,-1
 332 -277 l 1,8,-1
EndSplineSet
Validated: 3073
EndChar

StartChar: SF440000
Encoding: 9580 9580 125
Width: 588
VWidth: 1024
Flags: W
HStem: 253 74<0 162 426 588> 401 73<0 162 426 588>
VStem: 162 94<-277 253 474 1004> 332 94<-277 253 474 1004>
LayerCount: 2
Fore
SplineSet
0 401 m 1,0,-1
 0 474 l 1,1,-1
 162 474 l 1,2,-1
 162 1004 l 1,3,-1
 256 1004 l 1,4,-1
 256 401 l 1,5,-1
 0 401 l 1,0,-1
332 401 m 1,6,-1
 332 1004 l 1,7,-1
 426 1004 l 1,8,-1
 426 474 l 1,9,-1
 588 474 l 1,10,-1
 588 401 l 1,11,-1
 332 401 l 1,6,-1
256 -277 m 1,12,-1
 162 -277 l 1,13,-1
 162 253 l 1,14,-1
 0 253 l 1,15,-1
 0 327 l 1,16,-1
 256 327 l 1,17,-1
 256 -277 l 1,12,-1
332 -277 m 1,18,-1
 332 327 l 1,19,-1
 588 327 l 1,20,-1
 588 253 l 1,21,-1
 426 253 l 1,22,-1
 426 -277 l 1,23,-1
 332 -277 l 1,18,-1
EndSplineSet
Validated: 3073
EndChar

StartChar: uni256D
Encoding: 9581 9581 126
Width: 588
VWidth: 1024
Flags: W
HStem: 327 74<456.206 588>
VStem: 247 94<-277 221.253>
LayerCount: 2
Fore
SplineSet
247 -277 m 1,0,-1
 247 124 l 2,1,2
 247 212 247 212 289 275 c 0,3,4
 325 331 325 331 390 364 c 0,5,6
 466 401 466 401 569 401 c 2,7,-1
 588 401 l 1,8,-1
 588 327 l 1,9,-1
 569 327 l 2,10,11
 499 327 499 327 445 301 c 0,12,13
 399 277 399 277 372 238 c 0,14,15
 341 191 341 191 341 124 c 2,16,-1
 341 -277 l 1,17,-1
 247 -277 l 1,0,-1
EndSplineSet
Validated: 3073
EndChar

StartChar: uni256E
Encoding: 9582 9582 127
Width: 588
VWidth: 1024
Flags: W
HStem: 327 74<0 131.794>
VStem: 247 94<-277 221.253>
LayerCount: 2
Fore
SplineSet
247 -277 m 1,0,-1
 247 124 l 2,1,2
 247 191 247 191 216 238 c 0,3,4
 189 277 189 277 143 301 c 0,5,6
 89 327 89 327 19 327 c 2,7,-1
 0 327 l 1,8,-1
 0 401 l 1,9,-1
 19 401 l 2,10,11
 122 401 122 401 198 364 c 0,12,13
 263 331 263 331 299 275 c 0,14,15
 341 212 341 212 341 124 c 2,16,-1
 341 -277 l 1,17,-1
 247 -277 l 1,0,-1
EndSplineSet
Validated: 3073
EndChar

StartChar: uni256F
Encoding: 9583 9583 128
Width: 588
VWidth: 1024
Flags: W
HStem: 327 74<0 131.191>
VStem: 247 94<507.433 1004>
LayerCount: 2
Fore
SplineSet
0 327 m 1,0,-1
 0 401 l 1,1,-1
 19 401 l 2,2,3
 90 401 90 401 143 428 c 0,4,5
 189 452 189 452 216 491 c 0,6,7
 247 537 247 537 247 604 c 2,8,-1
 247 1004 l 1,9,-1
 341 1004 l 1,10,-1
 341 604 l 2,11,12
 341 516 341 516 299 453 c 0,13,14
 262 396 262 396 198 365 c 0,15,16
 129 329 129 329 19 327 c 2,17,-1
 0 327 l 1,0,-1
EndSplineSet
Validated: 3073
EndChar

StartChar: uni2570
Encoding: 9584 9584 129
Width: 588
VWidth: 1024
Flags: W
HStem: 327 74<456.979 588>
VStem: 247 94<507.718 1004>
LayerCount: 2
Fore
SplineSet
569 327 m 2,0,1
 462 327 462 327 390 365 c 0,2,3
 324 399 324 399 289 453 c 0,4,5
 247 514 247 514 247 604 c 2,6,-1
 247 1004 l 1,7,-1
 341 1004 l 1,8,-1
 341 604 l 2,9,10
 341 538 341 538 372 491 c 0,11,12
 399 452 399 452 445 428 c 0,13,14
 498 401 498 401 569 401 c 2,15,-1
 588 401 l 1,16,-1
 588 327 l 1,17,-1
 569 327 l 2,0,1
EndSplineSet
Validated: 3073
EndChar

StartChar: upblock
Encoding: 9600 9600 130
Width: 588
VWidth: 1024
Flags: W
HStem: 364 640<0 588>
VStem: 0 588<364 1004>
LayerCount: 2
Fore
SplineSet
588 364 m 1,0,-1
 0 364 l 1,1,-1
 0 1004 l 1,2,-1
 588 1004 l 1,3,-1
 588 364 l 1,0,-1
EndSplineSet
Validated: 3073
EndChar

StartChar: uni2581
Encoding: 9601 9601 131
Width: 588
VWidth: 1024
Flags: W
HStem: -277 161<0 588>
LayerCount: 2
Fore
SplineSet
588 -277 m 1,0,-1
 0 -277 l 1,1,-1
 0 -116 l 1,2,-1
 588 -116 l 1,3,-1
 588 -277 l 1,0,-1
EndSplineSet
Validated: 3073
EndChar

StartChar: uni2582
Encoding: 9602 9602 132
Width: 588
VWidth: 1024
Flags: W
HStem: -277 321<0 588>
LayerCount: 2
Fore
SplineSet
588 -277 m 1,0,-1
 0 -277 l 1,1,-1
 0 44 l 1,2,-1
 588 44 l 1,3,-1
 588 -277 l 1,0,-1
EndSplineSet
Validated: 3073
EndChar

StartChar: uni2583
Encoding: 9603 9603 133
Width: 588
VWidth: 1024
Flags: W
HStem: -277 481<0 588>
VStem: 0 588<-277 204>
LayerCount: 2
Fore
SplineSet
588 -277 m 1,0,-1
 0 -277 l 1,1,-1
 0 204 l 1,2,-1
 588 204 l 1,3,-1
 588 -277 l 1,0,-1
EndSplineSet
Validated: 3073
EndChar

StartChar: dnblock
Encoding: 9604 9604 134
Width: 588
VWidth: 1024
Flags: W
HStem: -277 641<0 588>
VStem: 0 588<-277 364>
LayerCount: 2
Fore
SplineSet
588 -277 m 1,0,-1
 0 -277 l 1,1,-1
 0 364 l 1,2,-1
 588 364 l 1,3,-1
 588 -277 l 1,0,-1
EndSplineSet
Validated: 3073
EndChar

StartChar: uni2585
Encoding: 9605 9605 135
Width: 588
VWidth: 1024
Flags: W
VStem: 0 588<-277 525>
LayerCount: 2
Fore
SplineSet
588 -277 m 1,0,-1
 0 -277 l 1,1,-1
 0 525 l 1,2,-1
 588 525 l 1,3,-1
 588 -277 l 1,0,-1
EndSplineSet
Validated: 3073
EndChar

StartChar: uni2586
Encoding: 9606 9606 136
Width: 588
VWidth: 1024
Flags: W
VStem: 0 588<-277 684>
LayerCount: 2
Fore
SplineSet
588 -277 m 1,0,-1
 0 -277 l 1,1,-1
 0 684 l 1,2,-1
 588 684 l 1,3,-1
 588 -277 l 1,0,-1
EndSplineSet
Validated: 3073
EndChar

StartChar: uni2587
Encoding: 9607 9607 137
Width: 588
VWidth: 1024
Flags: W
VStem: 0 588<-277 844>
LayerCount: 2
Fore
SplineSet
588 -277 m 1,0,-1
 0 -277 l 1,1,-1
 0 844 l 1,2,-1
 588 844 l 1,3,-1
 588 -277 l 1,0,-1
EndSplineSet
Validated: 3073
EndChar

StartChar: block
Encoding: 9608 9608 138
Width: 588
VWidth: 1024
Flags: W
VStem: 0 588<-277 1004>
LayerCount: 2
Fore
SplineSet
588 -277 m 1,0,-1
 0 -277 l 1,1,-1
 0 1004 l 1,2,-1
 588 1004 l 1,3,-1
 588 -277 l 1,0,-1
EndSplineSet
Validated: 3073
EndChar

StartChar: uni2589
Encoding: 9609 9609 139
Width: 588
VWidth: 1024
Flags: W
VStem: 0 515<-277 1004>
LayerCount: 2
Fore
SplineSet
515 -277 m 1,0,-1
 0 -277 l 1,1,-1
 0 1004 l 1,2,-1
 515 1004 l 1,3,-1
 515 -277 l 1,0,-1
EndSplineSet
Validated: 3073
EndChar

StartChar: uni258A
Encoding: 9610 9610 140
Width: 588
VWidth: 1024
Flags: W
VStem: 0 441<-277 1004>
LayerCount: 2
Fore
SplineSet
441 -277 m 1,0,-1
 0 -277 l 1,1,-1
 0 1004 l 1,2,-1
 441 1004 l 1,3,-1
 441 -277 l 1,0,-1
EndSplineSet
Validated: 3073
EndChar

StartChar: uni258B
Encoding: 9611 9611 141
Width: 588
VWidth: 1024
Flags: W
VStem: 0 368<-277 1004>
LayerCount: 2
Fore
SplineSet
368 -277 m 1,0,-1
 0 -277 l 1,1,-1
 0 1004 l 1,2,-1
 368 1004 l 1,3,-1
 368 -277 l 1,0,-1
EndSplineSet
Validated: 3073
EndChar

StartChar: lfblock
Encoding: 9612 9612 142
Width: 588
VWidth: 1024
Flags: W
VStem: 0 294<-277 1004>
LayerCount: 2
Fore
SplineSet
294 -277 m 1,0,-1
 0 -277 l 1,1,-1
 0 1004 l 1,2,-1
 294 1004 l 1,3,-1
 294 -277 l 1,0,-1
EndSplineSet
Validated: 3073
EndChar

StartChar: uni258D
Encoding: 9613 9613 143
Width: 588
VWidth: 1024
Flags: W
VStem: 0 221<-277 1004>
LayerCount: 2
Fore
SplineSet
221 -277 m 1,0,-1
 0 -277 l 1,1,-1
 0 1004 l 1,2,-1
 221 1004 l 1,3,-1
 221 -277 l 1,0,-1
EndSplineSet
Validated: 3073
EndChar

StartChar: uni258E
Encoding: 9614 9614 144
Width: 588
VWidth: 1024
Flags: W
VStem: 0 147<-277 1004>
LayerCount: 2
Fore
SplineSet
147 -277 m 1,0,-1
 0 -277 l 1,1,-1
 0 1004 l 1,2,-1
 147 1004 l 1,3,-1
 147 -277 l 1,0,-1
EndSplineSet
Validated: 3073
EndChar

StartChar: uni258F
Encoding: 9615 9615 145
Width: 588
VWidth: 1024
Flags: W
VStem: 0 74<-277 1004>
LayerCount: 2
Fore
SplineSet
74 -277 m 1,0,-1
 0 -277 l 1,1,-1
 0 1004 l 1,2,-1
 74 1004 l 1,3,-1
 74 -277 l 1,0,-1
EndSplineSet
Validated: 3073
EndChar

StartChar: rtblock
Encoding: 9616 9616 146
Width: 588
VWidth: 1024
Flags: W
VStem: 294 294<-277 1004>
LayerCount: 2
Fore
SplineSet
588 -277 m 1,0,-1
 294 -277 l 1,1,-1
 294 1004 l 1,2,-1
 588 1004 l 1,3,-1
 588 -277 l 1,0,-1
EndSplineSet
Validated: 3073
EndChar

StartChar: ltshade
Encoding: 9617 9617 147
Width: 588
VWidth: 1024
Flags: W
LayerCount: 2
Fore
SplineSet
0 -277 m 1,0,-1
 0 -237 l 1,1,-1
 569 1004 l 1,2,-1
 588 1004 l 1,3,-1
 588 964 l 1,4,-1
 19 -277 l 1,5,-1
 0 -277 l 1,0,-1
0 324 m 1,6,-1
 0 404 l 1,7,-1
 275 1004 l 1,8,-1
 313 1004 l 1,9,-1
 0 324 l 1,6,-1
0 964 m 1,10,-1
 0 1004 l 1,11,-1
 19 1004 l 1,12,-1
 0 964 l 1,10,-1
275 -277 m 1,13,-1
 588 404 l 1,14,-1
 588 324 l 1,15,-1
 313 -277 l 1,16,-1
 275 -277 l 1,13,-1
569 -277 m 1,17,-1
 588 -237 l 1,18,-1
 588 -277 l 1,19,-1
 569 -277 l 1,17,-1
EndSplineSet
Validated: 3073
EndChar

StartChar: shade
Encoding: 9618 9618 148
Width: 588
VWidth: 1024
Flags: W
LayerCount: 2
Fore
SplineSet
0 -277 m 1,0,-1
 0 -237 l 1,1,-1
 569 1004 l 1,2,-1
 588 1004 l 1,3,-1
 588 964 l 1,4,-1
 19 -277 l 1,5,-1
 0 -277 l 1,0,-1
0 4 m 1,6,-1
 0 84 l 1,7,-1
 422 1004 l 1,8,-1
 460 1004 l 1,9,-1
 0 4 l 1,6,-1
0 324 m 1,10,-1
 0 404 l 1,11,-1
 275 1004 l 1,12,-1
 313 1004 l 1,13,-1
 0 324 l 1,10,-1
0 644 m 1,14,-1
 0 724 l 1,15,-1
 128 1004 l 1,16,-1
 166 1004 l 1,17,-1
 0 644 l 1,14,-1
0 964 m 1,18,-1
 0 1004 l 1,19,-1
 19 1004 l 1,20,-1
 0 964 l 1,18,-1
128 -277 m 1,21,-1
 588 724 l 1,22,-1
 588 644 l 1,23,-1
 166 -277 l 1,24,-1
 128 -277 l 1,21,-1
275 -277 m 1,25,-1
 588 404 l 1,26,-1
 588 324 l 1,27,-1
 313 -277 l 1,28,-1
 275 -277 l 1,25,-1
422 -277 m 1,29,-1
 588 84 l 1,30,-1
 588 4 l 1,31,-1
 460 -277 l 1,32,-1
 422 -277 l 1,29,-1
569 -277 m 1,33,-1
 588 -237 l 1,34,-1
 588 -277 l 1,35,-1
 569 -277 l 1,33,-1
EndSplineSet
Validated: 3073
EndChar

StartChar: dkshade
Encoding: 9619 9619 149
Width: 588
VWidth: 1024
Flags: W
HStem: 485 21G<0 9.21002>
LayerCount: 2
Fore
SplineSet
0 -277 m 1,0,-1
 0 -237 l 1,1,-1
 569 1004 l 1,2,-1
 588 1004 l 1,3,-1
 588 964 l 1,4,-1
 19 -277 l 1,5,-1
 0 -277 l 1,0,-1
0 -156 m 1,6,-1
 0 -76 l 1,7,-1
 496 1004 l 1,8,-1
 533 1004 l 1,9,-1
 0 -156 l 1,6,-1
0 4 m 1,10,-1
 0 84 l 1,11,-1
 422 1004 l 1,12,-1
 460 1004 l 1,13,-1
 0 4 l 1,10,-1
0 164 m 1,14,-1
 0 244 l 1,15,-1
 349 1004 l 1,16,-1
 386 1004 l 1,17,-1
 0 164 l 1,14,-1
0 324 m 1,18,-1
 0 404 l 1,19,-1
 275 1004 l 1,20,-1
 313 1004 l 1,21,-1
 0 324 l 1,18,-1
0 485 m 1,22,-1
 0 564 l 1,23,-1
 202 1004 l 1,24,-1
 239 1004 l 1,25,-1
 0 485 l 1,22,-1
0 644 m 1,26,-1
 0 724 l 1,27,-1
 128 1004 l 1,28,-1
 166 1004 l 1,29,-1
 0 644 l 1,26,-1
0 804 m 1,30,-1
 0 884 l 1,31,-1
 55 1004 l 1,32,-1
 92 1004 l 1,33,-1
 0 804 l 1,30,-1
0 964 m 1,34,-1
 0 1004 l 1,35,-1
 19 1004 l 1,36,-1
 0 964 l 1,34,-1
55 -277 m 1,37,-1
 588 884 l 1,38,-1
 588 804 l 1,39,-1
 92 -277 l 1,40,-1
 55 -277 l 1,37,-1
128 -277 m 1,41,-1
 588 724 l 1,42,-1
 588 644 l 1,43,-1
 166 -277 l 1,44,-1
 128 -277 l 1,41,-1
202 -277 m 1,45,-1
 588 564 l 1,46,-1
 588 485 l 1,47,-1
 239 -277 l 1,48,-1
 202 -277 l 1,45,-1
275 -277 m 1,49,-1
 588 404 l 1,50,-1
 588 324 l 1,51,-1
 313 -277 l 1,52,-1
 275 -277 l 1,49,-1
349 -277 m 1,53,-1
 588 244 l 1,54,-1
 588 164 l 1,55,-1
 386 -277 l 1,56,-1
 349 -277 l 1,53,-1
422 -277 m 1,57,-1
 588 84 l 1,58,-1
 588 4 l 1,59,-1
 460 -277 l 1,60,-1
 422 -277 l 1,57,-1
496 -277 m 1,61,-1
 588 -76 l 1,62,-1
 588 -156 l 1,63,-1
 533 -277 l 1,64,-1
 496 -277 l 1,61,-1
569 -277 m 1,65,-1
 588 -237 l 1,66,-1
 588 -277 l 1,67,-1
 569 -277 l 1,65,-1
EndSplineSet
Validated: 3073
EndChar

StartChar: uni2594
Encoding: 9620 9620 150
Width: 588
VWidth: 1024
Flags: W
HStem: 844 160<0 588>
LayerCount: 2
Fore
SplineSet
588 844 m 1,0,-1
 0 844 l 1,1,-1
 0 1004 l 1,2,-1
 588 1004 l 1,3,-1
 588 844 l 1,0,-1
EndSplineSet
Validated: 3073
EndChar

StartChar: uni2595
Encoding: 9621 9621 151
Width: 588
VWidth: 1024
Flags: W
VStem: 515 73<-277 1004>
LayerCount: 2
Fore
SplineSet
588 -277 m 1,0,-1
 515 -277 l 1,1,-1
 515 1004 l 1,2,-1
 588 1004 l 1,3,-1
 588 -277 l 1,0,-1
EndSplineSet
Validated: 3073
EndChar

StartChar: uni2596
Encoding: 9622 9622 152
Width: 588
VWidth: 1024
Flags: W
VStem: 0 294<-277 364>
LayerCount: 2
Fore
SplineSet
0 -277 m 1,0,-1
 0 364 l 1,1,-1
 294 364 l 1,2,-1
 294 -277 l 1,3,-1
 0 -277 l 1,0,-1
EndSplineSet
Validated: 3073
EndChar

StartChar: uni2597
Encoding: 9623 9623 153
Width: 588
VWidth: 1024
Flags: W
VStem: 294 294<-277 364>
LayerCount: 2
Fore
SplineSet
294 -277 m 1,0,-1
 294 364 l 1,1,-1
 588 364 l 1,2,-1
 588 -277 l 1,3,-1
 294 -277 l 1,0,-1
EndSplineSet
Validated: 3073
EndChar

StartChar: uni2598
Encoding: 9624 9624 154
Width: 588
VWidth: 1024
Flags: W
VStem: 0 294<364 1004>
LayerCount: 2
Fore
SplineSet
0 364 m 1,0,-1
 0 1004 l 1,1,-1
 294 1004 l 1,2,-1
 294 364 l 1,3,-1
 0 364 l 1,0,-1
EndSplineSet
Validated: 3073
EndChar

StartChar: uni2599
Encoding: 9625 9625 155
Width: 588
VWidth: 1024
Flags: W
VStem: 0 588<-277 364> 0 294<364 1004>
LayerCount: 2
Fore
SplineSet
588 -277 m 1,0,-1
 0 -277 l 1,1,-1
 0 1004 l 1,2,-1
 294 1004 l 1,3,-1
 294 364 l 1,4,-1
 588 364 l 1,5,-1
 588 -277 l 1,0,-1
EndSplineSet
Validated: 3073
EndChar

StartChar: uni259A
Encoding: 9626 9626 156
Width: 588
VWidth: 1024
Flags: W
VStem: 0 294<365 1004> 294 294<-277 364>
LayerCount: 2
Fore
SplineSet
0 365 m 5,0,-1
 0 1004 l 1,1,-1
 294 1004 l 1,2,-1
 294 365 l 1,3,-1
 0 365 l 5,0,-1
294 -277 m 5,4,-1
 294 364 l 1,5,-1
 588 364 l 1,6,-1
 588 -277 l 1,7,-1
 294 -277 l 5,4,-1
EndSplineSet
Validated: 3073
EndChar

StartChar: uni259B
Encoding: 9627 9627 157
Width: 588
VWidth: 1024
Flags: W
VStem: 0 588<364 1004> 0 294<-277 364>
LayerCount: 2
Fore
SplineSet
0 -277 m 1,0,-1
 0 1004 l 1,1,-1
 588 1004 l 1,2,-1
 588 364 l 1,3,-1
 294 364 l 1,4,-1
 294 -277 l 1,5,-1
 0 -277 l 1,0,-1
EndSplineSet
Validated: 3073
EndChar

StartChar: uni259C
Encoding: 9628 9628 158
Width: 588
VWidth: 1024
Flags: W
VStem: 0 588<364 1004> 294 294<-277 364>
LayerCount: 2
Fore
SplineSet
294 -277 m 1,0,-1
 294 364 l 1,1,-1
 0 364 l 1,2,-1
 0 1004 l 1,3,-1
 588 1004 l 1,4,-1
 588 -277 l 1,5,-1
 294 -277 l 1,0,-1
EndSplineSet
Validated: 3073
EndChar

StartChar: uni259D
Encoding: 9629 9629 159
Width: 588
VWidth: 1024
Flags: W
VStem: 294 294<364 1004>
LayerCount: 2
Fore
SplineSet
294 364 m 1,0,-1
 294 1004 l 1,1,-1
 588 1004 l 1,2,-1
 588 364 l 1,3,-1
 294 364 l 1,0,-1
EndSplineSet
Validated: 3073
EndChar

StartChar: uni259E
Encoding: 9630 9630 160
Width: 588
VWidth: 1024
Flags: W
VStem: 0 294<-277 364> 294 294<365 1004>
LayerCount: 2
Fore
SplineSet
294 365 m 5,0,-1
 294 1005 l 1,1,-1
 588 1004 l 1,2,-1
 588 365 l 1,3,-1
 294 365 l 5,0,-1
0 -277 m 5,4,-1
 0 364 l 1,5,-1
 294 364 l 1,6,-1
 294 -277 l 1,7,-1
 0 -277 l 5,4,-1
EndSplineSet
Validated: 3073
EndChar

StartChar: uni259F
Encoding: 9631 9631 161
Width: 588
VWidth: 1024
Flags: W
VStem: 0 588<-277 364> 294 294<364 1004>
LayerCount: 2
Fore
SplineSet
0 -277 m 1,0,-1
 0 364 l 1,1,-1
 294 364 l 1,2,-1
 294 1004 l 1,3,-1
 588 1004 l 1,4,-1
 588 -277 l 1,5,-1
 0 -277 l 1,0,-1
EndSplineSet
Validated: 3073
EndChar

StartChar: filledbox
Encoding: 9632 9632 162
Width: 588
VWidth: 1166
Flags: W
HStem: 80 462<48 540>
VStem: 48 492<80 542>
LayerCount: 2
Fore
SplineSet
48 80 m 1,0,-1
 48 542 l 1,1,-1
 540 542 l 1,2,-1
 540 80 l 1,3,-1
 48 80 l 1,0,-1
EndSplineSet
Validated: 3073
EndChar

StartChar: H22073
Encoding: 9633 9633 163
Width: 588
VWidth: 1166
Flags: W
HStem: 80 62<113 475> 482 60<113 475>
VStem: 48 65<142 482> 475 65<142 482>
LayerCount: 2
Fore
SplineSet
48 80 m 1,0,-1
 48 542 l 1,1,-1
 540 542 l 1,2,-1
 540 80 l 1,3,-1
 48 80 l 1,0,-1
475 142 m 1,4,-1
 475 482 l 1,5,-1
 113 482 l 1,6,-1
 113 142 l 1,7,-1
 475 142 l 1,4,-1
EndSplineSet
Validated: 3073
EndChar

StartChar: uni25A2
Encoding: 9634 9634 164
Width: 588
VWidth: 1166
Flags: W
HStem: 80 62<138.44 449.56> 482 60<138.44 449.56>
VStem: 48 72<156.503 467.496> 468 72<156.503 467.496>
LayerCount: 2
Fore
SplineSet
178 80 m 2,0,1
 138 80 138 80 106 97 c 0,2,3
 77 114 77 114 66 134 c 0,4,5
 48 161 48 161 48 202 c 2,6,-1
 48 421 l 2,7,8
 48 461 48 461 66 488 c 0,9,10
 83 515 83 515 106 527 c 0,11,12
 135 542 135 542 178 542 c 2,13,-1
 410 542 l 2,14,15
 453 542 453 542 482 527 c 0,16,17
 509 511 509 511 522 488 c 0,18,19
 540 461 540 461 540 421 c 2,20,-1
 540 202 l 2,21,22
 540 161 540 161 522 134 c 0,23,24
 511 114 511 114 482 97 c 0,25,26
 450 80 450 80 410 80 c 2,27,-1
 178 80 l 2,0,1
178 142 m 2,28,-1
 410 142 l 2,29,30
 436 142 436 142 450 156 c 0,31,32
 468 172 468 172 468 202 c 2,33,-1
 468 421 l 2,34,35
 468 452 468 452 450 468 c 0,36,37
 436 482 436 482 410 482 c 2,38,-1
 178 482 l 2,39,40
 152 482 152 482 138 468 c 0,41,42
 120 452 120 452 120 421 c 2,43,-1
 120 202 l 2,44,45
 120 172 120 172 138 156 c 0,46,47
 152 142 152 142 178 142 c 2,28,-1
EndSplineSet
Validated: 3073
EndChar

StartChar: uni25A3
Encoding: 9635 9635 165
Width: 588
VWidth: 1166
Flags: W
HStem: 80 46<96 492> 218 186<195 393> 498 44<96 492>
VStem: 48 48<126 498> 195 198<218 404> 492 48<126 498>
CounterMasks: 1 1c
LayerCount: 2
Fore
SplineSet
48 80 m 1,0,-1
 48 542 l 1,1,-1
 540 542 l 1,2,-1
 540 80 l 1,3,-1
 48 80 l 1,0,-1
96 126 m 1,4,-1
 492 126 l 1,5,-1
 492 498 l 1,6,-1
 96 498 l 1,7,-1
 96 126 l 1,4,-1
195 218 m 1,8,-1
 195 404 l 1,9,-1
 393 404 l 1,10,-1
 393 218 l 1,11,-1
 195 218 l 1,8,-1
EndSplineSet
Validated: 3073
EndChar

StartChar: H18543
Encoding: 9642 9642 166
Width: 588
VWidth: 1166
Flags: W
HStem: 173 277<147 441>
VStem: 147 294<173 450>
LayerCount: 2
Fore
SplineSet
441 173 m 1,0,-1
 147 173 l 1,1,-1
 147 450 l 1,2,-1
 441 450 l 1,3,-1
 441 173 l 1,0,-1
EndSplineSet
Validated: 3073
EndChar

StartChar: H18551
Encoding: 9643 9643 167
Width: 588
VWidth: 1166
Flags: W
HStem: 173 60<211 377> 390 60<211 377>
VStem: 147 64<233 390> 377 64<233 390>
LayerCount: 2
Fore
SplineSet
147 173 m 1,0,-1
 147 450 l 1,1,-1
 441 450 l 1,2,-1
 441 173 l 1,3,-1
 147 173 l 1,0,-1
211 233 m 1,4,-1
 377 233 l 1,5,-1
 377 390 l 1,6,-1
 211 390 l 1,7,-1
 211 233 l 1,4,-1
EndSplineSet
Validated: 3073
EndChar

StartChar: filledrect
Encoding: 9644 9644 168
Width: 588
VWidth: 1166
Flags: W
HStem: 157 309<48 540>
LayerCount: 2
Fore
SplineSet
540 157 m 1,0,-1
 48 157 l 1,1,-1
 48 466 l 1,2,-1
 540 466 l 1,3,-1
 540 157 l 1,0,-1
EndSplineSet
Validated: 3073
EndChar

StartChar: uni25AD
Encoding: 9645 9645 169
Width: 588
VWidth: 1166
Flags: W
HStem: 157 61<113 475> 404 62<113 475>
VStem: 48 65<218 404> 475 65<218 404>
LayerCount: 2
Fore
SplineSet
540 157 m 1,0,-1
 48 157 l 1,1,-1
 48 466 l 1,2,-1
 540 466 l 1,3,-1
 540 157 l 1,0,-1
113 218 m 1,4,-1
 475 218 l 1,5,-1
 475 404 l 1,6,-1
 113 404 l 1,7,-1
 113 218 l 1,4,-1
EndSplineSet
Validated: 3073
EndChar

StartChar: uni25AE
Encoding: 9646 9646 170
Width: 588
VWidth: 1166
Flags: W
VStem: 48 492<-35 659>
LayerCount: 2
Fore
SplineSet
48 -35 m 1,0,-1
 48 659 l 1,1,-1
 540 659 l 1,2,-1
 540 -35 l 1,3,-1
 48 -35 l 1,0,-1
EndSplineSet
Validated: 3073
EndChar

StartChar: triagup
Encoding: 9650 9650 171
Width: 588
VWidth: 1166
Flags: W
LayerCount: 2
Fore
SplineSet
11 80 m 1,0,-1
 294 542 l 1,1,-1
 577 80 l 1,2,-1
 11 80 l 1,0,-1
EndSplineSet
Validated: 3073
EndChar

StartChar: triagdn
Encoding: 9660 9660 172
Width: 588
VWidth: 1166
Flags: W
LayerCount: 2
Fore
SplineSet
294 80 m 1,0,-1
 11 542 l 1,1,-1
 577 542 l 1,2,-1
 294 80 l 1,0,-1
EndSplineSet
Validated: 3073
EndChar

StartChar: uni25C6
Encoding: 9670 9670 173
Width: 588
VWidth: 1166
Flags: W
LayerCount: 2
Fore
SplineSet
294 80 m 1,0,-1
 48 312 l 1,1,-1
 294 542 l 1,2,-1
 540 312 l 1,3,-1
 294 80 l 1,0,-1
EndSplineSet
Validated: 3073
EndChar

StartChar: uni25C7
Encoding: 9671 9671 174
Width: 588
VWidth: 1166
Flags: W
LayerCount: 2
Fore
SplineSet
294 80 m 1,0,-1
 48 312 l 1,1,-1
 294 542 l 1,2,-1
 540 312 l 1,3,-1
 294 80 l 1,0,-1
294 167 m 1,4,-1
 448 312 l 1,5,-1
 294 457 l 1,6,-1
 140 312 l 1,7,-1
 294 167 l 1,4,-1
EndSplineSet
Validated: 3073
EndChar

StartChar: uni25C8
Encoding: 9672 9672 175
Width: 588
VWidth: 1166
Flags: W
LayerCount: 2
Fore
SplineSet
294 80 m 1,0,-1
 48 312 l 1,1,-1
 294 542 l 1,2,-1
 540 312 l 1,3,-1
 294 80 l 1,0,-1
294 144 m 1,4,-1
 472 312 l 1,5,-1
 294 479 l 1,6,-1
 116 312 l 1,7,-1
 294 144 l 1,4,-1
294 228 m 1,8,-1
 206 312 l 1,9,-1
 294 395 l 1,10,-1
 382 312 l 1,11,-1
 294 228 l 1,8,-1
EndSplineSet
Validated: 3073
EndChar

StartChar: uni25C9
Encoding: 9673 9673 176
Width: 588
VWidth: 1166
Flags: W
HStem: 80 46<201.282 386.367> 218 186<230.056 357.944> 498 44<201.725 385.907>
VStem: 48 48<224.041 396.115> 195 198<253.984 369.78> 492 48<225.789 396.557>
CounterMasks: 1 1c
LayerCount: 2
Fore
SplineSet
294 80 m 256,0,1
 225 80 225 80 169.5 113 c 128,-1,2
 114 146 114 146 81 196 c 0,3,4
 48 252 48 252 48 312 c 0,5,6
 48 377 48 377 83.5 431 c 128,-1,7
 119 485 119 485 171 512 c 0,8,9
 228 542 228 542 294 542 c 256,10,11
 431 542 431 542 507 428 c 0,12,13
 540 372 540 372 540 312 c 0,14,15
 540 246 540 246 505 193 c 128,-1,16
 470 140 470 140 417 112 c 0,17,18
 356 80 356 80 294 80 c 256,0,1
294 126 m 256,19,20
 349 126 349 126 395 152 c 128,-1,21
 441 178 441 178 466 218 c 0,22,23
 492 260 492 260 492 312 c 0,24,25
 492 366 492 366 464 407.5 c 128,-1,26
 436 449 436 449 393 473 c 0,27,28
 347 498 347 498 294 498 c 0,29,30
 238 498 238 498 193 471.5 c 128,-1,31
 148 445 148 445 122 404 c 0,32,33
 96 362 96 362 96 312 c 0,34,35
 96 206 96 206 195 151 c 0,36,37
 241 126 241 126 294 126 c 256,19,20
294 404 m 256,38,39
 335 404 335 404 364 377.5 c 128,-1,40
 393 351 393 351 393 311 c 0,41,42
 393 285 393 285 379 265 c 0,43,44
 352 218 352 218 294 218 c 128,-1,45
 236 218 236 218 209 265 c 0,46,47
 195 287 195 287 195 312 c 0,48,49
 195 352 195 352 224 378 c 128,-1,50
 253 404 253 404 294 404 c 256,38,39
EndSplineSet
Validated: 3073
EndChar

StartChar: lozenge
Encoding: 9674 9674 177
Width: 588
VWidth: 1166
Flags: W
VStem: 131 326
LayerCount: 2
Fore
SplineSet
294 80 m 1,0,1
 278 103 278 103 131 312 c 1,2,-1
 294 542 l 1,3,4
 322 505 322 505 457 312 c 1,5,6
 310 103 310 103 294 80 c 1,0,1
294 199 m 1,7,-1
 374 312 l 1,8,-1
 294 425 l 1,9,-1
 214 312 l 1,10,-1
 294 199 l 1,7,-1
EndSplineSet
Validated: 3073
EndChar

StartChar: circle
Encoding: 9675 9675 178
Width: 588
VWidth: 1166
Flags: W
HStem: 80 62<202.021 385.979> 482 60<203.725 384.246>
VStem: 48 65<228.406 395.458> 475 65<228.406 395.158>
LayerCount: 2
Fore
SplineSet
294 80 m 256,0,1
 192 80 192 80 120 146.5 c 128,-1,2
 48 213 48 213 48 312 c 0,3,4
 48 412 48 412 120 477 c 128,-1,5
 192 542 192 542 294 542 c 0,6,7
 397 542 397 542 468.5 476.5 c 128,-1,8
 540 411 540 411 540 312 c 128,-1,9
 540 213 540 213 468 146.5 c 128,-1,10
 396 80 396 80 294 80 c 256,0,1
294 142 m 256,11,12
 371 142 371 142 423 190 c 128,-1,13
 475 238 475 238 475 312 c 0,14,15
 475 385 475 385 422 433.5 c 128,-1,16
 369 482 369 482 294 482 c 0,17,18
 218 482 218 482 165.5 433.5 c 128,-1,19
 113 385 113 385 113 312 c 0,20,21
 113 238 113 238 165 190 c 128,-1,22
 217 142 217 142 294 142 c 256,11,12
EndSplineSet
Validated: 3073
EndChar

StartChar: SF100000
Encoding: 9472 9472 179
Width: 588
VWidth: 1024
Flags: W
HStem: 327 74<0 588>
LayerCount: 2
Fore
SplineSet
0 327 m 1,0,-1
 0 401 l 1,1,-1
 588 401 l 1,2,-1
 588 327 l 1,3,-1
 0 327 l 1,0,-1
EndSplineSet
Validated: 3073
EndChar

StartChar: uni2501
Encoding: 9473 9473 180
Width: 588
VWidth: 1024
Flags: W
HStem: 290 148<0 588>
LayerCount: 2
Fore
SplineSet
0 290 m 1,0,-1
 0 438 l 1,1,-1
 588 438 l 1,2,-1
 588 290 l 1,3,-1
 0 290 l 1,0,-1
EndSplineSet
Validated: 3073
EndChar

StartChar: SF110000
Encoding: 9474 9474 181
Width: 588
VWidth: 1024
Flags: W
VStem: 247 94<-277 1004>
LayerCount: 2
Fore
SplineSet
247 -277 m 1,0,-1
 247 1004 l 1,1,-1
 341 1004 l 1,2,-1
 341 -277 l 1,3,-1
 247 -277 l 1,0,-1
EndSplineSet
Validated: 3073
EndChar

StartChar: uni2503
Encoding: 9475 9475 182
Width: 588
VWidth: 1024
Flags: W
VStem: 200 188<-277 1004>
LayerCount: 2
Fore
SplineSet
200 -277 m 1,0,-1
 200 1004 l 1,1,-1
 388 1004 l 1,2,-1
 388 -277 l 1,3,-1
 200 -277 l 1,0,-1
EndSplineSet
Validated: 3073
EndChar

StartChar: uni2504
Encoding: 9476 9476 183
Width: 588
VWidth: 1024
Flags: W
HStem: 327 74<39 156 235 353 432 549>
VStem: 39 117<327 401> 235 118<327 401> 432 117<327 401>
CounterMasks: 1 70
LayerCount: 2
Fore
SplineSet
432 327 m 1,0,-1
 432 401 l 1,1,-1
 549 401 l 1,2,-1
 549 327 l 1,3,-1
 432 327 l 1,0,-1
235 327 m 1,4,-1
 235 401 l 1,5,-1
 353 401 l 1,6,-1
 353 327 l 1,7,-1
 235 327 l 1,4,-1
39 327 m 1,8,-1
 39 401 l 1,9,-1
 156 401 l 1,10,-1
 156 327 l 1,11,-1
 39 327 l 1,8,-1
EndSplineSet
Validated: 3073
EndChar

StartChar: uni2505
Encoding: 9477 9477 184
Width: 588
VWidth: 1024
Flags: W
HStem: 290 148<39 156 235 353 432 549>
VStem: 39 117<290 438> 235 118<290 438> 432 117<290 438>
CounterMasks: 1 70
LayerCount: 2
Fore
SplineSet
432 290 m 1,0,-1
 432 438 l 1,1,-1
 549 438 l 1,2,-1
 549 290 l 1,3,-1
 432 290 l 1,0,-1
235 290 m 1,4,-1
 235 438 l 1,5,-1
 353 438 l 1,6,-1
 353 290 l 1,7,-1
 235 290 l 1,4,-1
39 290 m 1,8,-1
 39 438 l 1,9,-1
 156 438 l 1,10,-1
 156 290 l 1,11,-1
 39 290 l 1,8,-1
EndSplineSet
Validated: 3073
EndChar

StartChar: uni2506
Encoding: 9478 9478 185
Width: 588
VWidth: 1024
Flags: W
VStem: 247 94<-190 65 235 492 663 920>
LayerCount: 2
Fore
SplineSet
247 663 m 1,0,-1
 247 920 l 1,1,-1
 341 920 l 1,2,-1
 341 663 l 1,3,-1
 247 663 l 1,0,-1
247 235 m 1,4,-1
 247 492 l 1,5,-1
 341 492 l 1,6,-1
 341 235 l 1,7,-1
 247 235 l 1,4,-1
247 -190 m 1,8,-1
 247 65 l 1,9,-1
 341 65 l 1,10,-1
 341 -190 l 1,11,-1
 247 -190 l 1,8,-1
EndSplineSet
Validated: 3073
EndChar

StartChar: uni2507
Encoding: 9479 9479 186
Width: 588
VWidth: 1024
Flags: W
HStem: -190 255<200 388> 235 257<200 388> 663 257<200 388>
VStem: 200 188<-190 65 235 492 663 920>
LayerCount: 2
Fore
SplineSet
200 663 m 1,0,-1
 200 920 l 1,1,-1
 388 920 l 1,2,-1
 388 663 l 1,3,-1
 200 663 l 1,0,-1
200 235 m 1,4,-1
 200 492 l 1,5,-1
 388 492 l 1,6,-1
 388 235 l 1,7,-1
 200 235 l 1,4,-1
200 -190 m 1,8,-1
 200 65 l 1,9,-1
 388 65 l 1,10,-1
 388 -190 l 1,11,-1
 200 -190 l 1,8,-1
EndSplineSet
Validated: 3073
EndChar

StartChar: uni2508
Encoding: 9480 9480 187
Width: 588
VWidth: 1024
Flags: W
HStem: 327 74<29 118 176 265 323 412 470 559>
VStem: 29 89<327 401> 176 89<327 401> 323 89<327 401> 470 89<327 401>
LayerCount: 2
Fore
SplineSet
470 327 m 1,0,-1
 470 401 l 1,1,-1
 559 401 l 1,2,-1
 559 327 l 1,3,-1
 470 327 l 1,0,-1
323 327 m 1,4,-1
 323 401 l 1,5,-1
 412 401 l 1,6,-1
 412 327 l 1,7,-1
 323 327 l 1,4,-1
176 327 m 1,8,-1
 176 401 l 1,9,-1
 265 401 l 1,10,-1
 265 327 l 1,11,-1
 176 327 l 1,8,-1
29 327 m 1,12,-1
 29 401 l 1,13,-1
 118 401 l 1,14,-1
 118 327 l 1,15,-1
 29 327 l 1,12,-1
EndSplineSet
Validated: 3073
EndChar

StartChar: uni2509
Encoding: 9481 9481 188
Width: 588
VWidth: 1024
Flags: W
HStem: 290 148<29 118 176 265 323 412 470 559>
VStem: 29 89<290 438> 176 89<290 438> 323 89<290 438> 470 89<290 438>
LayerCount: 2
Fore
SplineSet
470 290 m 1,0,-1
 470 438 l 1,1,-1
 559 438 l 1,2,-1
 559 290 l 1,3,-1
 470 290 l 1,0,-1
323 290 m 1,4,-1
 323 438 l 1,5,-1
 412 438 l 1,6,-1
 412 290 l 1,7,-1
 323 290 l 1,4,-1
176 290 m 1,8,-1
 176 438 l 1,9,-1
 265 438 l 1,10,-1
 265 290 l 1,11,-1
 176 290 l 1,8,-1
29 290 m 1,12,-1
 29 438 l 1,13,-1
 118 438 l 1,14,-1
 118 290 l 1,15,-1
 29 290 l 1,12,-1
EndSplineSet
Validated: 3073
EndChar

StartChar: uni250A
Encoding: 9482 9482 189
Width: 588
VWidth: 1024
Flags: W
HStem: 749 21G<247 341>
VStem: 247 94<-212 -20 108 300 429 620 749 941>
LayerCount: 2
Fore
SplineSet
247 749 m 1,0,-1
 247 941 l 1,1,-1
 341 941 l 1,2,-1
 341 749 l 1,3,-1
 247 749 l 1,0,-1
247 429 m 1,4,-1
 247 620 l 1,5,-1
 341 620 l 1,6,-1
 341 429 l 1,7,-1
 247 429 l 1,4,-1
247 108 m 1,8,-1
 247 300 l 1,9,-1
 341 300 l 1,10,-1
 341 108 l 1,11,-1
 247 108 l 1,8,-1
247 -212 m 1,12,-1
 247 -20 l 1,13,-1
 341 -20 l 1,14,-1
 341 -212 l 1,15,-1
 247 -212 l 1,12,-1
EndSplineSet
Validated: 3073
EndChar

StartChar: uni250B
Encoding: 9483 9483 190
Width: 588
VWidth: 1024
Flags: W
HStem: -212 192<200 388> 108 192<200 388> 429 191<200 388> 749 192<200 388>
VStem: 200 188<-212 -20 108 300 429 620 749 941>
LayerCount: 2
Fore
SplineSet
200 749 m 1,0,-1
 200 941 l 1,1,-1
 388 941 l 1,2,-1
 388 749 l 1,3,-1
 200 749 l 1,0,-1
200 429 m 1,4,-1
 200 620 l 1,5,-1
 388 620 l 1,6,-1
 388 429 l 1,7,-1
 200 429 l 1,4,-1
200 108 m 1,8,-1
 200 300 l 1,9,-1
 388 300 l 1,10,-1
 388 108 l 1,11,-1
 200 108 l 1,8,-1
200 -212 m 1,12,-1
 200 -20 l 1,13,-1
 388 -20 l 1,14,-1
 388 -212 l 1,15,-1
 200 -212 l 1,12,-1
EndSplineSet
Validated: 3073
EndChar

StartChar: SF010000
Encoding: 9484 9484 191
Width: 588
VWidth: 1024
Flags: W
HStem: 327 74<341 588>
VStem: 247 94<-277 327>
LayerCount: 2
Fore
SplineSet
247 -277 m 1,0,-1
 247 401 l 1,1,-1
 588 401 l 1,2,-1
 588 327 l 1,3,-1
 341 327 l 1,4,-1
 341 -277 l 1,5,-1
 247 -277 l 1,0,-1
EndSplineSet
Validated: 3073
EndChar

StartChar: uni250D
Encoding: 9485 9485 192
Width: 588
VWidth: 1024
Flags: W
HStem: 290 148<341 588>
VStem: 247 94<-277 290>
LayerCount: 2
Fore
SplineSet
247 -277 m 1,0,-1
 247 438 l 1,1,-1
 588 438 l 1,2,-1
 588 290 l 1,3,-1
 341 290 l 1,4,-1
 341 -277 l 1,5,-1
 247 -277 l 1,0,-1
EndSplineSet
Validated: 3073
EndChar

StartChar: uni250E
Encoding: 9486 9486 193
Width: 588
VWidth: 1024
Flags: W
HStem: 327 74<388 588>
VStem: 200 188<-277 327>
LayerCount: 2
Fore
SplineSet
200 -277 m 1,0,-1
 200 401 l 1,1,-1
 588 401 l 1,2,-1
 588 327 l 1,3,-1
 388 327 l 1,4,-1
 388 -277 l 1,5,-1
 200 -277 l 1,0,-1
EndSplineSet
Validated: 3073
EndChar

StartChar: uni250F
Encoding: 9487 9487 194
Width: 588
VWidth: 1024
Flags: W
HStem: 290 148<388 588>
VStem: 200 188<-277 290>
LayerCount: 2
Fore
SplineSet
200 -277 m 1,0,-1
 200 438 l 1,1,-1
 588 438 l 1,2,-1
 588 290 l 1,3,-1
 388 290 l 1,4,-1
 388 -277 l 1,5,-1
 200 -277 l 1,0,-1
EndSplineSet
Validated: 3073
EndChar

StartChar: SF030000
Encoding: 9488 9488 195
Width: 588
VWidth: 1024
Flags: W
HStem: 327 74<0 247>
VStem: 247 94<-277 327>
LayerCount: 2
Fore
SplineSet
341 -277 m 1,0,-1
 247 -277 l 1,1,-1
 247 327 l 1,2,-1
 0 327 l 1,3,-1
 0 401 l 1,4,-1
 341 401 l 1,5,-1
 341 -277 l 1,0,-1
EndSplineSet
Validated: 3073
EndChar

StartChar: uni2511
Encoding: 9489 9489 196
Width: 588
VWidth: 1024
Flags: W
HStem: 290 148<0 247>
VStem: 247 94<-277 290>
LayerCount: 2
Fore
SplineSet
341 -277 m 1,0,-1
 247 -277 l 1,1,-1
 247 290 l 1,2,-1
 0 290 l 1,3,-1
 0 438 l 1,4,-1
 341 438 l 1,5,-1
 341 -277 l 1,0,-1
EndSplineSet
Validated: 3073
EndChar

StartChar: uni2512
Encoding: 9490 9490 197
Width: 588
VWidth: 1024
Flags: W
HStem: 327 74<0 200>
VStem: 200 188<-277 327>
LayerCount: 2
Fore
SplineSet
388 -277 m 1,0,-1
 200 -277 l 1,1,-1
 200 327 l 1,2,-1
 0 327 l 1,3,-1
 0 401 l 1,4,-1
 388 401 l 1,5,-1
 388 -277 l 1,0,-1
EndSplineSet
Validated: 3073
EndChar

StartChar: uni2513
Encoding: 9491 9491 198
Width: 588
VWidth: 1024
Flags: W
HStem: 290 148<0 200>
VStem: 200 188<-277 290>
LayerCount: 2
Fore
SplineSet
388 -277 m 1,0,-1
 200 -277 l 1,1,-1
 200 290 l 1,2,-1
 0 290 l 1,3,-1
 0 438 l 1,4,-1
 388 438 l 1,5,-1
 388 -277 l 1,0,-1
EndSplineSet
Validated: 3073
EndChar

StartChar: SF020000
Encoding: 9492 9492 199
Width: 588
VWidth: 1024
Flags: W
HStem: 327 74<341 588>
VStem: 247 94<401 1004>
LayerCount: 2
Fore
SplineSet
247 327 m 1,0,-1
 247 1004 l 1,1,-1
 341 1004 l 1,2,-1
 341 401 l 1,3,-1
 588 401 l 1,4,-1
 588 327 l 1,5,-1
 247 327 l 1,0,-1
EndSplineSet
Validated: 3073
EndChar

StartChar: uni2515
Encoding: 9493 9493 200
Width: 588
VWidth: 1024
Flags: W
HStem: 290 148<341 588>
VStem: 247 94<438 1004>
LayerCount: 2
Fore
SplineSet
247 290 m 1,0,-1
 247 1004 l 1,1,-1
 341 1004 l 1,2,-1
 341 438 l 1,3,-1
 588 438 l 1,4,-1
 588 290 l 1,5,-1
 247 290 l 1,0,-1
EndSplineSet
Validated: 3073
EndChar

StartChar: uni2516
Encoding: 9494 9494 201
Width: 588
VWidth: 1024
Flags: W
HStem: 327 74<388 588>
VStem: 200 188<401 1004>
LayerCount: 2
Fore
SplineSet
200 327 m 1,0,-1
 200 1004 l 1,1,-1
 388 1004 l 1,2,-1
 388 401 l 1,3,-1
 588 401 l 1,4,-1
 588 327 l 1,5,-1
 200 327 l 1,0,-1
EndSplineSet
Validated: 3073
EndChar

StartChar: uni2517
Encoding: 9495 9495 202
Width: 588
VWidth: 1024
Flags: W
HStem: 290 148<388 588>
VStem: 200 188<438 1004>
LayerCount: 2
Fore
SplineSet
200 290 m 1,0,-1
 200 1004 l 1,1,-1
 388 1004 l 1,2,-1
 388 438 l 1,3,-1
 588 438 l 1,4,-1
 588 290 l 1,5,-1
 200 290 l 1,0,-1
EndSplineSet
Validated: 3073
EndChar

StartChar: SF040000
Encoding: 9496 9496 203
Width: 588
VWidth: 1024
Flags: W
HStem: 327 74<0 247>
VStem: 247 94<401 1004>
LayerCount: 2
Fore
SplineSet
0 327 m 1,0,-1
 0 401 l 1,1,-1
 247 401 l 1,2,-1
 247 1004 l 1,3,-1
 341 1004 l 1,4,-1
 341 327 l 1,5,-1
 0 327 l 1,0,-1
EndSplineSet
Validated: 3073
EndChar

StartChar: uni2519
Encoding: 9497 9497 204
Width: 588
VWidth: 1024
Flags: W
HStem: 290 148<0 247>
VStem: 247 94<438 1004>
LayerCount: 2
Fore
SplineSet
0 290 m 1,0,-1
 0 438 l 1,1,-1
 247 438 l 1,2,-1
 247 1004 l 1,3,-1
 341 1004 l 1,4,-1
 341 290 l 1,5,-1
 0 290 l 1,0,-1
EndSplineSet
Validated: 3073
EndChar

StartChar: uni251A
Encoding: 9498 9498 205
Width: 588
VWidth: 1024
Flags: W
HStem: 327 74<0 200>
VStem: 200 188<401 1004>
LayerCount: 2
Fore
SplineSet
0 327 m 1,0,-1
 0 401 l 1,1,-1
 200 401 l 1,2,-1
 200 1004 l 1,3,-1
 388 1004 l 1,4,-1
 388 327 l 1,5,-1
 0 327 l 1,0,-1
EndSplineSet
Validated: 3073
EndChar

StartChar: uni251B
Encoding: 9499 9499 206
Width: 588
VWidth: 1024
Flags: W
HStem: 290 148<0 200>
VStem: 200 188<438 1004>
LayerCount: 2
Fore
SplineSet
0 290 m 1,0,-1
 0 438 l 1,1,-1
 200 438 l 1,2,-1
 200 1004 l 1,3,-1
 388 1004 l 1,4,-1
 388 290 l 1,5,-1
 0 290 l 1,0,-1
EndSplineSet
Validated: 3073
EndChar

StartChar: SF080000
Encoding: 9500 9500 207
Width: 588
VWidth: 1024
Flags: W
HStem: 327 74<341 588>
VStem: 247 94<-277 327 401 1004>
LayerCount: 2
Fore
SplineSet
247 -277 m 1,0,-1
 247 1004 l 1,1,-1
 341 1004 l 1,2,-1
 341 401 l 1,3,-1
 588 401 l 1,4,-1
 588 327 l 1,5,-1
 341 327 l 1,6,-1
 341 -277 l 1,7,-1
 247 -277 l 1,0,-1
EndSplineSet
Validated: 3073
EndChar

StartChar: uni251D
Encoding: 9501 9501 208
Width: 588
VWidth: 1024
Flags: W
HStem: 290 148<341 588>
VStem: 247 94<-277 290 438 1004>
LayerCount: 2
Fore
SplineSet
247 -277 m 1,0,-1
 247 1004 l 1,1,-1
 341 1004 l 1,2,-1
 341 438 l 1,3,-1
 588 438 l 1,4,-1
 588 290 l 1,5,-1
 341 290 l 1,6,-1
 341 -277 l 1,7,-1
 247 -277 l 1,0,-1
EndSplineSet
Validated: 3073
EndChar

StartChar: uni251E
Encoding: 9502 9502 209
Width: 588
VWidth: 1024
Flags: W
HStem: 327 74<388 588>
VStem: 200 188<401 1004> 247 94<-277 327>
LayerCount: 2
Fore
SplineSet
341 -277 m 1,0,-1
 247 -277 l 1,1,-1
 247 327 l 1,2,-1
 200 327 l 1,3,-1
 200 1004 l 1,4,-1
 388 1004 l 1,5,-1
 388 401 l 1,6,-1
 588 401 l 1,7,-1
 588 327 l 1,8,-1
 341 327 l 1,9,-1
 341 -277 l 1,0,-1
EndSplineSet
Validated: 3073
EndChar

StartChar: uni251F
Encoding: 9503 9503 210
Width: 588
VWidth: 1024
Flags: W
HStem: 327 74<388 588>
VStem: 200 188<-277 327> 247 94<401 1004>
LayerCount: 2
Fore
SplineSet
200 -277 m 1,0,-1
 200 401 l 1,1,-1
 247 401 l 1,2,-1
 247 1004 l 1,3,-1
 341 1004 l 1,4,-1
 341 401 l 1,5,-1
 588 401 l 1,6,-1
 588 327 l 1,7,-1
 388 327 l 1,8,-1
 388 -277 l 1,9,-1
 200 -277 l 1,0,-1
EndSplineSet
Validated: 3073
EndChar

StartChar: uni2520
Encoding: 9504 9504 211
Width: 588
VWidth: 1024
Flags: W
HStem: 327 74<388 588>
VStem: 200 188<-277 327 401 1004>
LayerCount: 2
Fore
SplineSet
200 -277 m 1,0,-1
 200 1004 l 1,1,-1
 388 1004 l 1,2,-1
 388 401 l 1,3,-1
 588 401 l 1,4,-1
 588 327 l 1,5,-1
 388 327 l 1,6,-1
 388 -277 l 1,7,-1
 200 -277 l 1,0,-1
EndSplineSet
Validated: 3073
EndChar

StartChar: uni2521
Encoding: 9505 9505 212
Width: 588
VWidth: 1024
Flags: W
HStem: 290 148<388 588>
VStem: 200 188<438 1004> 247 94<-277 290>
LayerCount: 2
Fore
SplineSet
341 -277 m 1,0,-1
 247 -277 l 1,1,-1
 247 290 l 1,2,-1
 200 290 l 1,3,-1
 200 1004 l 1,4,-1
 388 1004 l 1,5,-1
 388 438 l 1,6,-1
 588 438 l 1,7,-1
 588 290 l 1,8,-1
 341 290 l 1,9,-1
 341 -277 l 1,0,-1
EndSplineSet
Validated: 3073
EndChar

StartChar: uni2522
Encoding: 9506 9506 213
Width: 588
VWidth: 1024
Flags: W
HStem: 290 148<388 588>
VStem: 200 188<-277 290> 247 94<438 1004>
LayerCount: 2
Fore
SplineSet
200 -277 m 1,0,-1
 200 438 l 1,1,-1
 247 438 l 1,2,-1
 247 1004 l 1,3,-1
 341 1004 l 1,4,-1
 341 438 l 1,5,-1
 588 438 l 1,6,-1
 588 290 l 1,7,-1
 388 290 l 1,8,-1
 388 -277 l 1,9,-1
 200 -277 l 1,0,-1
EndSplineSet
Validated: 3073
EndChar

StartChar: uni2523
Encoding: 9507 9507 214
Width: 588
VWidth: 1024
Flags: W
HStem: 290 148<388 588>
VStem: 200 188<-277 290 438 1004>
LayerCount: 2
Fore
SplineSet
200 -277 m 1,0,-1
 200 1004 l 1,1,-1
 388 1004 l 1,2,-1
 388 438 l 1,3,-1
 588 438 l 1,4,-1
 588 290 l 1,5,-1
 388 290 l 1,6,-1
 388 -277 l 1,7,-1
 200 -277 l 1,0,-1
EndSplineSet
Validated: 3073
EndChar

StartChar: SF090000
Encoding: 9508 9508 215
Width: 588
VWidth: 1024
Flags: W
HStem: 327 74<0 247>
VStem: 247 94<-277 327 401 1004>
LayerCount: 2
Fore
SplineSet
341 -277 m 1,0,-1
 247 -277 l 1,1,-1
 247 327 l 1,2,-1
 0 327 l 1,3,-1
 0 401 l 1,4,-1
 247 401 l 1,5,-1
 247 1004 l 1,6,-1
 341 1004 l 1,7,-1
 341 -277 l 1,0,-1
EndSplineSet
Validated: 3073
EndChar

StartChar: uni2525
Encoding: 9509 9509 216
Width: 588
VWidth: 1024
Flags: W
HStem: 290 148<0 247>
VStem: 247 94<-277 290 438 1004>
LayerCount: 2
Fore
SplineSet
341 -277 m 1,0,-1
 247 -277 l 1,1,-1
 247 290 l 1,2,-1
 0 290 l 1,3,-1
 0 438 l 1,4,-1
 247 438 l 1,5,-1
 247 1004 l 1,6,-1
 341 1004 l 1,7,-1
 341 -277 l 1,0,-1
EndSplineSet
Validated: 3073
EndChar

StartChar: uni2526
Encoding: 9510 9510 217
Width: 588
VWidth: 1024
Flags: W
HStem: 327 74<0 200>
VStem: 200 188<401 1004> 247 94<-277 327>
LayerCount: 2
Fore
SplineSet
341 -277 m 1,0,-1
 247 -277 l 1,1,-1
 247 327 l 1,2,-1
 0 327 l 1,3,-1
 0 401 l 1,4,-1
 200 401 l 1,5,-1
 200 1004 l 1,6,-1
 388 1004 l 1,7,-1
 388 327 l 1,8,-1
 341 327 l 1,9,-1
 341 -277 l 1,0,-1
EndSplineSet
Validated: 3073
EndChar

StartChar: uni2527
Encoding: 9511 9511 218
Width: 588
VWidth: 1024
Flags: W
HStem: 327 74<0 200>
VStem: 200 188<-277 327> 247 94<401 1004>
LayerCount: 2
Fore
SplineSet
388 -277 m 1,0,-1
 200 -277 l 1,1,-1
 200 327 l 1,2,-1
 0 327 l 1,3,-1
 0 401 l 1,4,-1
 247 401 l 1,5,-1
 247 1004 l 1,6,-1
 341 1004 l 1,7,-1
 341 401 l 1,8,-1
 388 401 l 1,9,-1
 388 -277 l 1,0,-1
EndSplineSet
Validated: 3073
EndChar

StartChar: uni2528
Encoding: 9512 9512 219
Width: 588
VWidth: 1024
Flags: W
HStem: 327 74<0 200>
VStem: 200 188<-277 327 401 1004>
LayerCount: 2
Fore
SplineSet
388 -277 m 1,0,-1
 200 -277 l 1,1,-1
 200 327 l 1,2,-1
 0 327 l 1,3,-1
 0 401 l 1,4,-1
 200 401 l 1,5,-1
 200 1004 l 1,6,-1
 388 1004 l 1,7,-1
 388 -277 l 1,0,-1
EndSplineSet
Validated: 3073
EndChar

StartChar: uni2529
Encoding: 9513 9513 220
Width: 588
VWidth: 1024
Flags: W
HStem: 290 148<0 200>
VStem: 200 188<438 1004> 247 94<-277 290>
LayerCount: 2
Fore
SplineSet
341 -277 m 1,0,-1
 247 -277 l 1,1,-1
 247 290 l 1,2,-1
 0 290 l 1,3,-1
 0 438 l 1,4,-1
 200 438 l 1,5,-1
 200 1004 l 1,6,-1
 388 1004 l 1,7,-1
 388 290 l 1,8,-1
 341 290 l 1,9,-1
 341 -277 l 1,0,-1
EndSplineSet
Validated: 3073
EndChar

StartChar: uni252A
Encoding: 9514 9514 221
Width: 588
VWidth: 1024
Flags: W
HStem: 290 148<0 200>
VStem: 200 188<-277 290> 247 94<438 1004>
LayerCount: 2
Fore
SplineSet
388 -277 m 1,0,-1
 200 -277 l 1,1,-1
 200 290 l 1,2,-1
 0 290 l 1,3,-1
 0 438 l 1,4,-1
 247 438 l 1,5,-1
 247 1004 l 1,6,-1
 341 1004 l 1,7,-1
 341 438 l 1,8,-1
 388 438 l 1,9,-1
 388 -277 l 1,0,-1
EndSplineSet
Validated: 3073
EndChar

StartChar: uni252B
Encoding: 9515 9515 222
Width: 588
VWidth: 1024
Flags: W
HStem: 290 148<0 200>
VStem: 200 188<-277 290 438 1004>
LayerCount: 2
Fore
SplineSet
388 -277 m 1,0,-1
 200 -277 l 1,1,-1
 200 290 l 1,2,-1
 0 290 l 1,3,-1
 0 438 l 1,4,-1
 200 438 l 1,5,-1
 200 1004 l 1,6,-1
 388 1004 l 1,7,-1
 388 -277 l 1,0,-1
EndSplineSet
Validated: 3073
EndChar

StartChar: SF060000
Encoding: 9516 9516 223
Width: 588
VWidth: 1024
Flags: W
HStem: 327 74<0 247 341 588>
VStem: 247 94<-277 327>
LayerCount: 2
Fore
SplineSet
341 -277 m 1,0,-1
 247 -277 l 1,1,-1
 247 327 l 1,2,-1
 0 327 l 1,3,-1
 0 401 l 1,4,-1
 588 401 l 1,5,-1
 588 327 l 1,6,-1
 341 327 l 1,7,-1
 341 -277 l 1,0,-1
EndSplineSet
Validated: 3073
EndChar

StartChar: uni252D
Encoding: 9517 9517 224
Width: 588
VWidth: 1024
Flags: W
HStem: 290 148<0 247> 327 74<341 588>
VStem: 247 94<-277 290>
LayerCount: 2
Fore
SplineSet
341 -277 m 1,0,-1
 247 -277 l 1,1,-1
 247 290 l 1,2,-1
 0 290 l 1,3,-1
 0 438 l 1,4,-1
 341 438 l 1,5,-1
 341 401 l 1,6,-1
 588 401 l 1,7,-1
 588 327 l 1,8,-1
 341 327 l 1,9,-1
 341 -277 l 1,0,-1
EndSplineSet
Validated: 3073
EndChar

StartChar: uni252E
Encoding: 9518 9518 225
Width: 588
VWidth: 1024
Flags: W
HStem: 290 148<341 588> 327 74<0 247>
VStem: 247 94<-277 290>
LayerCount: 2
Fore
SplineSet
341 -277 m 1,0,-1
 247 -277 l 1,1,-1
 247 327 l 1,2,-1
 0 327 l 1,3,-1
 0 401 l 1,4,-1
 247 401 l 1,5,-1
 247 438 l 1,6,-1
 588 438 l 1,7,-1
 588 290 l 1,8,-1
 341 290 l 1,9,-1
 341 -277 l 1,0,-1
EndSplineSet
Validated: 3073
EndChar

StartChar: uni252F
Encoding: 9519 9519 226
Width: 588
VWidth: 1024
Flags: W
HStem: 290 148<0 247 341 588>
VStem: 247 94<-277 290>
LayerCount: 2
Fore
SplineSet
341 -277 m 1,0,-1
 247 -277 l 1,1,-1
 247 290 l 1,2,-1
 0 290 l 1,3,-1
 0 438 l 1,4,-1
 588 438 l 1,5,-1
 588 290 l 1,6,-1
 341 290 l 1,7,-1
 341 -277 l 1,0,-1
EndSplineSet
Validated: 3073
EndChar

StartChar: uni2530
Encoding: 9520 9520 227
Width: 588
VWidth: 1024
Flags: W
HStem: 327 74<0 200 388 588>
VStem: 200 188<-277 327>
LayerCount: 2
Fore
SplineSet
388 -277 m 1,0,-1
 200 -277 l 1,1,-1
 200 327 l 1,2,-1
 0 327 l 1,3,-1
 0 401 l 1,4,-1
 588 401 l 1,5,-1
 588 327 l 1,6,-1
 388 327 l 1,7,-1
 388 -277 l 1,0,-1
EndSplineSet
Validated: 3073
EndChar

StartChar: uni2531
Encoding: 9521 9521 228
Width: 588
VWidth: 1024
Flags: W
HStem: 290 148<0 200> 327 74<388 588>
VStem: 200 188<-277 290>
LayerCount: 2
Fore
SplineSet
388 -277 m 1,0,-1
 200 -277 l 1,1,-1
 200 290 l 1,2,-1
 0 290 l 1,3,-1
 0 438 l 1,4,-1
 388 438 l 1,5,-1
 388 401 l 1,6,-1
 588 401 l 1,7,-1
 588 327 l 1,8,-1
 388 327 l 1,9,-1
 388 -277 l 1,0,-1
EndSplineSet
Validated: 3073
EndChar

StartChar: uni2532
Encoding: 9522 9522 229
Width: 588
VWidth: 1024
Flags: W
HStem: 290 148<388 588> 327 74<0 200>
VStem: 200 188<-277 290>
LayerCount: 2
Fore
SplineSet
388 -277 m 1,0,-1
 200 -277 l 1,1,-1
 200 327 l 1,2,-1
 0 327 l 1,3,-1
 0 401 l 1,4,-1
 200 401 l 1,5,-1
 200 438 l 1,6,-1
 588 438 l 1,7,-1
 588 290 l 1,8,-1
 388 290 l 1,9,-1
 388 -277 l 1,0,-1
EndSplineSet
Validated: 3073
EndChar

StartChar: uni2533
Encoding: 9523 9523 230
Width: 588
VWidth: 1024
Flags: W
HStem: 290 148<0 200 388 588>
VStem: 200 188<-277 290>
LayerCount: 2
Fore
SplineSet
388 -277 m 1,0,-1
 200 -277 l 1,1,-1
 200 290 l 1,2,-1
 0 290 l 1,3,-1
 0 438 l 1,4,-1
 588 438 l 1,5,-1
 588 290 l 1,6,-1
 388 290 l 1,7,-1
 388 -277 l 1,0,-1
EndSplineSet
Validated: 3073
EndChar

StartChar: SF070000
Encoding: 9524 9524 231
Width: 588
VWidth: 1024
Flags: W
HStem: 327 74<0 247 341 588>
VStem: 247 94<401 1004>
LayerCount: 2
Fore
SplineSet
0 327 m 1,0,-1
 0 401 l 1,1,-1
 247 401 l 1,2,-1
 247 1004 l 1,3,-1
 341 1004 l 1,4,-1
 341 401 l 1,5,-1
 588 401 l 1,6,-1
 588 327 l 1,7,-1
 0 327 l 1,0,-1
EndSplineSet
Validated: 3073
EndChar

StartChar: uni2535
Encoding: 9525 9525 232
Width: 588
VWidth: 1024
Flags: W
HStem: 290 148<0 247> 327 74<341 588>
VStem: 247 94<438 1004>
LayerCount: 2
Fore
SplineSet
0 290 m 1,0,-1
 0 438 l 1,1,-1
 247 438 l 1,2,-1
 247 1004 l 1,3,-1
 341 1004 l 1,4,-1
 341 401 l 1,5,-1
 588 401 l 1,6,-1
 588 327 l 1,7,-1
 341 327 l 1,8,-1
 341 290 l 1,9,-1
 0 290 l 1,0,-1
EndSplineSet
Validated: 3073
EndChar

StartChar: uni2536
Encoding: 9526 9526 233
Width: 588
VWidth: 1024
Flags: W
HStem: 290 148<341 588> 327 74<0 247>
VStem: 247 94<438 1004>
LayerCount: 2
Fore
SplineSet
247 290 m 1,0,-1
 247 327 l 1,1,-1
 0 327 l 1,2,-1
 0 401 l 1,3,-1
 247 401 l 1,4,-1
 247 1004 l 1,5,-1
 341 1004 l 1,6,-1
 341 438 l 1,7,-1
 588 438 l 1,8,-1
 588 290 l 1,9,-1
 247 290 l 1,0,-1
EndSplineSet
Validated: 3073
EndChar

StartChar: uni2537
Encoding: 9527 9527 234
Width: 588
VWidth: 1024
Flags: W
HStem: 290 148<0 247 341 588>
VStem: 247 94<438 1004>
LayerCount: 2
Fore
SplineSet
0 290 m 1,0,-1
 0 438 l 1,1,-1
 247 438 l 1,2,-1
 247 1004 l 1,3,-1
 341 1004 l 1,4,-1
 341 438 l 1,5,-1
 588 438 l 1,6,-1
 588 290 l 1,7,-1
 0 290 l 1,0,-1
EndSplineSet
Validated: 3073
EndChar

StartChar: uni2538
Encoding: 9528 9528 235
Width: 588
VWidth: 1024
Flags: W
HStem: 327 74<0 200 388 588>
VStem: 200 188<401 1004>
LayerCount: 2
Fore
SplineSet
0 327 m 1,0,-1
 0 401 l 1,1,-1
 200 401 l 1,2,-1
 200 1004 l 1,3,-1
 388 1004 l 1,4,-1
 388 401 l 1,5,-1
 588 401 l 1,6,-1
 588 327 l 1,7,-1
 0 327 l 1,0,-1
EndSplineSet
Validated: 3073
EndChar

StartChar: uni2539
Encoding: 9529 9529 236
Width: 588
VWidth: 1024
Flags: W
HStem: 290 148<0 200> 327 74<388 588>
VStem: 200 188<438 1004>
LayerCount: 2
Fore
SplineSet
0 290 m 1,0,-1
 0 438 l 1,1,-1
 200 438 l 1,2,-1
 200 1004 l 1,3,-1
 388 1004 l 1,4,-1
 388 401 l 1,5,-1
 588 401 l 1,6,-1
 588 327 l 1,7,-1
 388 327 l 1,8,-1
 388 290 l 1,9,-1
 0 290 l 1,0,-1
EndSplineSet
Validated: 3073
EndChar

StartChar: uni253A
Encoding: 9530 9530 237
Width: 588
VWidth: 1024
Flags: W
HStem: 290 148<388 588> 327 74<0 200>
VStem: 200 188<438 1004>
LayerCount: 2
Fore
SplineSet
200 290 m 1,0,-1
 200 327 l 1,1,-1
 0 327 l 1,2,-1
 0 401 l 1,3,-1
 200 401 l 1,4,-1
 200 1004 l 1,5,-1
 388 1004 l 1,6,-1
 388 438 l 1,7,-1
 588 438 l 1,8,-1
 588 290 l 1,9,-1
 200 290 l 1,0,-1
EndSplineSet
Validated: 3073
EndChar

StartChar: uni253B
Encoding: 9531 9531 238
Width: 588
VWidth: 1024
Flags: W
HStem: 290 148<0 200 388 588>
VStem: 200 188<438 1004>
LayerCount: 2
Fore
SplineSet
0 290 m 1,0,-1
 0 438 l 1,1,-1
 200 438 l 1,2,-1
 200 1004 l 1,3,-1
 388 1004 l 1,4,-1
 388 438 l 1,5,-1
 588 438 l 1,6,-1
 588 290 l 1,7,-1
 0 290 l 1,0,-1
EndSplineSet
Validated: 3073
EndChar

StartChar: SF050000
Encoding: 9532 9532 239
Width: 588
VWidth: 1024
Flags: W
HStem: 327 74<0 247 341 588>
VStem: 247 94<-277 327 401 1004>
LayerCount: 2
Fore
SplineSet
341 -277 m 1,0,-1
 247 -277 l 1,1,-1
 247 327 l 1,2,-1
 0 327 l 1,3,-1
 0 401 l 1,4,-1
 247 401 l 1,5,-1
 247 1004 l 1,6,-1
 341 1004 l 1,7,-1
 341 401 l 1,8,-1
 588 401 l 1,9,-1
 588 327 l 1,10,-1
 341 327 l 1,11,-1
 341 -277 l 1,0,-1
EndSplineSet
Validated: 3073
EndChar

StartChar: uni253D
Encoding: 9533 9533 240
Width: 588
VWidth: 1024
Flags: W
HStem: 290 148<0 247> 327 74<341 588>
VStem: 247 94<-277 290 438 1004>
LayerCount: 2
Fore
SplineSet
341 -277 m 1,0,-1
 247 -277 l 1,1,-1
 247 290 l 1,2,-1
 0 290 l 1,3,-1
 0 438 l 1,4,-1
 247 438 l 1,5,-1
 247 1004 l 1,6,-1
 341 1004 l 1,7,-1
 341 401 l 1,8,-1
 588 401 l 1,9,-1
 588 327 l 1,10,-1
 341 327 l 1,11,-1
 341 -277 l 1,0,-1
EndSplineSet
Validated: 3073
EndChar

StartChar: uni253E
Encoding: 9534 9534 241
Width: 588
VWidth: 1024
Flags: W
HStem: 290 148<341 588> 327 74<0 247>
VStem: 247 94<-277 290 438 1004>
LayerCount: 2
Fore
SplineSet
247 -277 m 1,0,-1
 247 327 l 1,1,-1
 0 327 l 1,2,-1
 0 401 l 1,3,-1
 247 401 l 1,4,-1
 247 1004 l 1,5,-1
 341 1004 l 1,6,-1
 341 438 l 1,7,-1
 588 438 l 1,8,-1
 588 290 l 1,9,-1
 341 290 l 1,10,-1
 341 -277 l 1,11,-1
 247 -277 l 1,0,-1
EndSplineSet
Validated: 3073
EndChar

StartChar: uni253F
Encoding: 9535 9535 242
Width: 588
VWidth: 1024
Flags: W
HStem: 290 148<0 247 341 588>
VStem: 247 94<-277 290 438 1004>
LayerCount: 2
Fore
SplineSet
341 -277 m 1,0,-1
 247 -277 l 1,1,-1
 247 290 l 1,2,-1
 0 290 l 1,3,-1
 0 438 l 1,4,-1
 247 438 l 1,5,-1
 247 1004 l 1,6,-1
 341 1004 l 1,7,-1
 341 438 l 1,8,-1
 588 438 l 1,9,-1
 588 290 l 1,10,-1
 341 290 l 1,11,-1
 341 -277 l 1,0,-1
EndSplineSet
Validated: 3073
EndChar

StartChar: uni2540
Encoding: 9536 9536 243
Width: 588
VWidth: 1024
Flags: W
HStem: 327 74<0 200 388 588>
VStem: 200 188<401 1004> 247 94<-277 327>
LayerCount: 2
Fore
SplineSet
341 -277 m 1,0,-1
 247 -277 l 1,1,-1
 247 327 l 1,2,-1
 0 327 l 1,3,-1
 0 401 l 1,4,-1
 200 401 l 1,5,-1
 200 1004 l 1,6,-1
 388 1004 l 1,7,-1
 388 401 l 1,8,-1
 588 401 l 1,9,-1
 588 327 l 1,10,-1
 341 327 l 1,11,-1
 341 -277 l 1,0,-1
EndSplineSet
Validated: 3073
EndChar

StartChar: uni2541
Encoding: 9537 9537 244
Width: 588
VWidth: 1024
Flags: W
HStem: 327 74<0 200 388 588>
VStem: 200 188<-277 327> 247 94<401 1004>
LayerCount: 2
Fore
SplineSet
388 -277 m 1,0,-1
 200 -277 l 1,1,-1
 200 327 l 1,2,-1
 0 327 l 1,3,-1
 0 401 l 1,4,-1
 247 401 l 1,5,-1
 247 1004 l 1,6,-1
 341 1004 l 1,7,-1
 341 401 l 1,8,-1
 588 401 l 1,9,-1
 588 327 l 1,10,-1
 388 327 l 1,11,-1
 388 -277 l 1,0,-1
EndSplineSet
Validated: 3073
EndChar

StartChar: uni2542
Encoding: 9538 9538 245
Width: 588
VWidth: 1024
Flags: W
HStem: 327 74<0 200 388 588>
VStem: 200 188<-277 327 401 1004>
LayerCount: 2
Fore
SplineSet
388 -277 m 1,0,-1
 200 -277 l 1,1,-1
 200 327 l 1,2,-1
 0 327 l 1,3,-1
 0 401 l 1,4,-1
 200 401 l 1,5,-1
 200 1004 l 1,6,-1
 388 1004 l 1,7,-1
 388 401 l 1,8,-1
 588 401 l 1,9,-1
 588 327 l 1,10,-1
 388 327 l 1,11,-1
 388 -277 l 1,0,-1
EndSplineSet
Validated: 3073
EndChar

StartChar: uni2543
Encoding: 9539 9539 246
Width: 588
VWidth: 1024
Flags: W
HStem: 290 148<0 200> 327 74<388 588>
VStem: 200 188<438 1004> 247 94<-277 290>
LayerCount: 2
Fore
SplineSet
341 -277 m 1,0,-1
 247 -277 l 1,1,-1
 247 290 l 1,2,-1
 0 290 l 1,3,-1
 0 438 l 1,4,-1
 200 438 l 1,5,-1
 200 1004 l 1,6,-1
 388 1004 l 1,7,-1
 388 401 l 1,8,-1
 588 401 l 1,9,-1
 588 327 l 1,10,-1
 388 327 l 1,11,-1
 388 290 l 1,12,-1
 341 290 l 1,13,-1
 341 -277 l 1,0,-1
EndSplineSet
Validated: 3073
EndChar

StartChar: uni2544
Encoding: 9540 9540 247
Width: 588
VWidth: 1024
Flags: W
HStem: 290 148<388 588> 327 74<0 200>
VStem: 200 188<438 1004> 247 94<-277 290>
LayerCount: 2
Fore
SplineSet
341 -277 m 1,0,-1
 247 -277 l 1,1,-1
 247 290 l 1,2,-1
 200 290 l 1,3,-1
 200 327 l 1,4,-1
 0 327 l 1,5,-1
 0 401 l 1,6,-1
 200 401 l 1,7,-1
 200 1004 l 1,8,-1
 388 1004 l 1,9,-1
 388 438 l 1,10,-1
 588 438 l 1,11,-1
 588 290 l 1,12,-1
 341 290 l 1,13,-1
 341 -277 l 1,0,-1
EndSplineSet
Validated: 3073
EndChar

StartChar: uni2545
Encoding: 9541 9541 248
Width: 588
VWidth: 1024
Flags: W
HStem: 290 148<0 200> 327 74<388 588>
VStem: 200 188<-277 290> 247 94<438 1004>
LayerCount: 2
Fore
SplineSet
388 -277 m 1,0,-1
 200 -277 l 1,1,-1
 200 290 l 1,2,-1
 0 290 l 1,3,-1
 0 438 l 1,4,-1
 247 438 l 1,5,-1
 247 1004 l 1,6,-1
 341 1004 l 1,7,-1
 341 438 l 1,8,-1
 388 438 l 1,9,-1
 388 401 l 1,10,-1
 588 401 l 1,11,-1
 588 327 l 1,12,-1
 388 327 l 1,13,-1
 388 -277 l 1,0,-1
EndSplineSet
Validated: 3073
EndChar

StartChar: uni2546
Encoding: 9542 9542 249
Width: 588
VWidth: 1024
Flags: W
HStem: 290 148<388 588> 327 74<0 200>
VStem: 200 188<-277 290> 247 94<438 1004>
LayerCount: 2
Fore
SplineSet
388 -277 m 1,0,-1
 200 -277 l 1,1,-1
 200 327 l 1,2,-1
 0 327 l 1,3,-1
 0 401 l 1,4,-1
 200 401 l 1,5,-1
 200 438 l 1,6,-1
 247 438 l 1,7,-1
 247 1004 l 1,8,-1
 341 1004 l 1,9,-1
 341 438 l 1,10,-1
 588 438 l 1,11,-1
 588 290 l 1,12,-1
 388 290 l 1,13,-1
 388 -277 l 1,0,-1
EndSplineSet
Validated: 3073
EndChar

StartChar: uni2547
Encoding: 9543 9543 250
Width: 588
VWidth: 1024
Flags: W
HStem: 290 148<0 200 388 588>
VStem: 200 188<438 1004> 247 94<-277 290>
LayerCount: 2
Fore
SplineSet
341 -277 m 1,0,-1
 247 -277 l 1,1,-1
 247 290 l 1,2,-1
 0 290 l 1,3,-1
 0 438 l 1,4,-1
 200 438 l 1,5,-1
 200 1004 l 1,6,-1
 388 1004 l 1,7,-1
 388 438 l 1,8,-1
 588 438 l 1,9,-1
 588 290 l 1,10,-1
 341 290 l 1,11,-1
 341 -277 l 1,0,-1
EndSplineSet
Validated: 3073
EndChar

StartChar: uni2548
Encoding: 9544 9544 251
Width: 588
VWidth: 1024
Flags: W
HStem: 290 148<0 200 388 588>
VStem: 200 188<-277 290> 247 94<438 1004>
LayerCount: 2
Fore
SplineSet
388 -277 m 1,0,-1
 200 -277 l 1,1,-1
 200 290 l 1,2,-1
 0 290 l 1,3,-1
 0 438 l 1,4,-1
 247 438 l 1,5,-1
 247 1004 l 1,6,-1
 341 1004 l 1,7,-1
 341 438 l 1,8,-1
 588 438 l 1,9,-1
 588 290 l 1,10,-1
 388 290 l 1,11,-1
 388 -277 l 1,0,-1
EndSplineSet
Validated: 3073
EndChar

StartChar: uni2549
Encoding: 9545 9545 252
Width: 588
VWidth: 1024
Flags: W
HStem: 290 148<0 200> 327 74<388 588>
VStem: 200 188<-277 290 438 1004>
LayerCount: 2
Fore
SplineSet
388 -277 m 1,0,-1
 200 -277 l 1,1,-1
 200 290 l 1,2,-1
 0 290 l 1,3,-1
 0 438 l 1,4,-1
 200 438 l 1,5,-1
 200 1004 l 1,6,-1
 388 1004 l 1,7,-1
 388 401 l 1,8,-1
 588 401 l 1,9,-1
 588 327 l 1,10,-1
 388 327 l 1,11,-1
 388 -277 l 1,0,-1
EndSplineSet
Validated: 3073
EndChar

StartChar: uni254A
Encoding: 9546 9546 253
Width: 588
VWidth: 1024
Flags: W
HStem: 290 148<388 588> 327 74<0 200>
VStem: 200 188<-277 290 438 1004>
LayerCount: 2
Fore
SplineSet
200 -277 m 1,0,-1
 200 327 l 1,1,-1
 0 327 l 1,2,-1
 0 401 l 1,3,-1
 200 401 l 1,4,-1
 200 1004 l 1,5,-1
 388 1004 l 1,6,-1
 388 438 l 1,7,-1
 588 438 l 1,8,-1
 588 290 l 1,9,-1
 388 290 l 1,10,-1
 388 -277 l 1,11,-1
 200 -277 l 1,0,-1
EndSplineSet
Validated: 3073
EndChar

StartChar: uni254B
Encoding: 9547 9547 254
Width: 588
VWidth: 1024
Flags: W
HStem: 290 148<0 200 388 588>
VStem: 200 188<-277 290 438 1004>
LayerCount: 2
Fore
SplineSet
388 -277 m 1,0,-1
 200 -277 l 1,1,-1
 200 290 l 1,2,-1
 0 290 l 1,3,-1
 0 438 l 1,4,-1
 200 438 l 1,5,-1
 200 1004 l 1,6,-1
 388 1004 l 1,7,-1
 388 438 l 1,8,-1
 588 438 l 1,9,-1
 588 290 l 1,10,-1
 388 290 l 1,11,-1
 388 -277 l 1,0,-1
EndSplineSet
Validated: 3073
EndChar

StartChar: uni254C
Encoding: 9548 9548 255
Width: 588
VWidth: 1024
Flags: W
HStem: 327 74<59 235 353 529>
LayerCount: 2
Fore
SplineSet
353 327 m 1,0,-1
 353 401 l 1,1,-1
 529 401 l 1,2,-1
 529 327 l 1,3,-1
 353 327 l 1,0,-1
59 327 m 1,4,-1
 59 401 l 1,5,-1
 235 401 l 1,6,-1
 235 327 l 1,7,-1
 59 327 l 1,4,-1
EndSplineSet
Validated: 3073
EndChar

StartChar: uni254D
Encoding: 9549 9549 256
Width: 588
VWidth: 1024
Flags: W
HStem: 290 148<59 235 353 529>
VStem: 59 176<290 438> 353 176<290 438>
LayerCount: 2
Fore
SplineSet
353 290 m 1,0,-1
 353 438 l 1,1,-1
 529 438 l 1,2,-1
 529 290 l 1,3,-1
 353 290 l 1,0,-1
59 290 m 1,4,-1
 59 438 l 1,5,-1
 235 438 l 1,6,-1
 235 290 l 1,7,-1
 59 290 l 1,4,-1
EndSplineSet
Validated: 3073
EndChar

StartChar: uni254E
Encoding: 9550 9550 257
Width: 588
VWidth: 1024
Flags: W
VStem: 247 94<-149 235 492 876>
LayerCount: 2
Fore
SplineSet
247 492 m 1,0,-1
 247 876 l 1,1,-1
 341 876 l 1,2,-1
 341 492 l 1,3,-1
 247 492 l 1,0,-1
247 -149 m 1,4,-1
 247 235 l 1,5,-1
 341 235 l 1,6,-1
 341 -149 l 1,7,-1
 247 -149 l 1,4,-1
EndSplineSet
Validated: 3073
EndChar

StartChar: uni254F
Encoding: 9551 9551 258
Width: 588
VWidth: 1024
Flags: W
VStem: 200 188<-149 235 492 876>
LayerCount: 2
Fore
SplineSet
200 492 m 1,0,-1
 200 876 l 1,1,-1
 388 876 l 1,2,-1
 388 492 l 1,3,-1
 200 492 l 1,0,-1
200 -149 m 1,4,-1
 200 235 l 1,5,-1
 388 235 l 1,6,-1
 388 -149 l 1,7,-1
 200 -149 l 1,4,-1
EndSplineSet
Validated: 3073
EndChar

StartChar: uni2571
Encoding: 9585 9585 259
Width: 588
VWidth: 1024
Flags: W
LayerCount: 2
Fore
SplineSet
44 -290 m 1,0,-1
 -44 -262 l 1,1,-1
 544 1019 l 1,2,-1
 632 991 l 1,3,-1
 44 -290 l 1,0,-1
EndSplineSet
Validated: 3073
EndChar

StartChar: uni2572
Encoding: 9586 9586 260
Width: 588
VWidth: 1024
Flags: W
LayerCount: 2
Fore
SplineSet
544 -290 m 1,0,-1
 -44 991 l 1,1,-1
 44 1019 l 1,2,-1
 632 -262 l 1,3,-1
 544 -290 l 1,0,-1
EndSplineSet
Validated: 3073
EndChar

StartChar: uni2573
Encoding: 9587 9587 261
Width: 588
VWidth: 1024
Flags: W
LayerCount: 2
Fore
SplineSet
544 -290 m 1,0,-1
 294 257 l 1,1,-1
 44 -290 l 1,2,-1
 -44 -262 l 1,3,-1
 245 364 l 1,4,-1
 -44 991 l 1,5,-1
 44 1019 l 1,6,-1
 294 472 l 1,7,-1
 544 1019 l 1,8,-1
 632 991 l 1,9,-1
 343 364 l 1,10,-1
 632 -262 l 1,11,-1
 544 -290 l 1,0,-1
EndSplineSet
Validated: 3073
EndChar

StartChar: uni2574
Encoding: 9588 9588 262
Width: 588
VWidth: 1024
Flags: W
HStem: 327 74<0 294>
VStem: 0 294<327 401>
LayerCount: 2
Fore
SplineSet
0 327 m 1,0,-1
 0 401 l 1,1,-1
 294 401 l 1,2,-1
 294 327 l 1,3,-1
 0 327 l 1,0,-1
EndSplineSet
Validated: 3073
EndChar

StartChar: uni2575
Encoding: 9589 9589 263
Width: 588
VWidth: 1024
Flags: W
VStem: 247 94<364 1004>
LayerCount: 2
Fore
SplineSet
247 364 m 1,0,-1
 247 1004 l 1,1,-1
 341 1004 l 1,2,-1
 341 364 l 1,3,-1
 247 364 l 1,0,-1
EndSplineSet
Validated: 3073
EndChar

StartChar: uni2576
Encoding: 9590 9590 264
Width: 588
VWidth: 1024
Flags: W
HStem: 327 74<294 588>
VStem: 294 294<327 401>
LayerCount: 2
Fore
SplineSet
294 327 m 1,0,-1
 294 401 l 1,1,-1
 588 401 l 1,2,-1
 588 327 l 1,3,-1
 294 327 l 1,0,-1
EndSplineSet
Validated: 3073
EndChar

StartChar: uni2577
Encoding: 9591 9591 265
Width: 588
VWidth: 1024
Flags: W
VStem: 247 94<-277 364>
LayerCount: 2
Fore
SplineSet
247 -277 m 1,0,-1
 247 364 l 1,1,-1
 341 364 l 1,2,-1
 341 -277 l 1,3,-1
 247 -277 l 1,0,-1
EndSplineSet
Validated: 3073
EndChar

StartChar: uni2578
Encoding: 9592 9592 266
Width: 588
VWidth: 1024
Flags: W
HStem: 290 148<0 294>
VStem: 0 294<290 438>
LayerCount: 2
Fore
SplineSet
0 290 m 1,0,-1
 0 438 l 1,1,-1
 294 438 l 1,2,-1
 294 290 l 1,3,-1
 0 290 l 1,0,-1
EndSplineSet
Validated: 3073
EndChar

StartChar: uni2579
Encoding: 9593 9593 267
Width: 588
VWidth: 1024
Flags: W
VStem: 200 188<364 1004>
LayerCount: 2
Fore
SplineSet
200 364 m 1,0,-1
 200 1004 l 1,1,-1
 388 1004 l 1,2,-1
 388 364 l 1,3,-1
 200 364 l 1,0,-1
EndSplineSet
Validated: 3073
EndChar

StartChar: uni257A
Encoding: 9594 9594 268
Width: 588
VWidth: 1024
Flags: W
HStem: 290 148<294 588>
VStem: 294 294<290 438>
LayerCount: 2
Fore
SplineSet
294 290 m 1,0,-1
 294 438 l 1,1,-1
 588 438 l 1,2,-1
 588 290 l 1,3,-1
 294 290 l 1,0,-1
EndSplineSet
Validated: 3073
EndChar

StartChar: uni257B
Encoding: 9595 9595 269
Width: 588
VWidth: 1024
Flags: W
VStem: 200 188<-277 364>
LayerCount: 2
Fore
SplineSet
200 -277 m 1,0,-1
 200 364 l 1,1,-1
 388 364 l 1,2,-1
 388 -277 l 1,3,-1
 200 -277 l 1,0,-1
EndSplineSet
Validated: 3073
EndChar

StartChar: uni257C
Encoding: 9596 9596 270
Width: 588
VWidth: 1024
Flags: W
HStem: 290 148<294 588>
LayerCount: 2
Fore
SplineSet
588 290 m 1,0,-1
 294 290 l 1,1,-1
 294 327 l 1,2,-1
 0 327 l 1,3,-1
 0 401 l 1,4,-1
 294 401 l 1,5,-1
 294 438 l 1,6,-1
 588 438 l 1,7,-1
 588 290 l 1,0,-1
EndSplineSet
Validated: 3073
EndChar

StartChar: uni257D
Encoding: 9597 9597 271
Width: 588
VWidth: 1024
Flags: W
VStem: 200 188<-277 364>
LayerCount: 2
Fore
SplineSet
200 -277 m 1,0,-1
 200 364 l 1,1,-1
 247 364 l 1,2,-1
 247 1004 l 1,3,-1
 341 1004 l 1,4,-1
 341 364 l 1,5,-1
 388 364 l 1,6,-1
 388 -277 l 1,7,-1
 200 -277 l 1,0,-1
EndSplineSet
Validated: 3073
EndChar

StartChar: uni257E
Encoding: 9598 9598 272
Width: 588
VWidth: 1024
Flags: W
HStem: 290 148<0 294>
LayerCount: 2
Fore
SplineSet
0 290 m 1,0,-1
 0 438 l 1,1,-1
 294 438 l 1,2,-1
 294 401 l 1,3,-1
 588 401 l 1,4,-1
 588 327 l 1,5,-1
 294 327 l 1,6,-1
 294 290 l 1,7,-1
 0 290 l 1,0,-1
EndSplineSet
Validated: 3073
EndChar

StartChar: uni257F
Encoding: 9599 9599 273
Width: 588
VWidth: 1024
Flags: W
VStem: 200 188<364 1004>
LayerCount: 2
Fore
SplineSet
247 -277 m 1,0,-1
 247 364 l 1,1,-1
 200 364 l 1,2,-1
 200 1004 l 1,3,-1
 388 1004 l 1,4,-1
 388 364 l 1,5,-1
 341 364 l 1,6,-1
 341 -277 l 1,7,-1
 247 -277 l 1,0,-1
EndSplineSet
Validated: 3073
EndChar

StartChar: uni25A4
Encoding: 9636 9636 274
Width: 588
VWidth: 1166
Flags: W
HStem: 80 62<113 475> 203 31<113 475> 296 32<113 475> 389 31<113 475> 482 60<113 475>
VStem: 48 65<142 203 234 296 328 389 420 482> 475 65<142 203 234 296 328 389 420 482>
LayerCount: 2
Fore
SplineSet
48 80 m 1,0,-1
 48 542 l 1,1,-1
 540 542 l 1,2,-1
 540 80 l 1,3,-1
 48 80 l 1,0,-1
113 420 m 1,4,-1
 475 420 l 1,5,-1
 475 482 l 1,6,-1
 113 482 l 1,7,-1
 113 420 l 1,4,-1
113 328 m 1,8,-1
 475 328 l 1,9,-1
 475 389 l 1,10,-1
 113 389 l 1,11,-1
 113 328 l 1,8,-1
113 234 m 1,12,-1
 475 234 l 1,13,-1
 475 296 l 1,14,-1
 113 296 l 1,15,-1
 113 234 l 1,12,-1
113 142 m 1,16,-1
 475 142 l 1,17,-1
 475 203 l 1,18,-1
 113 203 l 1,19,-1
 113 142 l 1,16,-1
EndSplineSet
Validated: 3073
EndChar

StartChar: uni25A5
Encoding: 9637 9637 275
Width: 588
VWidth: 1166
Flags: W
HStem: 80 62<113 176 214 275 313 374 412 475> 482 60<113 176 214 275 313 374 412 475>
VStem: 48 65<142 482> 176 38<142 482> 275 38<142 482> 374 38<142 482> 475 65<142 482>
LayerCount: 2
Fore
SplineSet
48 80 m 1,0,-1
 48 542 l 1,1,-1
 540 542 l 1,2,-1
 540 80 l 1,3,-1
 48 80 l 1,0,-1
475 142 m 1,4,-1
 475 482 l 1,5,-1
 412 482 l 1,6,-1
 412 142 l 1,7,-1
 475 142 l 1,4,-1
313 142 m 1,8,-1
 374 142 l 1,9,-1
 374 482 l 1,10,-1
 313 482 l 1,11,-1
 313 142 l 1,8,-1
214 142 m 1,12,-1
 275 142 l 1,13,-1
 275 482 l 1,14,-1
 214 482 l 1,15,-1
 214 142 l 1,12,-1
113 142 m 1,16,-1
 176 142 l 1,17,-1
 176 482 l 1,18,-1
 113 482 l 1,19,-1
 113 142 l 1,16,-1
EndSplineSet
Validated: 3073
EndChar

StartChar: uni25A6
Encoding: 9638 9638 276
Width: 588
VWidth: 1166
Flags: W
HStem: 80 62<113 176 214 275 313 374 412 475> 203 31<113 176 214 275 313 374 412 475> 296 32<113 176 214 275 313 374 412 475> 389 31<113 176 214 275 313 374 412 475> 482 60<113 176 214 275 313 374 412 475>
VStem: 48 65<142 203 234 296 328 389 420 482> 176 38<142 203 234 296 328 389 420 482> 275 38<142 203 234 296 328 389 420 482> 374 38<142 203 234 296 328 389 420 482> 475 65<142 203 234 296 328 389 420 482>
LayerCount: 2
Fore
SplineSet
48 80 m 1,0,-1
 48 542 l 1,1,-1
 540 542 l 1,2,-1
 540 80 l 1,3,-1
 48 80 l 1,0,-1
412 420 m 1,4,-1
 475 420 l 1,5,-1
 475 482 l 1,6,-1
 412 482 l 1,7,-1
 412 420 l 1,4,-1
313 420 m 1,8,-1
 374 420 l 1,9,-1
 374 482 l 1,10,-1
 313 482 l 1,11,-1
 313 420 l 1,8,-1
214 420 m 1,12,-1
 275 420 l 1,13,-1
 275 482 l 1,14,-1
 214 482 l 1,15,-1
 214 420 l 1,12,-1
113 420 m 1,16,-1
 176 420 l 1,17,-1
 176 482 l 1,18,-1
 113 482 l 1,19,-1
 113 420 l 1,16,-1
412 328 m 1,20,-1
 475 328 l 1,21,-1
 475 389 l 1,22,-1
 412 389 l 1,23,-1
 412 328 l 1,20,-1
313 328 m 1,24,-1
 374 328 l 1,25,-1
 374 389 l 1,26,-1
 313 389 l 1,27,-1
 313 328 l 1,24,-1
214 328 m 1,28,-1
 275 328 l 1,29,-1
 275 389 l 1,30,-1
 214 389 l 1,31,-1
 214 328 l 1,28,-1
113 328 m 1,32,-1
 176 328 l 1,33,-1
 176 389 l 1,34,-1
 113 389 l 1,35,-1
 113 328 l 1,32,-1
412 234 m 1,36,-1
 475 234 l 1,37,-1
 475 296 l 1,38,-1
 412 296 l 1,39,-1
 412 234 l 1,36,-1
313 234 m 1,40,-1
 374 234 l 1,41,-1
 374 296 l 1,42,-1
 313 296 l 1,43,-1
 313 234 l 1,40,-1
214 234 m 1,44,-1
 275 234 l 1,45,-1
 275 296 l 1,46,-1
 214 296 l 1,47,-1
 214 234 l 1,44,-1
113 234 m 1,48,-1
 176 234 l 1,49,-1
 176 296 l 1,50,-1
 113 296 l 1,51,-1
 113 234 l 1,48,-1
412 142 m 1,52,-1
 475 142 l 1,53,-1
 475 203 l 1,54,-1
 412 203 l 1,55,-1
 412 142 l 1,52,-1
313 142 m 1,56,-1
 374 142 l 1,57,-1
 374 203 l 1,58,-1
 313 203 l 1,59,-1
 313 142 l 1,56,-1
214 142 m 1,60,-1
 275 142 l 1,61,-1
 275 203 l 1,62,-1
 214 203 l 1,63,-1
 214 142 l 1,60,-1
113 142 m 1,64,-1
 176 142 l 1,65,-1
 176 203 l 1,66,-1
 113 203 l 1,67,-1
 113 142 l 1,64,-1
EndSplineSet
Validated: 3073
EndChar

StartChar: uni25A7
Encoding: 9639 9639 277
Width: 588
VWidth: 1166
Flags: W
HStem: 80 62<123 213 246 336 369 459> 482 60<129 219 252 342 375 465>
VStem: 48 65<151 235 266 352 383 467> 475 65<157 241 271 356 388 472>
LayerCount: 2
Fore
SplineSet
48 80 m 1,0,-1
 48 542 l 1,1,-1
 540 542 l 1,2,-1
 540 80 l 1,3,-1
 48 80 l 1,0,-1
475 388 m 1,4,-1
 475 472 l 1,5,-1
 465 482 l 1,6,-1
 375 482 l 1,7,-1
 475 388 l 1,4,-1
475 271 m 1,8,-1
 475 356 l 1,9,-1
 342 482 l 1,10,-1
 252 482 l 1,11,-1
 475 271 l 1,8,-1
475 157 m 1,12,-1
 475 241 l 1,13,-1
 219 482 l 1,14,-1
 129 482 l 1,15,-1
 475 157 l 1,12,-1
369 142 m 1,16,-1
 459 142 l 1,17,-1
 113 467 l 1,18,-1
 113 383 l 1,19,-1
 369 142 l 1,16,-1
246 142 m 1,20,-1
 336 142 l 1,21,-1
 113 352 l 1,22,-1
 113 266 l 1,23,-1
 246 142 l 1,20,-1
123 142 m 1,24,-1
 213 142 l 1,25,-1
 113 235 l 1,26,-1
 113 151 l 1,27,-1
 123 142 l 1,24,-1
EndSplineSet
Validated: 3073
EndChar

StartChar: uni25A8
Encoding: 9640 9640 278
Width: 588
VWidth: 1166
Flags: W
HStem: 80 62<129 219 252 342 375 465> 482 60<123 213 246 336 369 459>
VStem: 48 65<157 241 271 356 388 472> 475 65<151 235 266 352 383 467>
LayerCount: 2
Fore
SplineSet
48 80 m 1,0,-1
 48 542 l 1,1,-1
 540 542 l 1,2,-1
 540 80 l 1,3,-1
 48 80 l 1,0,-1
113 157 m 1,4,-1
 459 482 l 1,5,-1
 369 482 l 1,6,-1
 113 241 l 1,7,-1
 113 157 l 1,4,-1
113 271 m 1,8,-1
 336 482 l 1,9,-1
 246 482 l 1,10,-1
 113 356 l 1,11,-1
 113 271 l 1,8,-1
113 388 m 1,12,-1
 213 482 l 1,13,-1
 123 482 l 1,14,-1
 113 472 l 1,15,-1
 113 388 l 1,12,-1
129 142 m 1,16,-1
 219 142 l 1,17,-1
 475 383 l 1,18,-1
 475 467 l 1,19,-1
 129 142 l 1,16,-1
252 142 m 1,20,-1
 342 142 l 1,21,-1
 475 266 l 1,22,-1
 475 352 l 1,23,-1
 252 142 l 1,20,-1
375 142 m 1,24,-1
 465 142 l 1,25,-1
 475 151 l 1,26,-1
 475 235 l 1,27,-1
 375 142 l 1,24,-1
EndSplineSet
Validated: 3073
EndChar

StartChar: uni25A9
Encoding: 9641 9641 279
Width: 588
VWidth: 1166
Flags: W
HStem: 80 62<129 213 252 336 375 459> 482 60<129 213 252 336 375 459>
VStem: 48 65<157 235 271 352 388 467> 475 65<157 235 271 352 388 467>
LayerCount: 2
Fore
SplineSet
48 80 m 1,0,-1
 48 542 l 1,1,-1
 540 542 l 1,2,-1
 540 80 l 1,3,-1
 48 80 l 1,0,-1
417 443 m 1,4,-1
 459 482 l 1,5,-1
 375 482 l 1,6,-1
 417 443 l 1,4,-1
294 443 m 1,7,-1
 336 482 l 1,8,-1
 252 482 l 1,9,-1
 294 443 l 1,7,-1
172 443 m 1,10,-1
 213 482 l 1,11,-1
 129 482 l 1,12,-1
 172 443 l 1,10,-1
355 385 m 1,13,-1
 400 428 l 1,14,-1
 355 470 l 1,15,-1
 310 428 l 1,16,-1
 355 385 l 1,13,-1
233 385 m 1,17,-1
 278 428 l 1,18,-1
 233 470 l 1,19,-1
 188 428 l 1,20,-1
 233 385 l 1,17,-1
113 388 m 1,21,-1
 154 428 l 1,22,-1
 113 467 l 1,23,-1
 113 388 l 1,21,-1
475 388 m 1,24,-1
 475 467 l 1,25,-1
 434 428 l 1,26,-1
 475 388 l 1,24,-1
417 328 m 1,27,-1
 462 370 l 1,28,-1
 417 412 l 1,29,-1
 372 370 l 1,30,-1
 417 328 l 1,27,-1
172 328 m 1,31,-1
 216 370 l 1,32,-1
 172 412 l 1,33,-1
 126 370 l 1,34,-1
 172 328 l 1,31,-1
294 328 m 1,35,-1
 339 370 l 1,36,-1
 294 412 l 1,37,-1
 249 370 l 1,38,-1
 294 328 l 1,35,-1
355 270 m 1,39,-1
 400 312 l 1,40,-1
 355 354 l 1,41,-1
 310 312 l 1,42,-1
 355 270 l 1,39,-1
233 270 m 1,43,-1
 278 312 l 1,44,-1
 233 354 l 1,45,-1
 188 312 l 1,46,-1
 233 270 l 1,43,-1
113 271 m 1,47,-1
 154 312 l 1,48,-1
 113 352 l 1,49,-1
 113 271 l 1,47,-1
475 271 m 1,50,-1
 475 352 l 1,51,-1
 434 312 l 1,52,-1
 475 271 l 1,50,-1
417 212 m 1,53,-1
 462 254 l 1,54,-1
 417 296 l 1,55,-1
 372 254 l 1,56,-1
 417 212 l 1,53,-1
172 212 m 1,57,-1
 216 254 l 1,58,-1
 172 296 l 1,59,-1
 126 254 l 1,60,-1
 172 212 l 1,57,-1
294 212 m 1,61,-1
 339 254 l 1,62,-1
 294 296 l 1,63,-1
 249 254 l 1,64,-1
 294 212 l 1,61,-1
355 154 m 1,65,-1
 400 197 l 1,66,-1
 355 239 l 1,67,-1
 310 197 l 1,68,-1
 355 154 l 1,65,-1
233 154 m 1,69,-1
 278 197 l 1,70,-1
 233 239 l 1,71,-1
 188 197 l 1,72,-1
 233 154 l 1,69,-1
113 157 m 1,73,-1
 154 197 l 1,74,-1
 113 235 l 1,75,-1
 113 157 l 1,73,-1
475 157 m 1,76,-1
 475 235 l 1,77,-1
 434 197 l 1,78,-1
 475 157 l 1,76,-1
375 142 m 1,79,-1
 459 142 l 1,80,-1
 417 180 l 1,81,-1
 375 142 l 1,79,-1
129 142 m 1,82,-1
 213 142 l 1,83,-1
 172 180 l 1,84,-1
 129 142 l 1,82,-1
252 142 m 1,85,-1
 336 142 l 1,86,-1
 294 180 l 1,87,-1
 252 142 l 1,85,-1
EndSplineSet
Validated: 3073
EndChar

StartChar: uni25AF
Encoding: 9647 9647 280
Width: 588
VWidth: 1166
Flags: W
HStem: -35 60<113 475> 599 60<113 475>
VStem: 48 65<25 599> 475 65<25 599>
LayerCount: 2
Fore
SplineSet
48 -35 m 1,0,-1
 48 659 l 1,1,-1
 540 659 l 1,2,-1
 540 -35 l 1,3,-1
 48 -35 l 1,0,-1
475 25 m 1,4,-1
 475 599 l 1,5,-1
 113 599 l 1,6,-1
 113 25 l 1,7,-1
 475 25 l 1,4,-1
EndSplineSet
Validated: 3073
EndChar

StartChar: uni25B3
Encoding: 9651 9651 281
Width: 588
VWidth: 1166
Flags: W
HStem: 80 62<122 466>
LayerCount: 2
Fore
SplineSet
11 80 m 1,0,-1
 294 542 l 1,1,-1
 577 80 l 1,2,-1
 11 80 l 1,0,-1
466 142 m 1,3,-1
 294 421 l 1,4,-1
 122 142 l 1,5,-1
 466 142 l 1,3,-1
EndSplineSet
Validated: 3073
EndChar

StartChar: uni25B4
Encoding: 9652 9652 282
Width: 588
VWidth: 1166
Flags: W
HStem: 465 20G<281.723 306.277>
LayerCount: 2
Fore
SplineSet
81 138 m 1,0,-1
 294 485 l 1,1,-1
 507 138 l 1,2,-1
 81 138 l 1,0,-1
EndSplineSet
Validated: 3073
EndChar

StartChar: uni25B5
Encoding: 9653 9653 283
Width: 588
VWidth: 1166
Flags: W
HStem: 138 61<193 395> 465 20G<281.723 306.277>
LayerCount: 2
Fore
SplineSet
81 138 m 1,0,-1
 294 485 l 1,1,-1
 507 138 l 1,2,-1
 81 138 l 1,0,-1
395 199 m 1,3,-1
 294 364 l 1,4,-1
 193 199 l 1,5,-1
 395 199 l 1,3,-1
EndSplineSet
Validated: 3073
EndChar

StartChar: uni25B6
Encoding: 9654 9654 284
Width: 588
VWidth: 1166
Flags: W
LayerCount: 2
Fore
SplineSet
48 44 m 1,0,-1
 48 578 l 1,1,-1
 540 312 l 1,2,-1
 48 44 l 1,0,-1
EndSplineSet
Validated: 3073
EndChar

StartChar: uni25B7
Encoding: 9655 9655 285
Width: 588
VWidth: 1166
Flags: W
VStem: 48 65<150 473>
LayerCount: 2
Fore
SplineSet
48 44 m 1,0,-1
 48 578 l 1,1,-1
 540 312 l 1,2,-1
 48 44 l 1,0,-1
113 150 m 1,3,-1
 410 312 l 1,4,-1
 113 473 l 1,5,-1
 113 150 l 1,3,-1
EndSplineSet
Validated: 3073
EndChar

StartChar: uni25B8
Encoding: 9656 9656 286
Width: 588
VWidth: 1166
Flags: W
LayerCount: 2
Fore
SplineSet
109 112 m 1,0,-1
 109 512 l 1,1,-1
 479 312 l 1,2,-1
 109 112 l 1,0,-1
EndSplineSet
Validated: 3073
EndChar

StartChar: uni25B9
Encoding: 9657 9657 287
Width: 588
VWidth: 1166
Flags: W
VStem: 109 65<216 407>
LayerCount: 2
Fore
SplineSet
109 112 m 1,0,-1
 109 512 l 1,1,-1
 479 312 l 1,2,-1
 109 112 l 1,0,-1
174 216 m 1,3,-1
 349 312 l 1,4,-1
 174 407 l 1,5,-1
 174 216 l 1,3,-1
EndSplineSet
Validated: 3073
EndChar

StartChar: uni25BD
Encoding: 9661 9661 288
Width: 588
VWidth: 1166
Flags: W
HStem: 482 60<122 466>
LayerCount: 2
Fore
SplineSet
294 80 m 1,0,-1
 11 542 l 1,1,-1
 577 542 l 1,2,-1
 294 80 l 1,0,-1
294 202 m 1,3,-1
 466 482 l 1,4,-1
 122 482 l 1,5,-1
 294 202 l 1,3,-1
EndSplineSet
Validated: 3073
EndChar

StartChar: uni25BE
Encoding: 9662 9662 289
Width: 588
VWidth: 1166
Flags: W
HStem: 465 20G<81 507>
LayerCount: 2
Fore
SplineSet
294 138 m 1,0,-1
 81 485 l 1,1,-1
 507 485 l 1,2,-1
 294 138 l 1,0,-1
EndSplineSet
Validated: 3073
EndChar

StartChar: uni25BF
Encoding: 9663 9663 290
Width: 588
VWidth: 1166
Flags: W
HStem: 425 60<193 395>
LayerCount: 2
Fore
SplineSet
294 138 m 1,0,-1
 81 485 l 1,1,-1
 507 485 l 1,2,-1
 294 138 l 1,0,-1
294 259 m 1,3,-1
 395 425 l 1,4,-1
 193 425 l 1,5,-1
 294 259 l 1,3,-1
EndSplineSet
Validated: 3073
EndChar

StartChar: uni25C0
Encoding: 9664 9664 291
Width: 588
VWidth: 1166
Flags: W
LayerCount: 2
Fore
SplineSet
540 44 m 1,0,-1
 48 312 l 1,1,-1
 540 578 l 1,2,-1
 540 44 l 1,0,-1
EndSplineSet
Validated: 3073
EndChar

StartChar: uni25C1
Encoding: 9665 9665 292
Width: 588
VWidth: 1166
Flags: W
VStem: 475 65<150 473>
LayerCount: 2
Fore
SplineSet
540 44 m 1,0,-1
 48 312 l 1,1,-1
 540 578 l 1,2,-1
 540 44 l 1,0,-1
475 150 m 1,3,-1
 475 473 l 1,4,-1
 178 312 l 1,5,-1
 475 150 l 1,3,-1
EndSplineSet
Validated: 3073
EndChar

StartChar: uni25C2
Encoding: 9666 9666 293
Width: 588
VWidth: 1166
Flags: W
LayerCount: 2
Fore
SplineSet
479 112 m 1,0,-1
 109 312 l 1,1,-1
 479 512 l 1,2,-1
 479 112 l 1,0,-1
EndSplineSet
Validated: 3073
EndChar

StartChar: uni25C3
Encoding: 9667 9667 294
Width: 588
VWidth: 1166
Flags: W
VStem: 414 65<216 407>
LayerCount: 2
Fore
SplineSet
479 112 m 1,0,-1
 109 312 l 1,1,-1
 479 512 l 1,2,-1
 479 112 l 1,0,-1
414 216 m 1,3,-1
 414 407 l 1,4,-1
 239 312 l 1,5,-1
 414 216 l 1,3,-1
EndSplineSet
Validated: 3073
EndChar

StartChar: uni25B0
Encoding: 9648 9648 295
Width: 588
VWidth: 1166
Flags: W
HStem: 157 309<109 479>
LayerCount: 2
Fore
SplineSet
479 157 m 1,0,-1
 -13 157 l 1,1,-1
 109 466 l 1,2,-1
 601 466 l 1,3,-1
 479 157 l 1,0,-1
EndSplineSet
Validated: 3073
EndChar

StartChar: uni25B1
Encoding: 9649 9649 296
Width: 588
VWidth: 1166
Flags: W
HStem: 157 61<87 427> 404 62<161 501>
LayerCount: 2
Fore
SplineSet
-13 157 m 1,0,-1
 109 466 l 1,1,-1
 601 466 l 1,2,-1
 577 404 l 1,3,-1
 479 157 l 1,4,-1
 -13 157 l 1,0,-1
87 218 m 1,5,-1
 427 218 l 1,6,-1
 501 404 l 1,7,-1
 161 404 l 1,8,-1
 87 218 l 1,5,-1
EndSplineSet
Validated: 3073
EndChar

StartChar: uni25CE
Encoding: 9678 9678 297
Width: 588
VWidth: 1166
Flags: W
HStem: 80 46<201.27 387.425> 197 45<240.866 346.799> 382 46<241.784 346.131> 498 44<201.715 387.049>
VStem: 48 48<226.36 396.33> 172 48<262.587 361.488> 368 49<262.264 360.685> 492 48<225.58 396.557>
LayerCount: 2
Fore
SplineSet
294 80 m 256,0,1
 225 80 225 80 169 112.5 c 128,-1,2
 113 145 113 145 81 196 c 0,3,4
 48 252 48 252 48 312 c 0,5,6
 48 378 48 378 83.5 431 c 128,-1,7
 119 484 119 484 171 512 c 0,8,9
 229 542 229 542 294 542 c 256,10,11
 364 542 364 542 419 510.5 c 128,-1,12
 474 479 474 479 507 428 c 0,13,14
 540 372 540 372 540 312 c 0,15,16
 540 245 540 245 505.5 193 c 128,-1,17
 471 141 471 141 417 112 c 0,18,19
 359 80 359 80 294 80 c 256,0,1
294 126 m 256,20,21
 350 126 350 126 396 152 c 128,-1,22
 442 178 442 178 466 218 c 0,23,24
 492 260 492 260 492 312 c 0,25,26
 492 366 492 366 464 407.5 c 128,-1,27
 436 449 436 449 393 473 c 0,28,29
 347 498 347 498 294 498 c 0,30,31
 238 498 238 498 192.5 471.5 c 128,-1,32
 147 445 147 445 122 404 c 0,33,34
 96 362 96 362 96 312 c 0,35,36
 96 258 96 258 124 216 c 128,-1,37
 152 174 152 174 195 151 c 0,38,39
 243 126 243 126 294 126 c 256,20,21
294 197 m 0,40,41
 242 197 242 197 207 229.5 c 128,-1,42
 172 262 172 262 172 312 c 128,-1,43
 172 362 172 362 207 395 c 128,-1,44
 242 428 242 428 294 428 c 0,45,46
 347 428 347 428 381.5 395.5 c 128,-1,47
 416 363 416 363 417 312 c 0,48,49
 416 261 416 261 381.5 229 c 128,-1,50
 347 197 347 197 294 197 c 0,40,41
294 382 m 256,51,52
 264 382 264 382 242 362 c 128,-1,53
 220 342 220 342 220 312 c 128,-1,54
 220 282 220 282 241.5 262 c 128,-1,55
 263 242 263 242 294 242 c 128,-1,56
 325 242 325 242 346.5 262 c 128,-1,57
 368 282 368 282 368 312 c 128,-1,58
 368 342 368 342 346.5 361 c 128,-1,59
 325 380 325 380 294 382 c 256,51,52
EndSplineSet
Validated: 3073
EndChar

StartChar: H18533
Encoding: 9679 9679 298
Width: 588
VWidth: 1166
Flags: W
HStem: 80 462<190.86 395.245>
VStem: 48 492<217.141 406.849>
LayerCount: 2
Fore
SplineSet
294 80 m 256,0,1
 225 80 225 80 169.5 113 c 128,-1,2
 114 146 114 146 81 196 c 0,3,4
 48 252 48 252 48 312 c 0,5,6
 48 377 48 377 83.5 431 c 128,-1,7
 119 485 119 485 171 512 c 0,8,9
 228 542 228 542 294 542 c 256,10,11
 431 542 431 542 507 428 c 0,12,13
 540 372 540 372 540 312 c 0,14,15
 540 246 540 246 505 193 c 128,-1,16
 470 140 470 140 417 112 c 0,17,18
 356 80 356 80 294 80 c 256,0,1
EndSplineSet
Validated: 3073
EndChar

StartChar: uni25D0
Encoding: 9680 9680 299
Width: 588
VWidth: 1166
Flags: W
HStem: 80 62<294 384.523> 482 60<294 380.979>
VStem: 48 246<217.141 407.459> 475 65<230.324 392.399>
LayerCount: 2
Fore
SplineSet
294 80 m 256,0,1
 225 80 225 80 169.5 113 c 128,-1,2
 114 146 114 146 81 196 c 0,3,4
 48 252 48 252 48 312 c 0,5,6
 48 377 48 377 84 432 c 128,-1,7
 120 487 120 487 171 512 c 0,8,9
 231 542 231 542 294 542 c 256,10,11
 431 542 431 542 507 428 c 0,12,13
 540 372 540 372 540 312 c 0,14,15
 540 246 540 246 505 193 c 128,-1,16
 470 140 470 140 417 112 c 0,17,18
 356 80 356 80 294 80 c 256,0,1
294 142 m 1,19,20
 347 142 347 142 387.5 165 c 128,-1,21
 428 188 428 188 451 226 c 0,22,23
 475 265 475 265 475 312 c 0,24,25
 475 361 475 361 449 399.5 c 128,-1,26
 423 438 423 438 384 460 c 0,27,28
 346 482 346 482 294 482 c 1,29,-1
 294 142 l 1,19,20
EndSplineSet
Validated: 3073
EndChar

StartChar: uni25D1
Encoding: 9681 9681 300
Width: 588
VWidth: 1166
Flags: W
HStem: 80 62<203.643 294> 482 60<206.054 294>
VStem: 48 65<230.091 392.453> 294 246<216.81 406.859>
LayerCount: 2
Fore
SplineSet
294 80 m 256,0,1
 225 80 225 80 169.5 113 c 128,-1,2
 114 146 114 146 81 196 c 0,3,4
 48 252 48 252 48 312 c 0,5,6
 48 377 48 377 83.5 431 c 128,-1,7
 119 485 119 485 171 512 c 0,8,9
 229 542 229 542 294 542 c 256,10,11
 431 542 431 542 507 428 c 0,12,13
 540 372 540 372 540 312 c 0,14,15
 540 246 540 246 505 193 c 128,-1,16
 470 140 470 140 417 112 c 0,17,18
 356 80 356 80 294 80 c 256,0,1
294 142 m 1,19,-1
 294 482 l 1,20,21
 242 482 242 482 201 458 c 128,-1,22
 160 434 160 434 137 396 c 0,23,24
 113 357 113 357 113 312 c 0,25,26
 113 263 113 263 139 223 c 128,-1,27
 165 183 165 183 204 163 c 0,28,29
 246 142 246 142 294 142 c 1,19,-1
EndSplineSet
Validated: 3073
EndChar

StartChar: uni25D2
Encoding: 9682 9682 301
Width: 588
VWidth: 1166
Flags: W
HStem: 81 231<191.975 396.571> 483 58<206.17 381.442>
VStem: 48 65<312 392.353> 475 65<312 393.512>
LayerCount: 2
Fore
SplineSet
294 81 m 260,0,1
 226 81 226 81 168 114.5 c 128,-1,2
 110 148 110 148 81 196 c 0,3,4
 48 252 48 252 48 312 c 0,5,6
 48 380 48 380 82 431.5 c 128,-1,7
 116 483 116 483 171 511 c 0,8,9
 229 541 229 541 294 541 c 256,10,11
 366 541 366 541 421.5 509.5 c 128,-1,12
 477 478 477 478 507 429 c 0,13,14
 540 373 540 373 540 312 c 0,15,16
 540 246 540 246 505 193 c 128,-1,17
 470 140 470 140 417 112 c 0,18,19
 358 81 358 81 294 81 c 260,0,1
113 312 m 5,20,-1
 475 312 l 1,21,22
 475 407 475 407 384 460 c 0,23,24
 344 483 344 483 294 483 c 0,25,26
 243 483 243 483 201 458.5 c 128,-1,27
 159 434 159 434 137 397 c 0,28,29
 113 358 113 358 113 312 c 5,20,-1
EndSplineSet
Validated: 3073
EndChar

StartChar: uni25D3
Encoding: 9683 9683 302
Width: 588
VWidth: 1166
Flags: W
HStem: 80 62<203.214 384.74> 312 230<189.296 402.199>
VStem: 48 65<230.579 312> 475 65<230.974 312>
LayerCount: 2
Fore
SplineSet
294 80 m 260,0,1
 225 80 225 80 169.5 113 c 128,-1,2
 114 146 114 146 81 196 c 0,3,4
 48 252 48 252 48 312 c 0,5,6
 48 377 48 377 83.5 431 c 128,-1,7
 119 485 119 485 171 512 c 0,8,9
 229 542 229 542 294 542 c 256,10,11
 431 542 431 542 507 428 c 0,12,13
 540 372 540 372 540 312 c 0,14,15
 540 246 540 246 505 193 c 128,-1,16
 470 140 470 140 417 112 c 0,17,18
 356 80 356 80 294 80 c 260,0,1
294 142 m 260,19,20
 347 142 347 142 387.5 165 c 128,-1,21
 428 188 428 188 451 226 c 0,22,23
 475 265 475 265 475 312 c 1,24,-1
 113 312 l 1,25,26
 113 263 113 263 139 223 c 128,-1,27
 165 183 165 183 204 163 c 0,28,29
 246 142 246 142 294 142 c 260,19,20
EndSplineSet
Validated: 3073
EndChar

StartChar: uni25D4
Encoding: 9684 9684 303
Width: 588
VWidth: 1166
Flags: W
HStem: 80 62<203.214 384.74> 482 60<206.054 294>
VStem: 48 65<230.091 392.453> 475 65<230.974 312>
LayerCount: 2
Fore
SplineSet
294 80 m 260,0,1
 225 80 225 80 169.5 113 c 128,-1,2
 114 146 114 146 81 196 c 0,3,4
 48 252 48 252 48 312 c 0,5,6
 48 377 48 377 83.5 431 c 128,-1,7
 119 485 119 485 171 512 c 0,8,9
 229 542 229 542 294 542 c 256,10,11
 431 542 431 542 507 428 c 0,12,13
 540 372 540 372 540 312 c 0,14,15
 540 246 540 246 505 193 c 128,-1,16
 470 140 470 140 417 112 c 0,17,18
 356 80 356 80 294 80 c 260,0,1
294 142 m 260,19,20
 347 142 347 142 387.5 165 c 128,-1,21
 428 188 428 188 451 226 c 0,22,23
 475 265 475 265 475 312 c 1,24,-1
 294 312 l 1,25,-1
 294 482 l 1,26,27
 242 482 242 482 201 458 c 128,-1,28
 160 434 160 434 137 396 c 0,29,30
 113 357 113 357 113 312 c 0,31,32
 113 263 113 263 139 223 c 128,-1,33
 165 183 165 183 204 163 c 0,34,35
 246 142 246 142 294 142 c 260,19,20
EndSplineSet
Validated: 3073
EndChar

StartChar: uni25D5
Encoding: 9685 9685 304
Width: 588
VWidth: 1166
Flags: W
HStem: 80 232<190.787 294> 482 60<206.054 294>
VStem: 48 65<312 392.575> 294 246<312 406.859>
LayerCount: 2
Fore
SplineSet
294 80 m 260,0,1
 225 80 225 80 169.5 113 c 128,-1,2
 114 146 114 146 81 196 c 0,3,4
 48 252 48 252 48 312 c 0,5,6
 48 377 48 377 83.5 431 c 128,-1,7
 119 485 119 485 171 512 c 0,8,9
 229 542 229 542 294 542 c 256,10,11
 431 542 431 542 507 428 c 0,12,13
 540 372 540 372 540 312 c 0,14,15
 540 246 540 246 505 193 c 128,-1,16
 470 140 470 140 417 112 c 0,17,18
 356 80 356 80 294 80 c 260,0,1
113 312 m 5,19,-1
 294 312 l 1,20,-1
 294 482 l 1,21,22
 242 482 242 482 201 458 c 128,-1,23
 160 434 160 434 137 397 c 0,24,25
 113 358 113 358 113 312 c 5,19,-1
EndSplineSet
Validated: 3073
EndChar

StartChar: uni25E2
Encoding: 9698 9698 305
Width: 588
VWidth: 1166
Flags: W
LayerCount: 2
Fore
SplineSet
48 80 m 1,0,-1
 540 542 l 1,1,-1
 540 80 l 1,2,-1
 48 80 l 1,0,-1
EndSplineSet
Validated: 3073
EndChar

StartChar: uni25E3
Encoding: 9699 9699 306
Width: 588
VWidth: 1166
Flags: W
LayerCount: 2
Fore
SplineSet
48 80 m 1,0,-1
 48 542 l 1,1,-1
 540 80 l 1,2,-1
 48 80 l 1,0,-1
EndSplineSet
Validated: 3073
EndChar

StartChar: uni25E4
Encoding: 9700 9700 307
Width: 588
VWidth: 1166
Flags: W
LayerCount: 2
Fore
SplineSet
48 80 m 1,0,-1
 48 542 l 1,1,-1
 540 542 l 1,2,-1
 48 80 l 1,0,-1
EndSplineSet
Validated: 3073
EndChar

StartChar: uni25E5
Encoding: 9701 9701 308
Width: 588
VWidth: 1166
Flags: W
LayerCount: 2
Fore
SplineSet
540 80 m 1,0,-1
 48 542 l 1,1,-1
 540 542 l 1,2,-1
 540 80 l 1,0,-1
EndSplineSet
Validated: 3073
EndChar

StartChar: cent
Encoding: 162 162 309
Width: 588
VWidth: 1024
Flags: W
HStem: -74 154<254.427 335.348> 16 64<205.519 254 336 389.092> 450 154<254.427 341.448>
VStem: 62 83<141.188 389.469> 254 82<-74 18.75 511.402 604> 447 79<134.781 165.772 364.228 395.219>
LayerCount: 2
Fore
SplineSet
254 -74 m 5,0,-1
 254 16 l 1,1,2
 216 20 216 20 180 36 c 0,3,4
 130 57 130 57 100 98 c 0,5,6
 62 151 62 151 62 223 c 2,7,-1
 62 307 l 2,8,9
 62 380 62 380 100 432 c 0,10,11
 129 472 129 472 180 494 c 0,12,13
 212 509 212 509 254 514 c 1,14,-1
 254 604 l 1,15,-1
 342 604 l 1,16,-1
 342 514 l 1,17,18
 391 506 391 506 416 494 c 0,19,20
 465 471 465 471 494 432 c 0,21,22
 515 404 515 404 526 366 c 1,23,-1
 447 346 l 1,24,25
 441 376 441 376 423 398 c 0,26,27
 404 423 404 423 373 437 c 0,28,29
 346 450 346 450 296 450 c 0,30,31
 248 450 248 450 221 437 c 0,32,33
 190 423 190 423 173 399 c 0,34,35
 145 362 145 362 145 307 c 2,36,-1
 145 223 l 2,37,38
 145 171 145 171 173 131 c 0,39,40
 190 108 190 108 221 93 c 0,41,42
 248 80 248 80 296 80 c 0,43,44
 346 80 346 80 373 93 c 0,45,46
 404 107 404 107 423 132 c 0,47,48
 441 154 441 154 447 184 c 1,49,-1
 526 164 l 1,50,51
 518 132 518 132 494 98 c 0,52,53
 467 59 467 59 416 36 c 0,54,55
 380 20 380 20 336 16 c 1,56,-1
 336 -74 l 1,57,-1
 254 -74 l 5,0,-1
EndSplineSet
Validated: 3073
EndChar

StartChar: sterling
Encoding: 163 163 310
Width: 588
VWidth: 1024
Flags: W
HStem: 0 73<186 517> 326 73<93 160 242 383> 619 66<272.844 384.543>
VStem: 160 82<143.965 326 399 584.358> 414 87<553.908 587.188>
LayerCount: 2
Fore
SplineSet
71 0 m 5,0,-1
 71 73 l 1,1,2
 104 92 104 92 126 123 c 0,3,4
 160 169 160 169 160 257 c 2,5,-1
 160 326 l 1,6,-1
 93 326 l 1,7,-1
 93 399 l 1,8,-1
 160 399 l 1,9,-1
 160 498 l 2,10,11
 160 572 160 572 195 621 c 0,12,13
 220 654 220 654 256 670 c 0,14,15
 289 685 289 685 334 685 c 0,16,17
 378 685 378 685 410 670 c 0,18,19
 447 654 447 654 472 621 c 0,20,21
 494 592 494 592 501 556 c 1,22,-1
 414 530 l 1,23,24
 410 562 410 562 392 588 c 0,25,26
 382 604 382 604 362 613 c 0,27,28
 350 619 350 619 328 619 c 0,29,30
 308 619 308 619 294 613 c 0,31,32
 277 605 277 605 267 590 c 0,33,34
 242 558 242 558 242 498 c 2,35,-1
 242 399 l 1,36,-1
 383 399 l 1,37,-1
 383 326 l 1,38,-1
 242 326 l 1,39,-1
 242 257 l 2,40,41
 242 144 242 144 201 91 c 2,42,43
 201 91 201 91 186 73 c 1,44,-1
 517 73 l 1,45,-1
 517 0 l 1,46,-1
 71 0 l 5,0,-1
EndSplineSet
Validated: 3073
EndChar

StartChar: currency
Encoding: 164 164 311
Width: 588
VWidth: 1024
Flags: W
HStem: 196 72<224.462 363.758> 462 72<224.462 363.758>
VStem: 115 75<302.797 427.418> 398 75<302.797 427.418>
LayerCount: 2
Fore
SplineSet
456 160 m 5,0,-1
 395 221 l 1,1,2
 394 220 394 220 392 220 c 0,3,4
 352 196 352 196 294 196 c 0,5,6
 237 196 237 196 196 220 c 0,7,8
 194 220 194 220 193 221 c 1,9,-1
 132 160 l 1,10,-1
 76 210 l 1,11,-1
 140 275 l 2,12,13
 140 276 140 276 139 277 c 0,14,15
 115 318 115 318 115 365 c 0,16,17
 115 413 115 413 139 453 c 0,18,19
 140 454 140 454 140 455 c 2,20,-1
 76 520 l 1,21,-1
 132 570 l 1,22,-1
 193 509 l 1,23,24
 194 510 194 510 196 510 c 0,25,26
 237 534 237 534 294 534 c 0,27,28
 352 534 352 534 392 510 c 0,29,30
 394 510 394 510 395 509 c 1,31,-1
 456 570 l 1,32,-1
 512 520 l 1,33,-1
 448 455 l 2,34,35
 448 454 448 454 449 453 c 0,36,37
 473 413 473 413 473 365 c 0,38,39
 473 318 473 318 449 277 c 0,40,41
 448 276 448 276 448 275 c 2,42,-1
 512 210 l 1,43,-1
 456 160 l 5,0,-1
294 268 m 132,-1,45
 329 268 329 268 351 281 c 0,46,47
 372 293 372 293 383 313 c 0,48,49
 398 338 398 338 398 365 c 128,-1,50
 398 392 398 392 383 417 c 0,51,52
 372 437 372 437 351 449 c 0,53,54
 329 462 329 462 294 462 c 128,-1,55
 259 462 259 462 237 449 c 0,56,57
 216 437 216 437 205 417 c 0,58,59
 190 392 190 392 190 365 c 128,-1,60
 190 338 190 338 205 313 c 0,61,62
 216 293 216 293 237 281 c 0,63,44
 259 268 259 268 294 268 c 132,-1,45
EndSplineSet
Validated: 3073
EndChar

StartChar: yen
Encoding: 165 165 312
Width: 588
VWidth: 1024
Flags: W
HStem: 0 21G<254 336> 206 74<70 254 336 518> 353 73<70 214 376 518> 722 20G<42 135.104 453.961 547>
VStem: 254 82<0 206 280 353>
LayerCount: 2
Fore
SplineSet
70 353 m 5,0,-1
 70 426 l 1,1,-1
 214 426 l 1,2,-1
 42 742 l 1,3,-1
 124 742 l 1,4,-1
 295 434 l 1,5,-1
 465 742 l 1,6,-1
 547 742 l 1,7,-1
 376 426 l 1,8,-1
 518 426 l 1,9,-1
 518 353 l 1,10,-1
 336 353 l 1,11,-1
 336 280 l 1,12,-1
 518 280 l 1,13,-1
 518 206 l 1,14,-1
 336 206 l 1,15,-1
 336 0 l 1,16,-1
 254 0 l 1,17,-1
 254 206 l 1,18,-1
 70 206 l 1,19,-1
 70 280 l 1,20,-1
 254 280 l 1,21,-1
 254 353 l 1,22,-1
 70 353 l 5,0,-1
EndSplineSet
Validated: 3073
EndChar

StartChar: brokenbar
Encoding: 166 166 313
Width: 588
VWidth: 1024
Flags: W
VStem: 253 82<-88 296 369 819>
LayerCount: 2
Fore
SplineSet
253 369 m 1,0,-1
 253 819 l 1,1,-1
 335 819 l 1,2,-1
 335 369 l 1,3,-1
 253 369 l 1,0,-1
253 -88 m 1,4,-1
 253 296 l 1,5,-1
 335 296 l 1,6,-1
 335 -88 l 1,7,-1
 253 -88 l 1,4,-1
EndSplineSet
Validated: 3073
EndChar

StartChar: section
Encoding: 167 167 314
Width: 588
VWidth: 1024
Flags: W
HStem: -40 58<209.084 367.311> 760 58<215.772 382.386>
VStem: 97 82<336.384 446.741 613.964 724.495> 404 82<52.8073 162.952 331.881 441.616> 416 80<682 727.504>
LayerCount: 2
Fore
SplineSet
287 -40 m 260,0,1
 229 -40 229 -40 179 -19 c 0,2,3
 136 -1 136 -1 114 30 c 0,4,5
 99 51 99 51 92 97 c 1,6,-1
 172 97 l 1,7,8
 179 72 179 72 188 60 c 0,9,10
 202 41 202 41 226 30 c 0,11,12
 250 18 250 18 287 18 c 0,13,14
 325 18 325 18 350 30 c 0,15,16
 375 41 375 41 388 60 c 0,17,18
 404 82 404 82 404 109 c 0,19,20
 404 135 404 135 386 159 c 0,21,22
 360 191 360 191 317 210 c 0,23,24
 313 212 313 212 306.5 214.5 c 128,-1,25
 300 217 300 217 289.5 221 c 128,-1,26
 279 225 279 225 270 229 c 0,27,28
 224 246 224 246 207 254 c 0,29,30
 147 280 147 280 121 317 c 0,31,32
 97 351 97 351 97 388 c 0,33,34
 97 432 97 432 125 470 c 0,35,36
 150 507 150 507 196 530 c 1,37,38
 147 554 147 554 123 590 c 0,39,40
 97 628 97 628 97 667 c 0,41,42
 97 710 97 710 123 747 c 0,43,44
 144 777 144 777 188 797 c 0,45,46
 233 818 233 818 297 818 c 0,47,48
 363 818 363 818 414 796 c 0,49,50
 453 779 453 779 475 748 c 0,51,52
 493 722 493 722 496 682 c 1,53,-1
 416 682 l 1,54,55
 416 701 416 701 403 718 c 0,56,57
 389 737 389 737 367 747 c 0,58,59
 338 760 338 760 297 760 c 0,60,61
 258 760 258 760 233 748 c 0,62,63
 209 738 209 738 195 717 c 0,64,65
 179 695 179 695 179 669 c 0,66,67
 179 641 179 641 196 619 c 0,68,69
 222 587 222 587 266 568 c 0,70,71
 270 566 270 566 276.5 563.5 c 128,-1,72
 283 561 283 561 293.5 557 c 128,-1,73
 304 553 304 553 313 549 c 0,74,75
 355 533 355 533 374 524 c 0,76,77
 436 497 436 497 461 461 c 0,78,79
 485 427 485 427 486 390 c 0,80,81
 486 346 486 346 458 308 c 0,82,83
 432 270 432 270 386 248 c 1,84,85
 434 225 434 225 460 188 c 0,86,87
 486 150 486 150 486 111 c 0,88,89
 486 68 486 68 460 30 c 0,90,91
 438 -1 438 -1 397 -19 c 0,92,93
 352 -40 352 -40 287 -40 c 260,0,1
301 280 m 5,94,95
 317 286 317 286 325 290 c 0,96,97
 363 306 363 306 385 335 c 0,98,99
 404 360 404 360 404 390 c 0,100,101
 404 415 404 415 388 435 c 0,102,103
 367 462 367 462 329 479 c 0,104,105
 314 486 314 486 282 498 c 1,106,107
 266 492 266 492 257 488 c 0,108,109
 218 472 218 472 198 443 c 0,110,111
 179 418 179 418 179 388 c 0,112,113
 179 363 179 363 195 343 c 0,114,115
 216 316 216 316 254 299 c 0,116,117
 281 286 281 286 301 280 c 5,94,95
EndSplineSet
Validated: 3073
EndChar

StartChar: dieresis
Encoding: 168 168 315
Width: 588
VWidth: 1024
Flags: W
HStem: 861 106<157.564 245.57 352.626 441.57>
VStem: 139 118<873.319 951.529> 335 118<876.409 951.56>
LayerCount: 2
Back
SplineSet
333 742 m 5,0,-1
 564 33 l 1,1,-1
 564 0 l 1,2,-1
 477 0 l 1,3,-1
 477 33 l 1,4,-1
 418 215 l 1,5,-1
 170 215 l 1,6,-1
 111 33 l 1,7,-1
 111 0 l 1,8,-1
 25 0 l 1,9,-1
 25 33 l 1,10,-1
 256 742 l 1,11,-1
 333 742 l 5,0,-1
194 288 m 5,12,-1
 394 288 l 1,13,-1
 294 595 l 1,14,-1
 194 288 l 5,12,-1
EndSplineSet
Fore
Refer: 360 776 S 1 0 0 1 2 -81 2
Validated: 32769
EndChar

StartChar: copyright
Encoding: 169 169 316
Width: 588
VWidth: 1024
Flags: W
HStem: 69 51<189.459 398.541> 202 47<237.582 356.82> 470 47<237.001 352.199> 610 51<189.25 398.541>
VStem: 33 72<199.816 531.314> 151 54<284.381 436.786> 483 72<199.254 530.807>
LayerCount: 2
Fore
SplineSet
298 517 m 24,0,1
 343 517 343 517 386 486 c 0,2,3
 430 454 430 454 430 430 c 1,4,-1
 373 377 l 1,5,-1
 373 421 l 1,6,7
 366 440 366 440 343 455 c 0,8,9
 321 470 321 470 298 470 c 0,10,11
 253 470 253 470 229 440 c 128,-1,12
 205 410 205 410 205 364 c 0,13,14
 205 316 205 316 228 282 c 0,15,16
 250 249 250 249 298 249 c 0,17,18
 328 249 328 249 351 266 c 0,19,20
 376 285 376 285 386 309 c 1,21,-1
 447 309 l 1,22,23
 432 269 432 269 390 236 c 0,24,25
 347 202 347 202 296 202 c 0,26,27
 232 202 232 202 192 248 c 0,28,29
 151 295 151 295 151 364 c 128,-1,30
 151 433 151 433 193 475 c 128,-1,31
 235 517 235 517 298 517 c 24,0,1
294 69 m 256,32,33
 212 69 212 69 153 96 c 0,34,35
 99 122 99 122 69 162 c 0,36,37
 33 210 33 210 33 371 c 0,38,39
 33 516 33 516 69 568 c 0,40,41
 97 610 97 610 153 634 c 0,42,43
 211 661 211 661 294 661 c 256,44,45
 376 661 376 661 435 634 c 0,46,47
 489 608 489 608 519 568 c 0,48,49
 555 520 555 520 555 371 c 0,50,51
 555 214 555 214 519 162 c 0,52,53
 491 120 491 120 435 96 c 0,54,55
 376 69 376 69 294 69 c 256,32,33
294 120 m 256,56,57
 354 120 354 120 393 139 c 0,58,59
 433 157 433 157 455 188 c 0,60,61
 483 225 483 225 483 371 c 0,62,63
 483 504 483 504 455 542 c 0,64,65
 433 573 433 573 393 591 c 0,66,67
 354 610 354 610 294 610 c 128,-1,68
 234 610 234 610 195 591 c 0,69,70
 155 573 155 573 133 542 c 0,71,72
 105 505 105 505 105 371 c 0,73,74
 105 226 105 226 133 188 c 0,75,76
 155 157 155 157 195 139 c 0,77,78
 234 120 234 120 294 120 c 256,56,57
EndSplineSet
Validated: 3073
EndChar

StartChar: ordfeminine
Encoding: 170 170 317
Width: 588
VWidth: 1024
Flags: W
HStem: 217 73<97 491> 363 56<197.41 309.29 426.122 450.245> 683 53<199.311 318.549>
VStem: 97 63<466.213 638.985> 355 63<691 711> 362 56<492.114 644.679> 377 41<423.438 466>
LayerCount: 2
Fore
SplineSet
438 731 m 5,0,-1
 418 711 l 1,1,-1
 418 484 l 2,2,3
 418 428 418 428 451 416 c 1,4,-1
 491 416 l 1,5,-1
 446 361 l 1,6,7
 377 370 377 370 377 466 c 1,8,9
 347 363 347 363 276 363 c 0,10,11
 201 363 201 363 151 419 c 0,12,13
 97 480 97 480 97 553 c 0,14,15
 97 620 97 620 142 678 c 128,-1,16
 187 736 187 736 253 736 c 0,17,18
 279 736 279 736 312 718 c 0,19,20
 347 699 347 699 355 691 c 1,21,-1
 355 731 l 1,22,-1
 438 731 l 5,0,-1
251 683 m 4,23,24
 229 683 229 683 203 664 c 0,25,26
 186 652 186 652 175 625 c 0,27,28
 160 589 160 589 160 542 c 0,29,30
 160 487 160 487 192 446 c 0,31,32
 214 419 214 419 267 419 c 0,33,34
 316 419 316 419 350 518 c 0,35,36
 362 551 362 551 362 595 c 0,37,38
 362 625 362 625 339 646 c 128,-1,39
 316 667 316 667 296 675 c 0,40,41
 275 683 275 683 251 683 c 4,23,24
97 217 m 5,42,-1
 97 290 l 1,43,-1
 491 290 l 1,44,-1
 491 217 l 1,45,-1
 97 217 l 5,42,-1
EndSplineSet
Validated: 3073
EndChar

StartChar: guillemotleft
Encoding: 171 171 318
Width: 588
VWidth: 1024
Flags: W
LayerCount: 2
Fore
SplineSet
546 706 m 29,0,-1
 546 618 l 1,1,-1
 310 370 l 1,2,-1
 546 113 l 1,3,-1
 546 25 l 1,4,-1
 222 370 l 1,5,-1
 546 706 l 29,0,-1
366 706 m 29,6,-1
 366 618 l 1,7,-1
 130 370 l 1,8,-1
 366 113 l 1,9,-1
 366 25 l 1,10,-1
 42 370 l 1,11,-1
 366 706 l 29,6,-1
EndSplineSet
Validated: 3073
EndChar

StartChar: logicalnot
Encoding: 172 172 319
Width: 588
VWidth: 1024
Flags: W
HStem: 322 73<71 435>
VStem: 435 82<166 322>
LayerCount: 2
Fore
SplineSet
517 166 m 1,0,-1
 435 166 l 1,1,-1
 435 322 l 1,2,-1
 71 322 l 1,3,-1
 71 395 l 1,4,-1
 517 395 l 1,5,-1
 517 166 l 1,0,-1
EndSplineSet
Validated: 3073
EndChar

StartChar: uni00AD
Encoding: 173 173 320
Width: 588
VWidth: 1024
Flags: W
HStem: 322 73<71 517>
LayerCount: 2
Fore
SplineSet
71 322 m 1,0,-1
 71 395 l 1,1,-1
 517 395 l 1,2,-1
 517 322 l 1,3,-1
 71 322 l 1,0,-1
EndSplineSet
Validated: 3073
EndChar

StartChar: registered
Encoding: 174 174 321
Width: 588
VWidth: 1024
Flags: W
HStem: 69 51<189.459 398.541> 368 43<233 341.861> 492 42<233 349.761> 610 51<189.25 398.541>
VStem: 33 72<199.816 531.314> 186 47<200 368 411 492> 358 42<419.888 484.302> 366 47<200 344.642> 483 72<199.254 530.807>
LayerCount: 2
Fore
SplineSet
315 534 m 6,0,1
 355 534 355 534 378 510 c 0,2,3
 400 487 400 487 400 456 c 0,4,5
 400 411 400 411 357 390 c 1,6,-1
 357 384 l 1,7,8
 383 374 383 374 398 350 c 128,-1,9
 413 326 413 326 413 293 c 2,10,-1
 413 200 l 1,11,-1
 366 200 l 1,12,-1
 366 293 l 2,13,14
 366 323 366 323 344 345 c 0,15,16
 321 368 321 368 306 368 c 2,17,-1
 233 368 l 1,18,-1
 233 200 l 1,19,-1
 186 200 l 1,20,-1
 186 534 l 1,21,-1
 315 534 l 6,0,1
358 456 m 4,22,23
 358 462 358 462 344 478 c 0,24,25
 331 492 331 492 317 492 c 2,26,-1
 233 492 l 1,27,-1
 233 411 l 1,28,-1
 318 411 l 2,29,30
 331 411 331 411 344 427 c 0,31,32
 358 444 358 444 358 456 c 4,22,23
447 309 m 1029,33,-1
294 69 m 260,34,35
 212 69 212 69 153 96 c 0,36,37
 99 122 99 122 69 162 c 0,38,39
 33 210 33 210 33 371 c 0,40,41
 33 516 33 516 69 568 c 0,42,43
 97 610 97 610 153 634 c 0,44,45
 211 661 211 661 294 661 c 256,46,47
 376 661 376 661 435 634 c 0,48,49
 489 608 489 608 519 568 c 0,50,51
 555 520 555 520 555 371 c 0,52,53
 555 214 555 214 519 162 c 0,54,55
 491 120 491 120 435 96 c 0,56,57
 376 69 376 69 294 69 c 260,34,35
294 120 m 260,58,59
 354 120 354 120 393 139 c 0,60,61
 433 157 433 157 455 188 c 0,62,63
 483 225 483 225 483 371 c 0,64,65
 483 504 483 504 455 542 c 0,66,67
 433 573 433 573 393 591 c 0,68,69
 354 610 354 610 294 610 c 128,-1,70
 234 610 234 610 195 591 c 0,71,72
 155 573 155 573 133 542 c 0,73,74
 105 505 105 505 105 371 c 0,75,76
 105 226 105 226 133 188 c 0,77,78
 155 157 155 157 195 139 c 0,79,80
 234 120 234 120 294 120 c 260,58,59
EndSplineSet
Validated: 3073
EndChar

StartChar: degree
Encoding: 176 176 323
Width: 588
VWidth: 1024
Flags: W
HStem: 540 60<246.667 341.981> 728 60<246.88 341.737>
VStem: 172 60<614.642 713.708> 357 60<614.319 713.708>
LayerCount: 2
Fore
SplineSet
294 540 m 260,0,1
 232 540 232 540 191 597 c 0,2,3
 172 623 172 623 172 664 c 0,4,5
 172 703 172 703 191 732 c 0,6,7
 226 788 226 788 294 788 c 0,8,9
 359 788 359 788 397 732 c 0,10,11
 417 703 417 703 417 664 c 0,12,13
 417 629 417 629 397 597 c 0,14,15
 360 540 360 540 294 540 c 260,0,1
294 600 m 260,16,17
 322 600 322 600 340 616 c 0,18,19
 357 631 357 631 357 664 c 128,-1,20
 357 697 357 697 340 712 c 0,21,22
 322 728 322 728 294 728 c 0,23,24
 267 728 267 728 249 712 c 0,25,26
 232 697 232 697 232 664 c 128,-1,27
 232 631 232 631 249 616 c 0,28,29
 267 600 267 600 294 600 c 260,16,17
EndSplineSet
Validated: 3073
EndChar

StartChar: uni00B2
Encoding: 178 178 324
Width: 588
VWidth: 1024
Flags: W
HStem: 316 94<395 452> 316 50<189 395> 768 50<221.821 364.84>
VStem: 129 55<655 727.906> 397 55<366 410 624.221 736.729>
LayerCount: 2
Fore
SplineSet
291 818 m 4,0,1
 365 818 365 818 408 775 c 0,2,3
 450 732 450 732 452 677 c 0,4,5
 450 643 450 643 427 608 c 0,6,7
 401 569 401 569 368 540 c 0,8,9
 357 531 357 531 345 521 c 128,-1,10
 333 511 333 511 318.5 499 c 128,-1,11
 304 487 304 487 296 480 c 0,12,13
 248 440 248 440 228 420 c 0,14,15
 198 390 198 390 189 366 c 1,16,-1
 395 366 l 1,17,-1
 395 410 l 1,18,-1
 452 410 l 1,19,-1
 452 316 l 1,20,-1
 129 316 l 1,21,-1
 129 366 l 1,22,23
 139 397 139 397 169 430 c 0,24,25
 201 464 201 464 238 496 c 0,26,27
 288 538 288 538 312 558 c 0,28,29
 347 587 347 587 372 620 c 128,-1,30
 397 653 397 653 397 677 c 0,31,32
 397 720 397 720 368 744 c 128,-1,33
 339 768 339 768 291 768 c 0,34,35
 239 768 239 768 212 737 c 0,36,37
 186 706 186 706 184 655 c 1,38,-1
 129 655 l 1,39,40
 131 720 131 720 174 768 c 0,41,42
 218 817 218 817 291 818 c 4,0,1
EndSplineSet
Validated: 3073
EndChar

StartChar: uni00B3
Encoding: 179 179 325
Width: 588
VWidth: 1024
Flags: W
HStem: 310 44<138.453 265.176> 720 92<142 197> 763 49<197 388>
VStem: 142 55<720 763> 409 54<452.971 579.218>
LayerCount: 2
Fore
SplineSet
456 812 m 29,0,-1
 456 763 l 1,1,-1
 338 654 l 1,2,3
 369 652 369 652 390 644 c 0,4,5
 412 635 412 635 424 622 c 0,6,7
 437 607 437 607 446 594 c 0,8,9
 455 580 455 580 458 564 c 0,10,11
 459 558 459 558 460.5 551 c 128,-1,12
 462 544 462 544 462 541 c 0,13,14
 463 536 463 536 463 528 c 0,15,16
 463 487 463 487 448 454 c 128,-1,17
 433 421 433 421 410 398 c 0,18,19
 389 377 389 377 358 360 c 0,20,21
 328 343 328 343 298 334 c 0,22,23
 260 322 260 322 239 319 c 0,24,25
 231 318 231 318 220.5 316 c 128,-1,26
 210 314 210 314 202.5 313 c 128,-1,27
 195 312 195 312 190 312 c 0,28,29
 166 310 166 310 155 310 c 0,30,31
 150 310 150 310 144 316 c 0,32,33
 138 323 138 323 137 327 c 0,34,35
 137 331 137 331 142 338 c 0,36,37
 148 346 148 346 153 347 c 0,38,39
 183 352 183 352 189 354 c 0,40,41
 191 354 191 354 203.5 357.5 c 128,-1,42
 216 361 216 361 226 364 c 0,43,44
 260 374 260 374 266 376 c 128,-1,45
 272 378 272 378 302 390 c 0,46,47
 331 401 331 401 338 407 c 0,48,49
 359 423 359 423 366 429 c 0,50,51
 382 443 382 443 389 456 c 0,52,53
 397 471 397 471 403 488 c 0,54,55
 409 506 409 506 409 527 c 0,56,57
 408 555 408 555 389 580 c 0,58,59
 371 603 371 603 330 605 c 0,60,61
 285 605 285 605 248 580 c 1,62,-1
 211 605 l 1,63,-1
 249 638 l 1,64,-1
 388 763 l 1,65,-1
 197 763 l 1,66,-1
 197 720 l 1,67,-1
 142 720 l 1,68,-1
 142 812 l 1,69,-1
 456 812 l 29,0,-1
EndSplineSet
Validated: 3073
EndChar

StartChar: mu
Encoding: 181 181 327
Width: 588
VWidth: 1024
Flags: W
HStem: 5 67<207.449 373.177> 453 20G<48 179 412 543>
VStem: 71 82<-196 30 128.162 442> 435 82<31 83 128.48 442>
LayerCount: 2
Fore
SplineSet
517 31 m 1,0,-1
 551 0 l 1,1,-1
 435 0 l 1,2,-1
 435 83 l 1,3,4
 435 81 435 81 432 77 c 0,5,6
 413 45 413 45 364 22 c 0,7,8
 325 5 325 5 265 5 c 128,-1,9
 205 5 205 5 169 22 c 2,10,-1
 153 30 l 1,11,-1
 153 -196 l 1,12,-1
 71 -196 l 1,13,-1
 71 442 l 1,14,-1
 48 473 l 1,15,-1
 179 473 l 1,16,-1
 153 442 l 1,17,-1
 153 216 l 2,18,19
 153 156 153 156 180 120 c 0,20,21
 199 95 199 95 226 83 c 0,22,23
 253 72 253 72 294 72 c 0,24,25
 337 72 337 72 362 83 c 0,26,27
 389 95 389 95 408 120 c 0,28,29
 435 158 435 158 435 210 c 2,30,-1
 435 442 l 1,31,-1
 412 473 l 1,32,-1
 543 473 l 1,33,-1
 517 442 l 1,34,-1
 517 31 l 1,0,-1
EndSplineSet
Validated: 3073
EndChar

StartChar: paragraph
Encoding: 182 182 328
Width: 588
VWidth: 1024
Flags: W
HStem: 335 73<195.625 274> 633 73<194.976 274>
VStem: 72 82<450.356 591.483> 274 82<29 335 408 633> 414 82<29 706>
LayerCount: 2
Fore
SplineSet
414 29 m 5,0,-1
 414 706 l 1,1,-1
 496 706 l 1,2,-1
 496 29 l 1,3,-1
 414 29 l 5,0,-1
274 29 m 5,4,-1
 274 335 l 1,5,6
 215 335 215 335 174 354 c 0,7,8
 131 374 131 374 105 409 c 0,9,10
 72 454 72 454 72 520 c 128,-1,11
 72 586 72 586 105 631 c 0,12,13
 131 666 131 666 174 686 c 128,-1,14
 217 706 217 706 274 706 c 2,15,-1
 356 706 l 1,16,-1
 356 29 l 1,17,-1
 274 29 l 5,4,-1
274 408 m 5,18,-1
 274 633 l 1,19,20
 233 631 233 631 215 623 c 0,21,22
 192 613 192 613 176 592 c 0,23,24
 154 561 154 561 154 520 c 128,-1,25
 154 479 154 479 176 450 c 0,26,27
 192 428 192 428 215 418 c 0,28,29
 235 408 235 408 274 408 c 5,18,-1
EndSplineSet
Validated: 3073
EndChar

StartChar: uni00B9
Encoding: 185 185 330
Width: 588
VWidth: 1024
Flags: W
VStem: 254 55<314 695>
LayerCount: 2
Fore
SplineSet
309 812 m 29,0,-1
 309 314 l 1,1,-1
 254 314 l 1,2,-1
 254 695 l 1,3,-1
 197 695 l 1,4,-1
 268 812 l 1,5,-1
 309 812 l 29,0,-1
EndSplineSet
Validated: 3073
EndChar

StartChar: ordmasculine
Encoding: 186 186 331
Width: 588
VWidth: 1024
Flags: W
HStem: 197 73<108 480> 343 52<222.79 360.003> 698 52<226.868 355.764>
VStem: 108 76<445.125 636.778> 404 76<448.875 635.513>
LayerCount: 2
Fore
SplineSet
290 698 m 4,0,1
 184 698 184 698 184 541 c 0,2,3
 184 471 184 471 208 433 c 128,-1,4
 232 395 232 395 290 395 c 0,5,6
 349 395 349 395 376 434 c 0,7,8
 404 474 404 474 404 541 c 0,9,10
 404 611 404 611 376 654 c 0,11,12
 347 698 347 698 290 698 c 4,0,1
290 750 m 4,13,14
 370 750 370 750 425 686 c 128,-1,15
 480 622 480 622 480 541 c 0,16,17
 480 461 480 461 425 402 c 128,-1,18
 370 343 370 343 290 343 c 128,-1,19
 210 343 210 343 159 402 c 0,20,21
 108 460 108 460 108 541 c 0,22,23
 108 620 108 620 160 686 c 0,24,25
 211 750 211 750 290 750 c 4,13,14
108 197 m 5,26,-1
 108 270 l 1,27,-1
 480 270 l 1,28,-1
 480 197 l 1,29,-1
 108 197 l 5,26,-1
EndSplineSet
Validated: 3073
EndChar

StartChar: guillemotright
Encoding: 187 187 332
Width: 588
VWidth: 1024
Flags: W
LayerCount: 2
Fore
SplineSet
42 25 m 5,0,-1
 42 113 l 1,1,-1
 278 370 l 1,2,-1
 42 618 l 1,3,-1
 42 706 l 1,4,-1
 366 370 l 1,5,-1
 42 25 l 5,0,-1
222 25 m 5,6,-1
 222 113 l 1,7,-1
 458 370 l 1,8,-1
 222 618 l 1,9,-1
 222 706 l 1,10,-1
 546 370 l 1,11,-1
 222 25 l 5,6,-1
EndSplineSet
Validated: 3073
EndChar

StartChar: onequarter
Encoding: 188 188 333
Width: 588
VWidth: 1024
Flags: W
HStem: 0 21G<466 508> 105 47<383 466 508 558>
VStem: 102 51<407 691> 466 42<0 105 152 301>
LayerCount: 2
Back
SplineSet
251 340 m 5,0,-1
 251 390 l 1,1,-1
 697 390 l 1,2,-1
 697 340 l 1,3,-1
 251 340 l 5,0,-1
453 463 m 5,4,-1
 453 759 l 1,5,-1
 407 731 l 1,6,-1
 356 776 l 1,7,-1
 453 835 l 1,8,-1
 534 835 l 1,9,-1
 534 463 l 1,10,-1
 453 463 l 5,4,-1
567 -105 m 5,11,-1
 485 -105 l 1,12,-1
 485 -14 l 1,13,-1
 327 -14 l 1,14,-1
 327 43 l 1,15,-1
 466 267 l 1,16,-1
 567 267 l 1,17,-1
 567 43 l 1,18,-1
 616 43 l 1,19,-1
 616 -14 l 1,20,-1
 567 -14 l 1,21,-1
 567 -105 l 5,11,-1
407 43 m 5,22,-1
 485 43 l 1,23,-1
 485 167 l 1,24,-1
 407 43 l 5,22,-1
EndSplineSet
Fore
SplineSet
153 777 m 29,0,-1
 153 407 l 1,1,-1
 102 407 l 1,2,-1
 102 691 l 1,3,-1
 60 691 l 1,4,-1
 112 777 l 1,5,-1
 153 777 l 29,0,-1
466 301 m 1,6,-1
 383 152 l 1,7,-1
 466 152 l 1,8,-1
 466 301 l 1,6,-1
508 370 m 1,9,-1
 508 152 l 1,10,-1
 558 152 l 1,11,-1
 558 105 l 1,12,-1
 508 105 l 1,13,-1
 508 0 l 1,14,-1
 466 0 l 1,15,-1
 466 105 l 1,16,-1
 306 105 l 1,17,-1
 456 370 l 1,18,-1
 508 370 l 1,9,-1
588 832 m 25,19,-1
 82 -20 l 1,20,-1
 0 -20 l 1,21,-1
 506 832 l 1,22,-1
 588 832 l 25,19,-1
EndSplineSet
Validated: 3073
EndChar

StartChar: onehalf
Encoding: 189 189 334
Width: 588
VWidth: 1024
Flags: W
HStem: 0 75<545 587> 0 42<391 545> 337 37<417.619 519.314>
VStem: 102 51<407 691> 346 46<253 313.247> 545 42<42 75>
LayerCount: 2
Back
SplineSet
71 340 m 5,0,-1
 71 390 l 1,1,-1
 517 390 l 1,2,-1
 517 340 l 1,3,-1
 71 340 l 5,0,-1
436 -105 m 5,4,-1
 152 -105 l 1,5,6
 152 -34 152 -34 180 4 c 0,7,8
 205 36 205 36 272 76 c 0,9,10
 328 108 328 108 343 131 c 0,11,12
 357 149 357 149 356 166 c 0,13,14
 357 186 357 186 339.5 200 c 128,-1,15
 322 214 322 214 292 214 c 0,16,17
 260 214 260 214 243 200 c 0,18,19
 229 189 229 189 228 173 c 1,20,-1
 148 189 l 1,21,22
 152 207 152 207 163 221 c 0,23,24
 178 242 178 242 207 255 c 0,25,26
 242 271 242 271 292 271 c 0,27,28
 340 271 340 271 375 256 c 0,29,30
 403 242 403 242 421 220 c 0,31,32
 439 194 439 194 439 165.5 c 128,-1,33
 439 137 439 137 419 109 c 128,-1,34
 399 81 399 81 338.5 44 c 128,-1,35
 278 7 278 7 256 -21 c 0,36,37
 248 -33 248 -33 242 -47 c 1,38,-1
 436 -47 l 1,39,-1
 436 -105 l 5,4,-1
273 463 m 5,40,-1
 273 759 l 1,41,-1
 227 731 l 1,42,-1
 176 776 l 1,43,-1
 273 835 l 1,44,-1
 354 835 l 1,45,-1
 354 463 l 1,46,-1
 273 463 l 5,40,-1
EndSplineSet
Fore
SplineSet
467 374 m 4,0,1
 520 374 520 374 554 342 c 0,2,3
 585 311 585 311 587 269 c 0,4,5
 585 243 585 243 568 218 c 0,6,7
 550 192 550 192 524 168 c 0,8,9
 515 159 515 159 470 122 c 0,10,11
 430 89 430 89 420 80 c 0,12,13
 399 62 399 62 391 42 c 1,14,-1
 545 42 l 1,15,-1
 545 75 l 1,16,-1
 587 75 l 1,17,-1
 587 0 l 1,18,-1
 346 0 l 1,19,-1
 346 37 l 1,20,21
 358 68 358 68 371 84 c 0,22,23
 395 111 395 111 422 134 c 0,24,25
 441 150 441 150 477 180 c 0,26,27
 496 196 496 196 522 226 c 0,28,29
 545 255 545 255 546 269 c 0,30,31
 544 296 544 296 520 319 c 0,32,33
 499 337 499 337 467 337 c 0,34,35
 434 337 434 337 413 314 c 0,36,37
 393 290 393 290 392 253 c 1,38,-1
 346 253 l 1,39,40
 347 302 347 302 379 338 c 0,41,42
 412 374 412 374 467 374 c 4,0,1
153 777 m 29,43,-1
 153 407 l 1,44,-1
 102 407 l 1,45,-1
 102 691 l 1,46,-1
 60 691 l 1,47,-1
 112 777 l 1,48,-1
 153 777 l 29,43,-1
588 832 m 29,49,-1
 82 -20 l 1,50,-1
 0 -20 l 1,51,-1
 506 832 l 1,52,-1
 588 832 l 29,49,-1
EndSplineSet
Validated: 3073
EndChar

StartChar: threequarters
Encoding: 190 190 335
Width: 588
VWidth: 1024
Flags: W
HStem: 0 21G<466 508> 105 47<383 466 508 558> 657 38<146 183.559> 744 68<0 41> 775 37<41 183>
VStem: 0 41<744 775> 199 40<538.2 637.437> 466 42<0 105 152 301>
LayerCount: 2
Back
SplineSet
71 340 m 5,0,-1
 71 390 l 1,1,-1
 517 390 l 1,2,-1
 517 340 l 1,3,-1
 71 340 l 5,0,-1
294 459 m 4,4,5
 240 459 240 459 203 475 c 0,6,7
 174 489 174 489 158 512 c 0,8,9
 147 526 147 526 143 541 c 1,10,-1
 222 558 l 1,11,12
 224 543 224 543 239 532 c 0,13,14
 258 516 258 516 294 516 c 0,15,16
 329 516 329 516 348 532 c 0,17,18
 364 544 364 544 365 564 c 0,19,20
 365 580 365 580 354 593 c 0,21,22
 342 610 342 610 321 619 c 0,23,24
 297 630 297 630 250 630 c 1,25,-1
 250 688 l 1,26,27
 292 688 292 688 316 698 c 0,28,29
 335 706 335 706 346 721 c 0,30,31
 354 733 354 733 354 745 c 0,32,33
 354 759 354 759 342 769 c 0,34,35
 326 782 326 782 294 782 c 0,36,37
 265 782 265 782 248 769 c 0,38,39
 234 759 234 759 234 744 c 1,40,-1
 154 757 l 1,41,42
 156 775 156 775 168 791 c 0,43,44
 183 812 183 812 211 825 c 0,45,46
 245 841 245 841 294 840 c 0,47,48
 345 840 345 840 379 825 c 0,49,50
 406 812 406 812 421 791 c 128,-1,52
 436 770 436 770 436 745 c 128,-1,53
 436 720 436 720 420 699 c 0,54,55
 405 676 405 676 373 662 c 0,56,57
 369 660 369 660 365 659 c 1,58,59
 373 656 373 656 379 654 c 0,60,61
 411 639 411 639 429 614.5 c 128,-1,62
 447 590 447 590 447 562.5 c 128,-1,63
 447 535 447 535 429 512 c 0,64,65
 413 489 413 489 383 476 c 0,66,67
 346 459 346 459 294 459 c 4,4,5
387 -105 m 5,68,-1
 305 -105 l 1,69,-1
 305 -14 l 1,70,-1
 147 -14 l 1,71,-1
 147 43 l 1,72,-1
 286 267 l 1,73,-1
 387 267 l 1,74,-1
 387 43 l 1,75,-1
 436 43 l 1,76,-1
 436 -14 l 1,77,-1
 387 -14 l 1,78,-1
 387 -105 l 5,68,-1
227 43 m 5,79,-1
 305 43 l 1,80,-1
 305 167 l 1,81,-1
 227 43 l 5,79,-1
EndSplineSet
Fore
SplineSet
235 812 m 29,0,-1
 235 775 l 1,1,-1
 146 695 l 1,2,3
 169 695 169 695 184 688 c 0,4,5
 200 680 200 680 211 670 c 0,6,7
 222 659 222 659 227 650 c 0,8,9
 233 640 233 640 236 627 c 0,10,11
 238 619 238 619 238 610 c 0,12,13
 238 608 238 608 238.5 605 c 128,-1,14
 239 602 239 602 239 601 c 0,15,16
 239 572 239 572 228 545 c 0,17,18
 218 521 218 521 200 503 c 128,-1,19
 182 485 182 485 161 474 c 128,-1,20
 140 463 140 463 116 456 c 0,21,22
 90 449 90 449 72 445 c 0,23,24
 62 443 62 443 35 440 c 0,25,26
 17 438 17 438 10 438 c 0,27,28
 6 438 6 438 2 442 c 0,29,30
 -3 447 -3 447 -3 450 c 0,31,32
 -3 454 -3 454 0 458 c 0,33,34
 4 464 4 464 8 465 c 0,35,36
 28 469 28 469 35 471 c 2,37,-1
 63 478 l 2,38,39
 83 482 83 482 93 487 c 0,40,41
 96 488 96 488 120 497 c 0,42,43
 138 504 138 504 146 510 c 0,44,45
 149 512 149 512 167 526 c 0,46,47
 178 535 178 535 185 546 c 0,48,49
 190 554 190 554 195 570 c 0,50,51
 199 581 199 581 199 599 c 0,52,53
 197 620 197 620 184 638 c 0,54,55
 170 657 170 657 141 657 c 0,56,57
 108 657 108 657 79 639 c 1,58,-1
 51 658 l 1,59,-1
 80 683 l 1,60,-1
 183 775 l 1,61,-1
 41 775 l 1,62,-1
 41 744 l 1,63,-1
 0 744 l 1,64,-1
 0 812 l 1,65,-1
 235 812 l 29,0,-1
466 301 m 5,66,-1
 383 152 l 1,67,-1
 466 152 l 1,68,-1
 466 301 l 5,66,-1
508 370 m 5,69,-1
 508 152 l 1,70,-1
 558 152 l 1,71,-1
 558 105 l 1,72,-1
 508 105 l 1,73,-1
 508 0 l 1,74,-1
 466 0 l 1,75,-1
 466 105 l 1,76,-1
 306 105 l 1,77,-1
 456 370 l 1,78,-1
 508 370 l 5,69,-1
588 832 m 29,79,-1
 82 -20 l 1,80,-1
 0 -20 l 1,81,-1
 506 832 l 1,82,-1
 588 832 l 29,79,-1
EndSplineSet
Validated: 3073
EndChar

